G04 MADE WITH FRITZING*
G04 WWW.FRITZING.ORG*
G04 DOUBLE SIDED*
G04 HOLES PLATED*
G04 CONTOUR ON CENTER OF CONTOUR VECTOR*
%ASAXBY*%
%FSLAX23Y23*%
%MOIN*%
%OFA0B0*%
%SFA1.0B1.0*%
%ADD10C,0.138425*%
%ADD11C,0.066000*%
%ADD12C,0.075000*%
%ADD13C,0.082000*%
%ADD14C,0.083307*%
%ADD15C,0.039370*%
%ADD16R,0.082000X0.082000*%
%ADD17R,0.075000X0.075000*%
%ADD18R,0.083307X0.083307*%
%ADD19C,0.024000*%
%LNCOPPER0*%
G90*
G70*
G54D10*
X95Y135D03*
G54D11*
X1745Y85D03*
X1645Y85D03*
X1545Y85D03*
X1445Y85D03*
X1345Y85D03*
X1245Y85D03*
G54D10*
X95Y835D03*
G54D11*
X645Y85D03*
X545Y85D03*
X345Y85D03*
X245Y85D03*
X645Y885D03*
X745Y885D03*
X845Y885D03*
X945Y885D03*
X1045Y885D03*
X1145Y885D03*
X1245Y885D03*
X1345Y885D03*
X1445Y885D03*
X1545Y885D03*
X1645Y885D03*
X1745Y885D03*
G54D12*
X1745Y1085D03*
X1345Y1085D03*
G54D13*
X245Y1385D03*
X545Y1385D03*
G54D12*
X845Y1685D03*
X1145Y1685D03*
X845Y1585D03*
X1145Y1585D03*
X845Y1485D03*
X1145Y1485D03*
X845Y1385D03*
X1145Y1385D03*
X845Y1285D03*
X1145Y1285D03*
X845Y1185D03*
X1145Y1185D03*
X845Y1085D03*
X1145Y1085D03*
G54D14*
X2045Y1585D03*
X1745Y1585D03*
X1445Y1585D03*
G54D15*
X1788Y1682D03*
G54D16*
X245Y1385D03*
G54D17*
X845Y1685D03*
G54D18*
X2045Y1585D03*
G54D19*
X1724Y1559D02*
X1363Y1107D01*
D02*
X868Y1601D02*
X1092Y1754D01*
X1092Y1754D02*
X1212Y1754D01*
X1212Y1754D02*
X1244Y916D01*
D02*
X2014Y1596D02*
X1806Y1676D01*
D02*
X822Y1667D02*
X780Y1634D01*
X780Y1634D02*
X780Y1130D01*
X780Y1130D02*
X821Y1101D01*
D02*
X274Y1398D02*
X780Y1634D01*
G04 End of Copper0*
M02*