; NON-PLATED HOLES START AT T1
; THROUGH (PLATED) HOLES START AT T100
M48
INCH
T100C0.039370
T101C0.015748
T102C0.043307
T103C0.042000
T104C0.098425
T105C0.035000
%
T100
X009446Y008848
X006446Y008848
X006446Y000847
X007446Y008848
X016446Y008848
X014446Y000847
X017446Y008848
X005446Y000847
X014446Y008848
X015446Y008848
X017446Y000847
X011446Y008848
X012446Y000847
X012446Y008848
X002446Y000847
X013446Y000847
X003446Y000847
X016446Y000847
X008446Y008848
X013446Y008848
X010446Y008848
X015446Y000847
T101
X017880Y016823
T102
X017446Y015848
X014446Y015848
X020446Y015848
T103
X002446Y013848
X005446Y013848
T104
X000946Y008348
X000946Y001347
T105
X008446Y012848
X011446Y011848
X008446Y013848
X008446Y016848
X011446Y015848
X017446Y010848
X008446Y014848
X011446Y016848
X008446Y011848
X011446Y012848
X011446Y013848
X008446Y015848
X013446Y010848
X011446Y010848
X011446Y014848
X008446Y010848
T00
M30
