G04 MADE WITH FRITZING*
G04 WWW.FRITZING.ORG*
G04 DOUBLE SIDED*
G04 HOLES PLATED*
G04 CONTOUR ON CENTER OF CONTOUR VECTOR*
%ASAXBY*%
%FSLAX23Y23*%
%MOIN*%
%OFA0B0*%
%SFA1.0B1.0*%
%ADD10C,0.610000X0.59*%
%ADD11C,0.008000*%
%ADD12C,0.005000*%
%ADD13C,0.010000*%
%ADD14R,0.001000X0.001000*%
%LNSILK1*%
G90*
G70*
G54D10*
X395Y1385D03*
G54D11*
X331Y913D02*
X508Y913D01*
D02*
X577Y775D02*
X577Y618D01*
D02*
X577Y618D02*
X544Y618D01*
D02*
X544Y618D02*
X544Y716D01*
D02*
X544Y716D02*
X489Y716D01*
D02*
X351Y716D02*
X296Y716D01*
D02*
X296Y716D02*
X296Y618D01*
D02*
X296Y618D02*
X262Y618D01*
D02*
X262Y618D02*
X262Y775D01*
G54D12*
D02*
X1986Y800D02*
X1986Y170D01*
D02*
X1986Y170D02*
X1042Y170D01*
D02*
X1042Y170D02*
X1042Y800D01*
D02*
X1042Y800D02*
X1986Y800D01*
D02*
X1679Y721D02*
X1679Y249D01*
D02*
X1679Y249D02*
X1089Y249D01*
D02*
X1089Y249D02*
X1089Y721D01*
D02*
X1089Y721D02*
X1679Y721D01*
D02*
X213Y583D02*
X213Y552D01*
D02*
X213Y418D02*
X213Y386D01*
G54D13*
D02*
X1635Y1052D02*
X1435Y1052D01*
D02*
X1435Y1052D02*
X1435Y1118D01*
D02*
X1435Y1118D02*
X1635Y1118D01*
D02*
X1635Y1118D02*
X1635Y1052D01*
D02*
X795Y1735D02*
X795Y1035D01*
D02*
X795Y1035D02*
X1195Y1035D01*
D02*
X1195Y1035D02*
X1195Y1735D01*
D02*
X795Y1735D02*
X945Y1735D01*
D02*
X1045Y1735D02*
X1195Y1735D01*
D02*
X2200Y1765D02*
X1290Y1765D01*
D02*
X1290Y1765D02*
X1290Y1325D01*
D02*
X1290Y1325D02*
X2200Y1325D01*
D02*
X2200Y1325D02*
X2200Y1765D01*
G54D12*
D02*
X1290Y1405D02*
X2200Y1405D01*
G54D14*
X0Y1814D02*
X2250Y1814D01*
X0Y1813D02*
X2250Y1813D01*
X0Y1812D02*
X2250Y1812D01*
X0Y1811D02*
X2250Y1811D01*
X0Y1810D02*
X2250Y1810D01*
X0Y1809D02*
X2250Y1809D01*
X0Y1808D02*
X2250Y1808D01*
X0Y1807D02*
X2250Y1807D01*
X0Y1806D02*
X7Y1806D01*
X1226Y1806D02*
X1232Y1806D01*
X1264Y1806D02*
X1271Y1806D01*
X1326Y1806D02*
X1332Y1806D01*
X2243Y1806D02*
X2250Y1806D01*
X0Y1805D02*
X7Y1805D01*
X1226Y1805D02*
X1232Y1805D01*
X1264Y1805D02*
X1271Y1805D01*
X1326Y1805D02*
X1332Y1805D01*
X2243Y1805D02*
X2250Y1805D01*
X0Y1804D02*
X7Y1804D01*
X1226Y1804D02*
X1232Y1804D01*
X1264Y1804D02*
X1270Y1804D01*
X1326Y1804D02*
X1332Y1804D01*
X2243Y1804D02*
X2250Y1804D01*
X0Y1803D02*
X7Y1803D01*
X1226Y1803D02*
X1232Y1803D01*
X1263Y1803D02*
X1270Y1803D01*
X1326Y1803D02*
X1332Y1803D01*
X2243Y1803D02*
X2250Y1803D01*
X0Y1802D02*
X7Y1802D01*
X1226Y1802D02*
X1232Y1802D01*
X1263Y1802D02*
X1269Y1802D01*
X1326Y1802D02*
X1332Y1802D01*
X2243Y1802D02*
X2250Y1802D01*
X0Y1801D02*
X7Y1801D01*
X1226Y1801D02*
X1232Y1801D01*
X1263Y1801D02*
X1269Y1801D01*
X1326Y1801D02*
X1332Y1801D01*
X2243Y1801D02*
X2250Y1801D01*
X0Y1800D02*
X7Y1800D01*
X1226Y1800D02*
X1232Y1800D01*
X1262Y1800D02*
X1269Y1800D01*
X1326Y1800D02*
X1332Y1800D01*
X2243Y1800D02*
X2250Y1800D01*
X0Y1799D02*
X7Y1799D01*
X1226Y1799D02*
X1232Y1799D01*
X1262Y1799D02*
X1268Y1799D01*
X1326Y1799D02*
X1332Y1799D01*
X2243Y1799D02*
X2250Y1799D01*
X0Y1798D02*
X7Y1798D01*
X1226Y1798D02*
X1232Y1798D01*
X1262Y1798D02*
X1268Y1798D01*
X1326Y1798D02*
X1332Y1798D01*
X2243Y1798D02*
X2250Y1798D01*
X0Y1797D02*
X7Y1797D01*
X1226Y1797D02*
X1232Y1797D01*
X1262Y1797D02*
X1268Y1797D01*
X1326Y1797D02*
X1332Y1797D01*
X2243Y1797D02*
X2250Y1797D01*
X0Y1796D02*
X7Y1796D01*
X1226Y1796D02*
X1232Y1796D01*
X1262Y1796D02*
X1268Y1796D01*
X1326Y1796D02*
X1332Y1796D01*
X2243Y1796D02*
X2250Y1796D01*
X0Y1795D02*
X7Y1795D01*
X1226Y1795D02*
X1232Y1795D01*
X1262Y1795D02*
X1269Y1795D01*
X1326Y1795D02*
X1332Y1795D01*
X1342Y1795D02*
X1344Y1795D01*
X2243Y1795D02*
X2250Y1795D01*
X0Y1794D02*
X7Y1794D01*
X1226Y1794D02*
X1232Y1794D01*
X1263Y1794D02*
X1269Y1794D01*
X1326Y1794D02*
X1332Y1794D01*
X1341Y1794D02*
X1345Y1794D01*
X2243Y1794D02*
X2250Y1794D01*
X0Y1793D02*
X7Y1793D01*
X1226Y1793D02*
X1232Y1793D01*
X1263Y1793D02*
X1269Y1793D01*
X1326Y1793D02*
X1332Y1793D01*
X1340Y1793D02*
X1346Y1793D01*
X2243Y1793D02*
X2250Y1793D01*
X0Y1792D02*
X7Y1792D01*
X1226Y1792D02*
X1232Y1792D01*
X1263Y1792D02*
X1270Y1792D01*
X1326Y1792D02*
X1332Y1792D01*
X1340Y1792D02*
X1346Y1792D01*
X2243Y1792D02*
X2250Y1792D01*
X0Y1791D02*
X7Y1791D01*
X1226Y1791D02*
X1232Y1791D01*
X1264Y1791D02*
X1270Y1791D01*
X1326Y1791D02*
X1332Y1791D01*
X1340Y1791D02*
X1346Y1791D01*
X2243Y1791D02*
X2250Y1791D01*
X0Y1790D02*
X7Y1790D01*
X1226Y1790D02*
X1232Y1790D01*
X1264Y1790D02*
X1271Y1790D01*
X1326Y1790D02*
X1332Y1790D01*
X1340Y1790D02*
X1346Y1790D01*
X2243Y1790D02*
X2250Y1790D01*
X0Y1789D02*
X7Y1789D01*
X1226Y1789D02*
X1232Y1789D01*
X1265Y1789D02*
X1272Y1789D01*
X1326Y1789D02*
X1332Y1789D01*
X1340Y1789D02*
X1346Y1789D01*
X2243Y1789D02*
X2250Y1789D01*
X0Y1788D02*
X7Y1788D01*
X1226Y1788D02*
X1232Y1788D01*
X1265Y1788D02*
X1272Y1788D01*
X1326Y1788D02*
X1332Y1788D01*
X1340Y1788D02*
X1346Y1788D01*
X2243Y1788D02*
X2250Y1788D01*
X0Y1787D02*
X7Y1787D01*
X1226Y1787D02*
X1232Y1787D01*
X1266Y1787D02*
X1273Y1787D01*
X1326Y1787D02*
X1332Y1787D01*
X1340Y1787D02*
X1346Y1787D01*
X2243Y1787D02*
X2250Y1787D01*
X0Y1786D02*
X7Y1786D01*
X1226Y1786D02*
X1232Y1786D01*
X1266Y1786D02*
X1273Y1786D01*
X1326Y1786D02*
X1332Y1786D01*
X1340Y1786D02*
X1346Y1786D01*
X2243Y1786D02*
X2250Y1786D01*
X0Y1785D02*
X7Y1785D01*
X1226Y1785D02*
X1232Y1785D01*
X1267Y1785D02*
X1274Y1785D01*
X1326Y1785D02*
X1332Y1785D01*
X1340Y1785D02*
X1346Y1785D01*
X2243Y1785D02*
X2250Y1785D01*
X0Y1784D02*
X7Y1784D01*
X1226Y1784D02*
X1232Y1784D01*
X1267Y1784D02*
X1274Y1784D01*
X1326Y1784D02*
X1332Y1784D01*
X1340Y1784D02*
X1346Y1784D01*
X2243Y1784D02*
X2250Y1784D01*
X0Y1783D02*
X7Y1783D01*
X1226Y1783D02*
X1232Y1783D01*
X1268Y1783D02*
X1275Y1783D01*
X1326Y1783D02*
X1332Y1783D01*
X1340Y1783D02*
X1346Y1783D01*
X2243Y1783D02*
X2250Y1783D01*
X0Y1782D02*
X7Y1782D01*
X1226Y1782D02*
X1232Y1782D01*
X1268Y1782D02*
X1275Y1782D01*
X1326Y1782D02*
X1332Y1782D01*
X1340Y1782D02*
X1346Y1782D01*
X2243Y1782D02*
X2250Y1782D01*
X0Y1781D02*
X7Y1781D01*
X1226Y1781D02*
X1232Y1781D01*
X1269Y1781D02*
X1276Y1781D01*
X1326Y1781D02*
X1332Y1781D01*
X1340Y1781D02*
X1346Y1781D01*
X2243Y1781D02*
X2250Y1781D01*
X0Y1780D02*
X7Y1780D01*
X1226Y1780D02*
X1232Y1780D01*
X1269Y1780D02*
X1276Y1780D01*
X1326Y1780D02*
X1332Y1780D01*
X1340Y1780D02*
X1346Y1780D01*
X2243Y1780D02*
X2250Y1780D01*
X0Y1779D02*
X7Y1779D01*
X1226Y1779D02*
X1232Y1779D01*
X1270Y1779D02*
X1277Y1779D01*
X1326Y1779D02*
X1332Y1779D01*
X1340Y1779D02*
X1346Y1779D01*
X2243Y1779D02*
X2250Y1779D01*
X0Y1778D02*
X7Y1778D01*
X1226Y1778D02*
X1232Y1778D01*
X1270Y1778D02*
X1278Y1778D01*
X1326Y1778D02*
X1332Y1778D01*
X1340Y1778D02*
X1346Y1778D01*
X2243Y1778D02*
X2250Y1778D01*
X0Y1777D02*
X7Y1777D01*
X1214Y1777D02*
X1244Y1777D01*
X1271Y1777D02*
X1294Y1777D01*
X1314Y1777D02*
X1346Y1777D01*
X2243Y1777D02*
X2250Y1777D01*
X0Y1776D02*
X7Y1776D01*
X1213Y1776D02*
X1245Y1776D01*
X1271Y1776D02*
X1295Y1776D01*
X1313Y1776D02*
X1346Y1776D01*
X2243Y1776D02*
X2250Y1776D01*
X0Y1775D02*
X7Y1775D01*
X1212Y1775D02*
X1245Y1775D01*
X1272Y1775D02*
X1296Y1775D01*
X1313Y1775D02*
X1346Y1775D01*
X2243Y1775D02*
X2250Y1775D01*
X0Y1774D02*
X7Y1774D01*
X1212Y1774D02*
X1246Y1774D01*
X1273Y1774D02*
X1296Y1774D01*
X1312Y1774D02*
X1346Y1774D01*
X2243Y1774D02*
X2250Y1774D01*
X0Y1773D02*
X7Y1773D01*
X1212Y1773D02*
X1245Y1773D01*
X1274Y1773D02*
X1296Y1773D01*
X1313Y1773D02*
X1346Y1773D01*
X2243Y1773D02*
X2250Y1773D01*
X0Y1772D02*
X7Y1772D01*
X1213Y1772D02*
X1245Y1772D01*
X1275Y1772D02*
X1295Y1772D01*
X1313Y1772D02*
X1345Y1772D01*
X2243Y1772D02*
X2250Y1772D01*
X0Y1771D02*
X7Y1771D01*
X1214Y1771D02*
X1243Y1771D01*
X1278Y1771D02*
X1294Y1771D01*
X1314Y1771D02*
X1344Y1771D01*
X2243Y1771D02*
X2250Y1771D01*
X0Y1770D02*
X7Y1770D01*
X2243Y1770D02*
X2250Y1770D01*
X0Y1769D02*
X7Y1769D01*
X721Y1769D02*
X739Y1769D01*
X759Y1769D02*
X777Y1769D01*
X2243Y1769D02*
X2250Y1769D01*
X0Y1768D02*
X7Y1768D01*
X719Y1768D02*
X740Y1768D01*
X758Y1768D02*
X777Y1768D01*
X2243Y1768D02*
X2250Y1768D01*
X0Y1767D02*
X7Y1767D01*
X718Y1767D02*
X741Y1767D01*
X758Y1767D02*
X777Y1767D01*
X2243Y1767D02*
X2250Y1767D01*
X0Y1766D02*
X7Y1766D01*
X717Y1766D02*
X741Y1766D01*
X757Y1766D02*
X777Y1766D01*
X2243Y1766D02*
X2250Y1766D01*
X0Y1765D02*
X7Y1765D01*
X717Y1765D02*
X740Y1765D01*
X758Y1765D02*
X777Y1765D01*
X2243Y1765D02*
X2250Y1765D01*
X0Y1764D02*
X7Y1764D01*
X716Y1764D02*
X740Y1764D01*
X758Y1764D02*
X777Y1764D01*
X2243Y1764D02*
X2250Y1764D01*
X0Y1763D02*
X7Y1763D01*
X715Y1763D02*
X738Y1763D01*
X760Y1763D02*
X777Y1763D01*
X2243Y1763D02*
X2250Y1763D01*
X0Y1762D02*
X7Y1762D01*
X715Y1762D02*
X722Y1762D01*
X771Y1762D02*
X777Y1762D01*
X2243Y1762D02*
X2250Y1762D01*
X0Y1761D02*
X7Y1761D01*
X714Y1761D02*
X721Y1761D01*
X771Y1761D02*
X777Y1761D01*
X2243Y1761D02*
X2250Y1761D01*
X0Y1760D02*
X7Y1760D01*
X714Y1760D02*
X721Y1760D01*
X771Y1760D02*
X777Y1760D01*
X2243Y1760D02*
X2250Y1760D01*
X0Y1759D02*
X7Y1759D01*
X713Y1759D02*
X720Y1759D01*
X771Y1759D02*
X777Y1759D01*
X2243Y1759D02*
X2250Y1759D01*
X0Y1758D02*
X7Y1758D01*
X713Y1758D02*
X720Y1758D01*
X771Y1758D02*
X777Y1758D01*
X2243Y1758D02*
X2250Y1758D01*
X0Y1757D02*
X7Y1757D01*
X712Y1757D02*
X719Y1757D01*
X771Y1757D02*
X777Y1757D01*
X2243Y1757D02*
X2250Y1757D01*
X0Y1756D02*
X7Y1756D01*
X712Y1756D02*
X719Y1756D01*
X771Y1756D02*
X777Y1756D01*
X2243Y1756D02*
X2250Y1756D01*
X0Y1755D02*
X7Y1755D01*
X711Y1755D02*
X718Y1755D01*
X771Y1755D02*
X777Y1755D01*
X2243Y1755D02*
X2250Y1755D01*
X0Y1754D02*
X7Y1754D01*
X711Y1754D02*
X718Y1754D01*
X771Y1754D02*
X777Y1754D01*
X2243Y1754D02*
X2250Y1754D01*
X0Y1753D02*
X7Y1753D01*
X710Y1753D02*
X717Y1753D01*
X771Y1753D02*
X777Y1753D01*
X2243Y1753D02*
X2250Y1753D01*
X0Y1752D02*
X7Y1752D01*
X710Y1752D02*
X717Y1752D01*
X771Y1752D02*
X777Y1752D01*
X2243Y1752D02*
X2250Y1752D01*
X0Y1751D02*
X7Y1751D01*
X709Y1751D02*
X716Y1751D01*
X771Y1751D02*
X777Y1751D01*
X2243Y1751D02*
X2250Y1751D01*
X0Y1750D02*
X7Y1750D01*
X709Y1750D02*
X716Y1750D01*
X771Y1750D02*
X777Y1750D01*
X2243Y1750D02*
X2250Y1750D01*
X0Y1749D02*
X7Y1749D01*
X709Y1749D02*
X715Y1749D01*
X771Y1749D02*
X777Y1749D01*
X2243Y1749D02*
X2250Y1749D01*
X0Y1748D02*
X7Y1748D01*
X708Y1748D02*
X715Y1748D01*
X771Y1748D02*
X777Y1748D01*
X2243Y1748D02*
X2250Y1748D01*
X0Y1747D02*
X7Y1747D01*
X708Y1747D02*
X714Y1747D01*
X771Y1747D02*
X777Y1747D01*
X2243Y1747D02*
X2250Y1747D01*
X0Y1746D02*
X7Y1746D01*
X708Y1746D02*
X714Y1746D01*
X771Y1746D02*
X777Y1746D01*
X2243Y1746D02*
X2250Y1746D01*
X0Y1745D02*
X7Y1745D01*
X707Y1745D02*
X714Y1745D01*
X771Y1745D02*
X777Y1745D01*
X2243Y1745D02*
X2250Y1745D01*
X0Y1744D02*
X7Y1744D01*
X707Y1744D02*
X713Y1744D01*
X771Y1744D02*
X777Y1744D01*
X2243Y1744D02*
X2250Y1744D01*
X0Y1743D02*
X7Y1743D01*
X707Y1743D02*
X713Y1743D01*
X771Y1743D02*
X777Y1743D01*
X2243Y1743D02*
X2250Y1743D01*
X0Y1742D02*
X7Y1742D01*
X707Y1742D02*
X713Y1742D01*
X771Y1742D02*
X777Y1742D01*
X2243Y1742D02*
X2250Y1742D01*
X0Y1741D02*
X7Y1741D01*
X707Y1741D02*
X713Y1741D01*
X771Y1741D02*
X777Y1741D01*
X2243Y1741D02*
X2250Y1741D01*
X0Y1740D02*
X7Y1740D01*
X708Y1740D02*
X714Y1740D01*
X771Y1740D02*
X777Y1740D01*
X787Y1740D02*
X789Y1740D01*
X2243Y1740D02*
X2250Y1740D01*
X0Y1739D02*
X7Y1739D01*
X708Y1739D02*
X714Y1739D01*
X771Y1739D02*
X777Y1739D01*
X786Y1739D02*
X790Y1739D01*
X2243Y1739D02*
X2250Y1739D01*
X0Y1738D02*
X7Y1738D01*
X708Y1738D02*
X715Y1738D01*
X771Y1738D02*
X777Y1738D01*
X785Y1738D02*
X791Y1738D01*
X2243Y1738D02*
X2250Y1738D01*
X0Y1737D02*
X7Y1737D01*
X708Y1737D02*
X715Y1737D01*
X771Y1737D02*
X777Y1737D01*
X785Y1737D02*
X791Y1737D01*
X2243Y1737D02*
X2250Y1737D01*
X0Y1736D02*
X7Y1736D01*
X709Y1736D02*
X716Y1736D01*
X771Y1736D02*
X777Y1736D01*
X785Y1736D02*
X791Y1736D01*
X2243Y1736D02*
X2250Y1736D01*
X0Y1735D02*
X7Y1735D01*
X709Y1735D02*
X716Y1735D01*
X771Y1735D02*
X777Y1735D01*
X785Y1735D02*
X791Y1735D01*
X2243Y1735D02*
X2250Y1735D01*
X0Y1734D02*
X7Y1734D01*
X710Y1734D02*
X717Y1734D01*
X771Y1734D02*
X777Y1734D01*
X785Y1734D02*
X791Y1734D01*
X2243Y1734D02*
X2250Y1734D01*
X0Y1733D02*
X7Y1733D01*
X710Y1733D02*
X717Y1733D01*
X771Y1733D02*
X777Y1733D01*
X785Y1733D02*
X791Y1733D01*
X2243Y1733D02*
X2250Y1733D01*
X0Y1732D02*
X7Y1732D01*
X711Y1732D02*
X718Y1732D01*
X771Y1732D02*
X777Y1732D01*
X785Y1732D02*
X791Y1732D01*
X2243Y1732D02*
X2250Y1732D01*
X0Y1731D02*
X7Y1731D01*
X711Y1731D02*
X718Y1731D01*
X771Y1731D02*
X777Y1731D01*
X785Y1731D02*
X791Y1731D01*
X2243Y1731D02*
X2250Y1731D01*
X0Y1730D02*
X7Y1730D01*
X712Y1730D02*
X719Y1730D01*
X771Y1730D02*
X777Y1730D01*
X785Y1730D02*
X791Y1730D01*
X2243Y1730D02*
X2250Y1730D01*
X0Y1729D02*
X7Y1729D01*
X712Y1729D02*
X719Y1729D01*
X771Y1729D02*
X777Y1729D01*
X785Y1729D02*
X791Y1729D01*
X2243Y1729D02*
X2250Y1729D01*
X0Y1728D02*
X7Y1728D01*
X713Y1728D02*
X720Y1728D01*
X771Y1728D02*
X777Y1728D01*
X785Y1728D02*
X791Y1728D01*
X2243Y1728D02*
X2250Y1728D01*
X0Y1727D02*
X7Y1727D01*
X713Y1727D02*
X720Y1727D01*
X771Y1727D02*
X777Y1727D01*
X785Y1727D02*
X791Y1727D01*
X2243Y1727D02*
X2250Y1727D01*
X0Y1726D02*
X7Y1726D01*
X714Y1726D02*
X721Y1726D01*
X771Y1726D02*
X777Y1726D01*
X785Y1726D02*
X791Y1726D01*
X2243Y1726D02*
X2250Y1726D01*
X0Y1725D02*
X7Y1725D01*
X714Y1725D02*
X721Y1725D01*
X771Y1725D02*
X777Y1725D01*
X785Y1725D02*
X791Y1725D01*
X2243Y1725D02*
X2250Y1725D01*
X0Y1724D02*
X7Y1724D01*
X715Y1724D02*
X722Y1724D01*
X771Y1724D02*
X777Y1724D01*
X785Y1724D02*
X791Y1724D01*
X2243Y1724D02*
X2250Y1724D01*
X0Y1723D02*
X7Y1723D01*
X715Y1723D02*
X723Y1723D01*
X771Y1723D02*
X777Y1723D01*
X785Y1723D02*
X791Y1723D01*
X2243Y1723D02*
X2250Y1723D01*
X0Y1722D02*
X7Y1722D01*
X716Y1722D02*
X739Y1722D01*
X759Y1722D02*
X791Y1722D01*
X2243Y1722D02*
X2250Y1722D01*
X0Y1721D02*
X7Y1721D01*
X716Y1721D02*
X740Y1721D01*
X758Y1721D02*
X791Y1721D01*
X2243Y1721D02*
X2250Y1721D01*
X0Y1720D02*
X7Y1720D01*
X717Y1720D02*
X741Y1720D01*
X758Y1720D02*
X791Y1720D01*
X2243Y1720D02*
X2250Y1720D01*
X0Y1719D02*
X7Y1719D01*
X718Y1719D02*
X741Y1719D01*
X757Y1719D02*
X791Y1719D01*
X2243Y1719D02*
X2250Y1719D01*
X0Y1718D02*
X7Y1718D01*
X719Y1718D02*
X741Y1718D01*
X758Y1718D02*
X791Y1718D01*
X2243Y1718D02*
X2250Y1718D01*
X0Y1717D02*
X7Y1717D01*
X720Y1717D02*
X740Y1717D01*
X758Y1717D02*
X790Y1717D01*
X2243Y1717D02*
X2250Y1717D01*
X0Y1716D02*
X7Y1716D01*
X723Y1716D02*
X739Y1716D01*
X760Y1716D02*
X789Y1716D01*
X2243Y1716D02*
X2250Y1716D01*
X0Y1715D02*
X7Y1715D01*
X2243Y1715D02*
X2250Y1715D01*
X0Y1714D02*
X7Y1714D01*
X2243Y1714D02*
X2250Y1714D01*
X0Y1713D02*
X7Y1713D01*
X2243Y1713D02*
X2250Y1713D01*
X0Y1712D02*
X7Y1712D01*
X2243Y1712D02*
X2250Y1712D01*
X0Y1711D02*
X7Y1711D01*
X2243Y1711D02*
X2250Y1711D01*
X0Y1710D02*
X7Y1710D01*
X2243Y1710D02*
X2250Y1710D01*
X0Y1709D02*
X7Y1709D01*
X2243Y1709D02*
X2250Y1709D01*
X0Y1708D02*
X7Y1708D01*
X2243Y1708D02*
X2250Y1708D01*
X0Y1707D02*
X7Y1707D01*
X2243Y1707D02*
X2250Y1707D01*
X0Y1706D02*
X7Y1706D01*
X2243Y1706D02*
X2250Y1706D01*
X0Y1705D02*
X7Y1705D01*
X2243Y1705D02*
X2250Y1705D01*
X0Y1704D02*
X7Y1704D01*
X2243Y1704D02*
X2250Y1704D01*
X0Y1703D02*
X7Y1703D01*
X2243Y1703D02*
X2250Y1703D01*
X0Y1702D02*
X7Y1702D01*
X2243Y1702D02*
X2250Y1702D01*
X0Y1701D02*
X7Y1701D01*
X2243Y1701D02*
X2250Y1701D01*
X0Y1700D02*
X7Y1700D01*
X2243Y1700D02*
X2250Y1700D01*
X0Y1699D02*
X7Y1699D01*
X2243Y1699D02*
X2250Y1699D01*
X0Y1698D02*
X7Y1698D01*
X2243Y1698D02*
X2250Y1698D01*
X0Y1697D02*
X7Y1697D01*
X2243Y1697D02*
X2250Y1697D01*
X0Y1696D02*
X7Y1696D01*
X2243Y1696D02*
X2250Y1696D01*
X0Y1695D02*
X7Y1695D01*
X2243Y1695D02*
X2250Y1695D01*
X0Y1694D02*
X7Y1694D01*
X2243Y1694D02*
X2250Y1694D01*
X0Y1693D02*
X7Y1693D01*
X2243Y1693D02*
X2250Y1693D01*
X0Y1692D02*
X7Y1692D01*
X2243Y1692D02*
X2250Y1692D01*
X0Y1691D02*
X7Y1691D01*
X2243Y1691D02*
X2250Y1691D01*
X0Y1690D02*
X7Y1690D01*
X2243Y1690D02*
X2250Y1690D01*
X0Y1689D02*
X7Y1689D01*
X2243Y1689D02*
X2250Y1689D01*
X0Y1688D02*
X7Y1688D01*
X2243Y1688D02*
X2250Y1688D01*
X0Y1687D02*
X7Y1687D01*
X2243Y1687D02*
X2250Y1687D01*
X0Y1686D02*
X7Y1686D01*
X2243Y1686D02*
X2250Y1686D01*
X0Y1685D02*
X7Y1685D01*
X2243Y1685D02*
X2250Y1685D01*
X0Y1684D02*
X7Y1684D01*
X2243Y1684D02*
X2250Y1684D01*
X0Y1683D02*
X7Y1683D01*
X2243Y1683D02*
X2250Y1683D01*
X0Y1682D02*
X7Y1682D01*
X2243Y1682D02*
X2250Y1682D01*
X0Y1681D02*
X7Y1681D01*
X2243Y1681D02*
X2250Y1681D01*
X0Y1680D02*
X7Y1680D01*
X2243Y1680D02*
X2250Y1680D01*
X0Y1679D02*
X7Y1679D01*
X2243Y1679D02*
X2250Y1679D01*
X0Y1678D02*
X7Y1678D01*
X2243Y1678D02*
X2250Y1678D01*
X0Y1677D02*
X7Y1677D01*
X2243Y1677D02*
X2250Y1677D01*
X0Y1676D02*
X7Y1676D01*
X2243Y1676D02*
X2250Y1676D01*
X0Y1675D02*
X7Y1675D01*
X2243Y1675D02*
X2250Y1675D01*
X0Y1674D02*
X7Y1674D01*
X2243Y1674D02*
X2250Y1674D01*
X0Y1673D02*
X7Y1673D01*
X2243Y1673D02*
X2250Y1673D01*
X0Y1672D02*
X7Y1672D01*
X2243Y1672D02*
X2250Y1672D01*
X0Y1671D02*
X7Y1671D01*
X2243Y1671D02*
X2250Y1671D01*
X0Y1670D02*
X7Y1670D01*
X2243Y1670D02*
X2250Y1670D01*
X0Y1669D02*
X7Y1669D01*
X2243Y1669D02*
X2250Y1669D01*
X0Y1668D02*
X7Y1668D01*
X2243Y1668D02*
X2250Y1668D01*
X0Y1667D02*
X7Y1667D01*
X2243Y1667D02*
X2250Y1667D01*
X0Y1666D02*
X7Y1666D01*
X2243Y1666D02*
X2250Y1666D01*
X0Y1665D02*
X7Y1665D01*
X2243Y1665D02*
X2250Y1665D01*
X0Y1664D02*
X7Y1664D01*
X2243Y1664D02*
X2250Y1664D01*
X0Y1663D02*
X7Y1663D01*
X2243Y1663D02*
X2250Y1663D01*
X0Y1662D02*
X7Y1662D01*
X2243Y1662D02*
X2250Y1662D01*
X0Y1661D02*
X7Y1661D01*
X2243Y1661D02*
X2250Y1661D01*
X0Y1660D02*
X7Y1660D01*
X2243Y1660D02*
X2250Y1660D01*
X0Y1659D02*
X7Y1659D01*
X2243Y1659D02*
X2250Y1659D01*
X0Y1658D02*
X7Y1658D01*
X2243Y1658D02*
X2250Y1658D01*
X0Y1657D02*
X7Y1657D01*
X2243Y1657D02*
X2250Y1657D01*
X0Y1656D02*
X7Y1656D01*
X2243Y1656D02*
X2250Y1656D01*
X0Y1655D02*
X7Y1655D01*
X2243Y1655D02*
X2250Y1655D01*
X0Y1654D02*
X7Y1654D01*
X2243Y1654D02*
X2250Y1654D01*
X0Y1653D02*
X7Y1653D01*
X2243Y1653D02*
X2250Y1653D01*
X0Y1652D02*
X7Y1652D01*
X2243Y1652D02*
X2250Y1652D01*
X0Y1651D02*
X7Y1651D01*
X2243Y1651D02*
X2250Y1651D01*
X0Y1650D02*
X7Y1650D01*
X2243Y1650D02*
X2250Y1650D01*
X0Y1649D02*
X7Y1649D01*
X2243Y1649D02*
X2250Y1649D01*
X0Y1648D02*
X7Y1648D01*
X2243Y1648D02*
X2250Y1648D01*
X0Y1647D02*
X7Y1647D01*
X2243Y1647D02*
X2250Y1647D01*
X0Y1646D02*
X7Y1646D01*
X2243Y1646D02*
X2250Y1646D01*
X0Y1645D02*
X7Y1645D01*
X2243Y1645D02*
X2250Y1645D01*
X0Y1644D02*
X7Y1644D01*
X2243Y1644D02*
X2250Y1644D01*
X0Y1643D02*
X7Y1643D01*
X2243Y1643D02*
X2250Y1643D01*
X0Y1642D02*
X7Y1642D01*
X2243Y1642D02*
X2250Y1642D01*
X0Y1641D02*
X7Y1641D01*
X2243Y1641D02*
X2250Y1641D01*
X0Y1640D02*
X7Y1640D01*
X2243Y1640D02*
X2250Y1640D01*
X0Y1639D02*
X7Y1639D01*
X2243Y1639D02*
X2250Y1639D01*
X0Y1638D02*
X7Y1638D01*
X2243Y1638D02*
X2250Y1638D01*
X0Y1637D02*
X7Y1637D01*
X2243Y1637D02*
X2250Y1637D01*
X0Y1636D02*
X7Y1636D01*
X2243Y1636D02*
X2250Y1636D01*
X0Y1635D02*
X7Y1635D01*
X2243Y1635D02*
X2250Y1635D01*
X0Y1634D02*
X7Y1634D01*
X2243Y1634D02*
X2250Y1634D01*
X0Y1633D02*
X7Y1633D01*
X2243Y1633D02*
X2250Y1633D01*
X0Y1632D02*
X7Y1632D01*
X2243Y1632D02*
X2250Y1632D01*
X0Y1631D02*
X7Y1631D01*
X2243Y1631D02*
X2250Y1631D01*
X0Y1630D02*
X7Y1630D01*
X2243Y1630D02*
X2250Y1630D01*
X0Y1629D02*
X7Y1629D01*
X2243Y1629D02*
X2250Y1629D01*
X0Y1628D02*
X7Y1628D01*
X2243Y1628D02*
X2250Y1628D01*
X0Y1627D02*
X7Y1627D01*
X2243Y1627D02*
X2250Y1627D01*
X0Y1626D02*
X7Y1626D01*
X2243Y1626D02*
X2250Y1626D01*
X0Y1625D02*
X7Y1625D01*
X2243Y1625D02*
X2250Y1625D01*
X0Y1624D02*
X7Y1624D01*
X2243Y1624D02*
X2250Y1624D01*
X0Y1623D02*
X7Y1623D01*
X2243Y1623D02*
X2250Y1623D01*
X0Y1622D02*
X7Y1622D01*
X2243Y1622D02*
X2250Y1622D01*
X0Y1621D02*
X7Y1621D01*
X2243Y1621D02*
X2250Y1621D01*
X0Y1620D02*
X7Y1620D01*
X2243Y1620D02*
X2250Y1620D01*
X0Y1619D02*
X7Y1619D01*
X2243Y1619D02*
X2250Y1619D01*
X0Y1618D02*
X7Y1618D01*
X2243Y1618D02*
X2250Y1618D01*
X0Y1617D02*
X7Y1617D01*
X2243Y1617D02*
X2250Y1617D01*
X0Y1616D02*
X7Y1616D01*
X2243Y1616D02*
X2250Y1616D01*
X0Y1615D02*
X7Y1615D01*
X2243Y1615D02*
X2250Y1615D01*
X0Y1614D02*
X7Y1614D01*
X2243Y1614D02*
X2250Y1614D01*
X0Y1613D02*
X7Y1613D01*
X2243Y1613D02*
X2250Y1613D01*
X0Y1612D02*
X7Y1612D01*
X2243Y1612D02*
X2250Y1612D01*
X0Y1611D02*
X7Y1611D01*
X2243Y1611D02*
X2250Y1611D01*
X0Y1610D02*
X7Y1610D01*
X2243Y1610D02*
X2250Y1610D01*
X0Y1609D02*
X7Y1609D01*
X2243Y1609D02*
X2250Y1609D01*
X0Y1608D02*
X7Y1608D01*
X2243Y1608D02*
X2250Y1608D01*
X0Y1607D02*
X7Y1607D01*
X2243Y1607D02*
X2250Y1607D01*
X0Y1606D02*
X7Y1606D01*
X2243Y1606D02*
X2250Y1606D01*
X0Y1605D02*
X7Y1605D01*
X2243Y1605D02*
X2250Y1605D01*
X0Y1604D02*
X7Y1604D01*
X2243Y1604D02*
X2250Y1604D01*
X0Y1603D02*
X7Y1603D01*
X2243Y1603D02*
X2250Y1603D01*
X0Y1602D02*
X7Y1602D01*
X2243Y1602D02*
X2250Y1602D01*
X0Y1601D02*
X7Y1601D01*
X2243Y1601D02*
X2250Y1601D01*
X0Y1600D02*
X7Y1600D01*
X2243Y1600D02*
X2250Y1600D01*
X0Y1599D02*
X7Y1599D01*
X2243Y1599D02*
X2250Y1599D01*
X0Y1598D02*
X7Y1598D01*
X2243Y1598D02*
X2250Y1598D01*
X0Y1597D02*
X7Y1597D01*
X2243Y1597D02*
X2250Y1597D01*
X0Y1596D02*
X7Y1596D01*
X2243Y1596D02*
X2250Y1596D01*
X0Y1595D02*
X7Y1595D01*
X2243Y1595D02*
X2250Y1595D01*
X0Y1594D02*
X7Y1594D01*
X2243Y1594D02*
X2250Y1594D01*
X0Y1593D02*
X7Y1593D01*
X2243Y1593D02*
X2250Y1593D01*
X0Y1592D02*
X7Y1592D01*
X2243Y1592D02*
X2250Y1592D01*
X0Y1591D02*
X7Y1591D01*
X2243Y1591D02*
X2250Y1591D01*
X0Y1590D02*
X7Y1590D01*
X2243Y1590D02*
X2250Y1590D01*
X0Y1589D02*
X7Y1589D01*
X2243Y1589D02*
X2250Y1589D01*
X0Y1588D02*
X7Y1588D01*
X2243Y1588D02*
X2250Y1588D01*
X0Y1587D02*
X7Y1587D01*
X2243Y1587D02*
X2250Y1587D01*
X0Y1586D02*
X7Y1586D01*
X2243Y1586D02*
X2250Y1586D01*
X0Y1585D02*
X7Y1585D01*
X2243Y1585D02*
X2250Y1585D01*
X0Y1584D02*
X7Y1584D01*
X2243Y1584D02*
X2250Y1584D01*
X0Y1583D02*
X7Y1583D01*
X2243Y1583D02*
X2250Y1583D01*
X0Y1582D02*
X7Y1582D01*
X2243Y1582D02*
X2250Y1582D01*
X0Y1581D02*
X7Y1581D01*
X2243Y1581D02*
X2250Y1581D01*
X0Y1580D02*
X7Y1580D01*
X2243Y1580D02*
X2250Y1580D01*
X0Y1579D02*
X7Y1579D01*
X2243Y1579D02*
X2250Y1579D01*
X0Y1578D02*
X7Y1578D01*
X2243Y1578D02*
X2250Y1578D01*
X0Y1577D02*
X7Y1577D01*
X2243Y1577D02*
X2250Y1577D01*
X0Y1576D02*
X7Y1576D01*
X2243Y1576D02*
X2250Y1576D01*
X0Y1575D02*
X7Y1575D01*
X2243Y1575D02*
X2250Y1575D01*
X0Y1574D02*
X7Y1574D01*
X2243Y1574D02*
X2250Y1574D01*
X0Y1573D02*
X7Y1573D01*
X2243Y1573D02*
X2250Y1573D01*
X0Y1572D02*
X7Y1572D01*
X2243Y1572D02*
X2250Y1572D01*
X0Y1571D02*
X7Y1571D01*
X2243Y1571D02*
X2250Y1571D01*
X0Y1570D02*
X7Y1570D01*
X2243Y1570D02*
X2250Y1570D01*
X0Y1569D02*
X7Y1569D01*
X2243Y1569D02*
X2250Y1569D01*
X0Y1568D02*
X7Y1568D01*
X2243Y1568D02*
X2250Y1568D01*
X0Y1567D02*
X7Y1567D01*
X2243Y1567D02*
X2250Y1567D01*
X0Y1566D02*
X7Y1566D01*
X2243Y1566D02*
X2250Y1566D01*
X0Y1565D02*
X7Y1565D01*
X2243Y1565D02*
X2250Y1565D01*
X0Y1564D02*
X7Y1564D01*
X2243Y1564D02*
X2250Y1564D01*
X0Y1563D02*
X7Y1563D01*
X2243Y1563D02*
X2250Y1563D01*
X0Y1562D02*
X7Y1562D01*
X2243Y1562D02*
X2250Y1562D01*
X0Y1561D02*
X7Y1561D01*
X2243Y1561D02*
X2250Y1561D01*
X0Y1560D02*
X7Y1560D01*
X2243Y1560D02*
X2250Y1560D01*
X0Y1559D02*
X7Y1559D01*
X2243Y1559D02*
X2250Y1559D01*
X0Y1558D02*
X7Y1558D01*
X2243Y1558D02*
X2250Y1558D01*
X0Y1557D02*
X7Y1557D01*
X2243Y1557D02*
X2250Y1557D01*
X0Y1556D02*
X7Y1556D01*
X2243Y1556D02*
X2250Y1556D01*
X0Y1555D02*
X7Y1555D01*
X2243Y1555D02*
X2250Y1555D01*
X0Y1554D02*
X7Y1554D01*
X2243Y1554D02*
X2250Y1554D01*
X0Y1553D02*
X7Y1553D01*
X2243Y1553D02*
X2250Y1553D01*
X0Y1552D02*
X7Y1552D01*
X2243Y1552D02*
X2250Y1552D01*
X0Y1551D02*
X7Y1551D01*
X2243Y1551D02*
X2250Y1551D01*
X0Y1550D02*
X7Y1550D01*
X2243Y1550D02*
X2250Y1550D01*
X0Y1549D02*
X7Y1549D01*
X2243Y1549D02*
X2250Y1549D01*
X0Y1548D02*
X7Y1548D01*
X2243Y1548D02*
X2250Y1548D01*
X0Y1547D02*
X7Y1547D01*
X2243Y1547D02*
X2250Y1547D01*
X0Y1546D02*
X7Y1546D01*
X2243Y1546D02*
X2250Y1546D01*
X0Y1545D02*
X7Y1545D01*
X2243Y1545D02*
X2250Y1545D01*
X0Y1544D02*
X7Y1544D01*
X2243Y1544D02*
X2250Y1544D01*
X0Y1543D02*
X7Y1543D01*
X2243Y1543D02*
X2250Y1543D01*
X0Y1542D02*
X7Y1542D01*
X2243Y1542D02*
X2250Y1542D01*
X0Y1541D02*
X7Y1541D01*
X2243Y1541D02*
X2250Y1541D01*
X0Y1540D02*
X7Y1540D01*
X2243Y1540D02*
X2250Y1540D01*
X0Y1539D02*
X7Y1539D01*
X2243Y1539D02*
X2250Y1539D01*
X0Y1538D02*
X7Y1538D01*
X2243Y1538D02*
X2250Y1538D01*
X0Y1537D02*
X7Y1537D01*
X2243Y1537D02*
X2250Y1537D01*
X0Y1536D02*
X7Y1536D01*
X2243Y1536D02*
X2250Y1536D01*
X0Y1535D02*
X7Y1535D01*
X2243Y1535D02*
X2250Y1535D01*
X0Y1534D02*
X7Y1534D01*
X2243Y1534D02*
X2250Y1534D01*
X0Y1533D02*
X7Y1533D01*
X2243Y1533D02*
X2250Y1533D01*
X0Y1532D02*
X7Y1532D01*
X2243Y1532D02*
X2250Y1532D01*
X0Y1531D02*
X7Y1531D01*
X2243Y1531D02*
X2250Y1531D01*
X0Y1530D02*
X7Y1530D01*
X2243Y1530D02*
X2250Y1530D01*
X0Y1529D02*
X7Y1529D01*
X2243Y1529D02*
X2250Y1529D01*
X0Y1528D02*
X7Y1528D01*
X2243Y1528D02*
X2250Y1528D01*
X0Y1527D02*
X7Y1527D01*
X2243Y1527D02*
X2250Y1527D01*
X0Y1526D02*
X7Y1526D01*
X2243Y1526D02*
X2250Y1526D01*
X0Y1525D02*
X7Y1525D01*
X2243Y1525D02*
X2250Y1525D01*
X0Y1524D02*
X7Y1524D01*
X2243Y1524D02*
X2250Y1524D01*
X0Y1523D02*
X7Y1523D01*
X2243Y1523D02*
X2250Y1523D01*
X0Y1522D02*
X7Y1522D01*
X2243Y1522D02*
X2250Y1522D01*
X0Y1521D02*
X7Y1521D01*
X2243Y1521D02*
X2250Y1521D01*
X0Y1520D02*
X7Y1520D01*
X2243Y1520D02*
X2250Y1520D01*
X0Y1519D02*
X7Y1519D01*
X2243Y1519D02*
X2250Y1519D01*
X0Y1518D02*
X7Y1518D01*
X2243Y1518D02*
X2250Y1518D01*
X0Y1517D02*
X7Y1517D01*
X2243Y1517D02*
X2250Y1517D01*
X0Y1516D02*
X7Y1516D01*
X2243Y1516D02*
X2250Y1516D01*
X0Y1515D02*
X7Y1515D01*
X2243Y1515D02*
X2250Y1515D01*
X0Y1514D02*
X7Y1514D01*
X2243Y1514D02*
X2250Y1514D01*
X0Y1513D02*
X7Y1513D01*
X2243Y1513D02*
X2250Y1513D01*
X0Y1512D02*
X7Y1512D01*
X2243Y1512D02*
X2250Y1512D01*
X0Y1511D02*
X7Y1511D01*
X2243Y1511D02*
X2250Y1511D01*
X0Y1510D02*
X7Y1510D01*
X212Y1510D02*
X276Y1510D01*
X2243Y1510D02*
X2250Y1510D01*
X0Y1509D02*
X7Y1509D01*
X211Y1509D02*
X277Y1509D01*
X2243Y1509D02*
X2250Y1509D01*
X0Y1508D02*
X7Y1508D01*
X210Y1508D02*
X278Y1508D01*
X2243Y1508D02*
X2250Y1508D01*
X0Y1507D02*
X7Y1507D01*
X209Y1507D02*
X279Y1507D01*
X2243Y1507D02*
X2250Y1507D01*
X0Y1506D02*
X7Y1506D01*
X209Y1506D02*
X279Y1506D01*
X2243Y1506D02*
X2250Y1506D01*
X0Y1505D02*
X7Y1505D01*
X209Y1505D02*
X279Y1505D01*
X2243Y1505D02*
X2250Y1505D01*
X0Y1504D02*
X7Y1504D01*
X209Y1504D02*
X279Y1504D01*
X2243Y1504D02*
X2250Y1504D01*
X0Y1503D02*
X7Y1503D01*
X209Y1503D02*
X279Y1503D01*
X2243Y1503D02*
X2250Y1503D01*
X0Y1502D02*
X7Y1502D01*
X210Y1502D02*
X278Y1502D01*
X2243Y1502D02*
X2250Y1502D01*
X0Y1501D02*
X7Y1501D01*
X211Y1501D02*
X277Y1501D01*
X2243Y1501D02*
X2250Y1501D01*
X0Y1500D02*
X7Y1500D01*
X212Y1500D02*
X276Y1500D01*
X2243Y1500D02*
X2250Y1500D01*
X0Y1499D02*
X7Y1499D01*
X2243Y1499D02*
X2250Y1499D01*
X0Y1498D02*
X7Y1498D01*
X2243Y1498D02*
X2250Y1498D01*
X0Y1497D02*
X7Y1497D01*
X2243Y1497D02*
X2250Y1497D01*
X0Y1496D02*
X7Y1496D01*
X2243Y1496D02*
X2250Y1496D01*
X0Y1495D02*
X7Y1495D01*
X2243Y1495D02*
X2250Y1495D01*
X0Y1494D02*
X7Y1494D01*
X2243Y1494D02*
X2250Y1494D01*
X0Y1493D02*
X7Y1493D01*
X2243Y1493D02*
X2250Y1493D01*
X0Y1492D02*
X7Y1492D01*
X2243Y1492D02*
X2250Y1492D01*
X0Y1491D02*
X7Y1491D01*
X2243Y1491D02*
X2250Y1491D01*
X0Y1490D02*
X7Y1490D01*
X2243Y1490D02*
X2250Y1490D01*
X0Y1489D02*
X7Y1489D01*
X2243Y1489D02*
X2250Y1489D01*
X0Y1488D02*
X7Y1488D01*
X2243Y1488D02*
X2250Y1488D01*
X0Y1487D02*
X7Y1487D01*
X2243Y1487D02*
X2250Y1487D01*
X0Y1486D02*
X7Y1486D01*
X2243Y1486D02*
X2250Y1486D01*
X0Y1485D02*
X7Y1485D01*
X2243Y1485D02*
X2250Y1485D01*
X0Y1484D02*
X7Y1484D01*
X2243Y1484D02*
X2250Y1484D01*
X0Y1483D02*
X7Y1483D01*
X2243Y1483D02*
X2250Y1483D01*
X0Y1482D02*
X7Y1482D01*
X2243Y1482D02*
X2250Y1482D01*
X0Y1481D02*
X7Y1481D01*
X2243Y1481D02*
X2250Y1481D01*
X0Y1480D02*
X7Y1480D01*
X2243Y1480D02*
X2250Y1480D01*
X0Y1479D02*
X7Y1479D01*
X2243Y1479D02*
X2250Y1479D01*
X0Y1478D02*
X7Y1478D01*
X2243Y1478D02*
X2250Y1478D01*
X0Y1477D02*
X7Y1477D01*
X2243Y1477D02*
X2250Y1477D01*
X0Y1476D02*
X7Y1476D01*
X2243Y1476D02*
X2250Y1476D01*
X0Y1475D02*
X7Y1475D01*
X2243Y1475D02*
X2250Y1475D01*
X0Y1474D02*
X7Y1474D01*
X2243Y1474D02*
X2250Y1474D01*
X0Y1473D02*
X7Y1473D01*
X2243Y1473D02*
X2250Y1473D01*
X0Y1472D02*
X7Y1472D01*
X2243Y1472D02*
X2250Y1472D01*
X0Y1471D02*
X7Y1471D01*
X2243Y1471D02*
X2250Y1471D01*
X0Y1470D02*
X7Y1470D01*
X2243Y1470D02*
X2250Y1470D01*
X0Y1469D02*
X7Y1469D01*
X2243Y1469D02*
X2250Y1469D01*
X0Y1468D02*
X7Y1468D01*
X2243Y1468D02*
X2250Y1468D01*
X0Y1467D02*
X7Y1467D01*
X2243Y1467D02*
X2250Y1467D01*
X0Y1466D02*
X7Y1466D01*
X2243Y1466D02*
X2250Y1466D01*
X0Y1465D02*
X7Y1465D01*
X2243Y1465D02*
X2250Y1465D01*
X0Y1464D02*
X7Y1464D01*
X2243Y1464D02*
X2250Y1464D01*
X0Y1463D02*
X7Y1463D01*
X2243Y1463D02*
X2250Y1463D01*
X0Y1462D02*
X7Y1462D01*
X2243Y1462D02*
X2250Y1462D01*
X0Y1461D02*
X7Y1461D01*
X2243Y1461D02*
X2250Y1461D01*
X0Y1460D02*
X7Y1460D01*
X2243Y1460D02*
X2250Y1460D01*
X0Y1459D02*
X7Y1459D01*
X2243Y1459D02*
X2250Y1459D01*
X0Y1458D02*
X7Y1458D01*
X2243Y1458D02*
X2250Y1458D01*
X0Y1457D02*
X7Y1457D01*
X2243Y1457D02*
X2250Y1457D01*
X0Y1456D02*
X7Y1456D01*
X2243Y1456D02*
X2250Y1456D01*
X0Y1455D02*
X7Y1455D01*
X2243Y1455D02*
X2250Y1455D01*
X0Y1454D02*
X7Y1454D01*
X2243Y1454D02*
X2250Y1454D01*
X0Y1453D02*
X7Y1453D01*
X2243Y1453D02*
X2250Y1453D01*
X0Y1452D02*
X7Y1452D01*
X2243Y1452D02*
X2250Y1452D01*
X0Y1451D02*
X7Y1451D01*
X2243Y1451D02*
X2250Y1451D01*
X0Y1450D02*
X7Y1450D01*
X2243Y1450D02*
X2250Y1450D01*
X0Y1449D02*
X7Y1449D01*
X2243Y1449D02*
X2250Y1449D01*
X0Y1448D02*
X7Y1448D01*
X2243Y1448D02*
X2250Y1448D01*
X0Y1447D02*
X7Y1447D01*
X2243Y1447D02*
X2250Y1447D01*
X0Y1446D02*
X7Y1446D01*
X2243Y1446D02*
X2250Y1446D01*
X0Y1445D02*
X7Y1445D01*
X2243Y1445D02*
X2250Y1445D01*
X0Y1444D02*
X7Y1444D01*
X2243Y1444D02*
X2250Y1444D01*
X0Y1443D02*
X7Y1443D01*
X2243Y1443D02*
X2250Y1443D01*
X0Y1442D02*
X7Y1442D01*
X2243Y1442D02*
X2250Y1442D01*
X0Y1441D02*
X7Y1441D01*
X2243Y1441D02*
X2250Y1441D01*
X0Y1440D02*
X7Y1440D01*
X2243Y1440D02*
X2250Y1440D01*
X0Y1439D02*
X7Y1439D01*
X2243Y1439D02*
X2250Y1439D01*
X0Y1438D02*
X7Y1438D01*
X2243Y1438D02*
X2250Y1438D01*
X0Y1437D02*
X7Y1437D01*
X2243Y1437D02*
X2250Y1437D01*
X0Y1436D02*
X7Y1436D01*
X2243Y1436D02*
X2250Y1436D01*
X0Y1435D02*
X7Y1435D01*
X2243Y1435D02*
X2250Y1435D01*
X0Y1434D02*
X7Y1434D01*
X2243Y1434D02*
X2250Y1434D01*
X0Y1433D02*
X7Y1433D01*
X2243Y1433D02*
X2250Y1433D01*
X0Y1432D02*
X7Y1432D01*
X2243Y1432D02*
X2250Y1432D01*
X0Y1431D02*
X7Y1431D01*
X2243Y1431D02*
X2250Y1431D01*
X0Y1430D02*
X7Y1430D01*
X2243Y1430D02*
X2250Y1430D01*
X0Y1429D02*
X7Y1429D01*
X2243Y1429D02*
X2250Y1429D01*
X0Y1428D02*
X7Y1428D01*
X2243Y1428D02*
X2250Y1428D01*
X0Y1427D02*
X7Y1427D01*
X2243Y1427D02*
X2250Y1427D01*
X0Y1426D02*
X7Y1426D01*
X2243Y1426D02*
X2250Y1426D01*
X0Y1425D02*
X7Y1425D01*
X2243Y1425D02*
X2250Y1425D01*
X0Y1424D02*
X7Y1424D01*
X2243Y1424D02*
X2250Y1424D01*
X0Y1423D02*
X7Y1423D01*
X2243Y1423D02*
X2250Y1423D01*
X0Y1422D02*
X7Y1422D01*
X2243Y1422D02*
X2250Y1422D01*
X0Y1421D02*
X7Y1421D01*
X2243Y1421D02*
X2250Y1421D01*
X0Y1420D02*
X7Y1420D01*
X2243Y1420D02*
X2250Y1420D01*
X0Y1419D02*
X7Y1419D01*
X2243Y1419D02*
X2250Y1419D01*
X0Y1418D02*
X7Y1418D01*
X2243Y1418D02*
X2250Y1418D01*
X0Y1417D02*
X7Y1417D01*
X2243Y1417D02*
X2250Y1417D01*
X0Y1416D02*
X7Y1416D01*
X2243Y1416D02*
X2250Y1416D01*
X0Y1415D02*
X7Y1415D01*
X2243Y1415D02*
X2250Y1415D01*
X0Y1414D02*
X7Y1414D01*
X2243Y1414D02*
X2250Y1414D01*
X0Y1413D02*
X7Y1413D01*
X2243Y1413D02*
X2250Y1413D01*
X0Y1412D02*
X7Y1412D01*
X2243Y1412D02*
X2250Y1412D01*
X0Y1411D02*
X7Y1411D01*
X2243Y1411D02*
X2250Y1411D01*
X0Y1410D02*
X7Y1410D01*
X2243Y1410D02*
X2250Y1410D01*
X0Y1409D02*
X7Y1409D01*
X2243Y1409D02*
X2250Y1409D01*
X0Y1408D02*
X7Y1408D01*
X2243Y1408D02*
X2250Y1408D01*
X0Y1407D02*
X7Y1407D01*
X2243Y1407D02*
X2250Y1407D01*
X0Y1406D02*
X7Y1406D01*
X2243Y1406D02*
X2250Y1406D01*
X0Y1405D02*
X7Y1405D01*
X2243Y1405D02*
X2250Y1405D01*
X0Y1404D02*
X7Y1404D01*
X2243Y1404D02*
X2250Y1404D01*
X0Y1403D02*
X7Y1403D01*
X2243Y1403D02*
X2250Y1403D01*
X0Y1402D02*
X7Y1402D01*
X2243Y1402D02*
X2250Y1402D01*
X0Y1401D02*
X7Y1401D01*
X2243Y1401D02*
X2250Y1401D01*
X0Y1400D02*
X7Y1400D01*
X2243Y1400D02*
X2250Y1400D01*
X0Y1399D02*
X7Y1399D01*
X2243Y1399D02*
X2250Y1399D01*
X0Y1398D02*
X7Y1398D01*
X2243Y1398D02*
X2250Y1398D01*
X0Y1397D02*
X7Y1397D01*
X2243Y1397D02*
X2250Y1397D01*
X0Y1396D02*
X7Y1396D01*
X2243Y1396D02*
X2250Y1396D01*
X0Y1395D02*
X7Y1395D01*
X2243Y1395D02*
X2250Y1395D01*
X0Y1394D02*
X7Y1394D01*
X2243Y1394D02*
X2250Y1394D01*
X0Y1393D02*
X7Y1393D01*
X2243Y1393D02*
X2250Y1393D01*
X0Y1392D02*
X7Y1392D01*
X2243Y1392D02*
X2250Y1392D01*
X0Y1391D02*
X7Y1391D01*
X2243Y1391D02*
X2250Y1391D01*
X0Y1390D02*
X7Y1390D01*
X2243Y1390D02*
X2250Y1390D01*
X0Y1389D02*
X7Y1389D01*
X2243Y1389D02*
X2250Y1389D01*
X0Y1388D02*
X7Y1388D01*
X2243Y1388D02*
X2250Y1388D01*
X0Y1387D02*
X7Y1387D01*
X2243Y1387D02*
X2250Y1387D01*
X0Y1386D02*
X7Y1386D01*
X2243Y1386D02*
X2250Y1386D01*
X0Y1385D02*
X7Y1385D01*
X2243Y1385D02*
X2250Y1385D01*
X0Y1384D02*
X7Y1384D01*
X2243Y1384D02*
X2250Y1384D01*
X0Y1383D02*
X7Y1383D01*
X2243Y1383D02*
X2250Y1383D01*
X0Y1382D02*
X7Y1382D01*
X2243Y1382D02*
X2250Y1382D01*
X0Y1381D02*
X7Y1381D01*
X2243Y1381D02*
X2250Y1381D01*
X0Y1380D02*
X7Y1380D01*
X2243Y1380D02*
X2250Y1380D01*
X0Y1379D02*
X7Y1379D01*
X2243Y1379D02*
X2250Y1379D01*
X0Y1378D02*
X7Y1378D01*
X2243Y1378D02*
X2250Y1378D01*
X0Y1377D02*
X7Y1377D01*
X2243Y1377D02*
X2250Y1377D01*
X0Y1376D02*
X7Y1376D01*
X2243Y1376D02*
X2250Y1376D01*
X0Y1375D02*
X7Y1375D01*
X2243Y1375D02*
X2250Y1375D01*
X0Y1374D02*
X7Y1374D01*
X2243Y1374D02*
X2250Y1374D01*
X0Y1373D02*
X7Y1373D01*
X2243Y1373D02*
X2250Y1373D01*
X0Y1372D02*
X7Y1372D01*
X2243Y1372D02*
X2250Y1372D01*
X0Y1371D02*
X7Y1371D01*
X2243Y1371D02*
X2250Y1371D01*
X0Y1370D02*
X7Y1370D01*
X2243Y1370D02*
X2250Y1370D01*
X0Y1369D02*
X7Y1369D01*
X2243Y1369D02*
X2250Y1369D01*
X0Y1368D02*
X7Y1368D01*
X2243Y1368D02*
X2250Y1368D01*
X0Y1367D02*
X7Y1367D01*
X2243Y1367D02*
X2250Y1367D01*
X0Y1366D02*
X7Y1366D01*
X2243Y1366D02*
X2250Y1366D01*
X0Y1365D02*
X7Y1365D01*
X2243Y1365D02*
X2250Y1365D01*
X0Y1364D02*
X7Y1364D01*
X2243Y1364D02*
X2250Y1364D01*
X0Y1363D02*
X7Y1363D01*
X2243Y1363D02*
X2250Y1363D01*
X0Y1362D02*
X7Y1362D01*
X2243Y1362D02*
X2250Y1362D01*
X0Y1361D02*
X7Y1361D01*
X2243Y1361D02*
X2250Y1361D01*
X0Y1360D02*
X7Y1360D01*
X2243Y1360D02*
X2250Y1360D01*
X0Y1359D02*
X7Y1359D01*
X2243Y1359D02*
X2250Y1359D01*
X0Y1358D02*
X7Y1358D01*
X2243Y1358D02*
X2250Y1358D01*
X0Y1357D02*
X7Y1357D01*
X2243Y1357D02*
X2250Y1357D01*
X0Y1356D02*
X7Y1356D01*
X2243Y1356D02*
X2250Y1356D01*
X0Y1355D02*
X7Y1355D01*
X2243Y1355D02*
X2250Y1355D01*
X0Y1354D02*
X7Y1354D01*
X2243Y1354D02*
X2250Y1354D01*
X0Y1353D02*
X7Y1353D01*
X2243Y1353D02*
X2250Y1353D01*
X0Y1352D02*
X7Y1352D01*
X2243Y1352D02*
X2250Y1352D01*
X0Y1351D02*
X7Y1351D01*
X2243Y1351D02*
X2250Y1351D01*
X0Y1350D02*
X7Y1350D01*
X2243Y1350D02*
X2250Y1350D01*
X0Y1349D02*
X7Y1349D01*
X2243Y1349D02*
X2250Y1349D01*
X0Y1348D02*
X7Y1348D01*
X2243Y1348D02*
X2250Y1348D01*
X0Y1347D02*
X7Y1347D01*
X2243Y1347D02*
X2250Y1347D01*
X0Y1346D02*
X7Y1346D01*
X2243Y1346D02*
X2250Y1346D01*
X0Y1345D02*
X7Y1345D01*
X2243Y1345D02*
X2250Y1345D01*
X0Y1344D02*
X7Y1344D01*
X2243Y1344D02*
X2250Y1344D01*
X0Y1343D02*
X7Y1343D01*
X2243Y1343D02*
X2250Y1343D01*
X0Y1342D02*
X7Y1342D01*
X2243Y1342D02*
X2250Y1342D01*
X0Y1341D02*
X7Y1341D01*
X2243Y1341D02*
X2250Y1341D01*
X0Y1340D02*
X7Y1340D01*
X2243Y1340D02*
X2250Y1340D01*
X0Y1339D02*
X7Y1339D01*
X2243Y1339D02*
X2250Y1339D01*
X0Y1338D02*
X7Y1338D01*
X2243Y1338D02*
X2250Y1338D01*
X0Y1337D02*
X7Y1337D01*
X2243Y1337D02*
X2250Y1337D01*
X0Y1336D02*
X7Y1336D01*
X2243Y1336D02*
X2250Y1336D01*
X0Y1335D02*
X7Y1335D01*
X2243Y1335D02*
X2250Y1335D01*
X0Y1334D02*
X7Y1334D01*
X2243Y1334D02*
X2250Y1334D01*
X0Y1333D02*
X7Y1333D01*
X2243Y1333D02*
X2250Y1333D01*
X0Y1332D02*
X7Y1332D01*
X2243Y1332D02*
X2250Y1332D01*
X0Y1331D02*
X7Y1331D01*
X2243Y1331D02*
X2250Y1331D01*
X0Y1330D02*
X7Y1330D01*
X2243Y1330D02*
X2250Y1330D01*
X0Y1329D02*
X7Y1329D01*
X2243Y1329D02*
X2250Y1329D01*
X0Y1328D02*
X7Y1328D01*
X2243Y1328D02*
X2250Y1328D01*
X0Y1327D02*
X7Y1327D01*
X2243Y1327D02*
X2250Y1327D01*
X0Y1326D02*
X7Y1326D01*
X2243Y1326D02*
X2250Y1326D01*
X0Y1325D02*
X7Y1325D01*
X2243Y1325D02*
X2250Y1325D01*
X0Y1324D02*
X7Y1324D01*
X2243Y1324D02*
X2250Y1324D01*
X0Y1323D02*
X7Y1323D01*
X2243Y1323D02*
X2250Y1323D01*
X0Y1322D02*
X7Y1322D01*
X2243Y1322D02*
X2250Y1322D01*
X0Y1321D02*
X7Y1321D01*
X2243Y1321D02*
X2250Y1321D01*
X0Y1320D02*
X7Y1320D01*
X2243Y1320D02*
X2250Y1320D01*
X0Y1319D02*
X7Y1319D01*
X2243Y1319D02*
X2250Y1319D01*
X0Y1318D02*
X7Y1318D01*
X2243Y1318D02*
X2250Y1318D01*
X0Y1317D02*
X7Y1317D01*
X2243Y1317D02*
X2250Y1317D01*
X0Y1316D02*
X7Y1316D01*
X2243Y1316D02*
X2250Y1316D01*
X0Y1315D02*
X7Y1315D01*
X2243Y1315D02*
X2250Y1315D01*
X0Y1314D02*
X7Y1314D01*
X2243Y1314D02*
X2250Y1314D01*
X0Y1313D02*
X7Y1313D01*
X2243Y1313D02*
X2250Y1313D01*
X0Y1312D02*
X7Y1312D01*
X2243Y1312D02*
X2250Y1312D01*
X0Y1311D02*
X7Y1311D01*
X2243Y1311D02*
X2250Y1311D01*
X0Y1310D02*
X7Y1310D01*
X2243Y1310D02*
X2250Y1310D01*
X0Y1309D02*
X7Y1309D01*
X2243Y1309D02*
X2250Y1309D01*
X0Y1308D02*
X7Y1308D01*
X2243Y1308D02*
X2250Y1308D01*
X0Y1307D02*
X7Y1307D01*
X2243Y1307D02*
X2250Y1307D01*
X0Y1306D02*
X7Y1306D01*
X2243Y1306D02*
X2250Y1306D01*
X0Y1305D02*
X7Y1305D01*
X2243Y1305D02*
X2250Y1305D01*
X0Y1304D02*
X7Y1304D01*
X2243Y1304D02*
X2250Y1304D01*
X0Y1303D02*
X7Y1303D01*
X2243Y1303D02*
X2250Y1303D01*
X0Y1302D02*
X7Y1302D01*
X2243Y1302D02*
X2250Y1302D01*
X0Y1301D02*
X7Y1301D01*
X2243Y1301D02*
X2250Y1301D01*
X0Y1300D02*
X7Y1300D01*
X2243Y1300D02*
X2250Y1300D01*
X0Y1299D02*
X7Y1299D01*
X2243Y1299D02*
X2250Y1299D01*
X0Y1298D02*
X7Y1298D01*
X2243Y1298D02*
X2250Y1298D01*
X0Y1297D02*
X7Y1297D01*
X2243Y1297D02*
X2250Y1297D01*
X0Y1296D02*
X7Y1296D01*
X2243Y1296D02*
X2250Y1296D01*
X0Y1295D02*
X7Y1295D01*
X2243Y1295D02*
X2250Y1295D01*
X0Y1294D02*
X7Y1294D01*
X2243Y1294D02*
X2250Y1294D01*
X0Y1293D02*
X7Y1293D01*
X0Y1292D02*
X7Y1292D01*
X0Y1291D02*
X7Y1291D01*
X0Y1290D02*
X7Y1290D01*
X0Y1289D02*
X7Y1289D01*
X0Y1288D02*
X7Y1288D01*
X0Y1287D02*
X7Y1287D01*
X0Y1286D02*
X7Y1286D01*
X0Y1285D02*
X7Y1285D01*
X2243Y1285D02*
X2251Y1285D01*
X0Y1284D02*
X7Y1284D01*
X2243Y1284D02*
X2251Y1284D01*
X0Y1283D02*
X7Y1283D01*
X2243Y1283D02*
X2250Y1283D01*
X0Y1282D02*
X7Y1282D01*
X2243Y1282D02*
X2250Y1282D01*
X0Y1281D02*
X7Y1281D01*
X2243Y1281D02*
X2250Y1281D01*
X0Y1280D02*
X7Y1280D01*
X2243Y1280D02*
X2250Y1280D01*
X0Y1279D02*
X7Y1279D01*
X2243Y1279D02*
X2250Y1279D01*
X0Y1278D02*
X7Y1278D01*
X2243Y1278D02*
X2250Y1278D01*
X0Y1277D02*
X7Y1277D01*
X2243Y1277D02*
X2250Y1277D01*
X0Y1276D02*
X7Y1276D01*
X2243Y1276D02*
X2251Y1276D01*
X0Y1275D02*
X7Y1275D01*
X2243Y1275D02*
X2251Y1275D01*
X0Y1274D02*
X7Y1274D01*
X0Y1273D02*
X7Y1273D01*
X0Y1272D02*
X7Y1272D01*
X0Y1271D02*
X7Y1271D01*
X0Y1270D02*
X7Y1270D01*
X212Y1270D02*
X276Y1270D01*
X0Y1269D02*
X7Y1269D01*
X211Y1269D02*
X277Y1269D01*
X0Y1268D02*
X7Y1268D01*
X210Y1268D02*
X278Y1268D01*
X0Y1267D02*
X7Y1267D01*
X209Y1267D02*
X279Y1267D01*
X0Y1266D02*
X7Y1266D01*
X209Y1266D02*
X279Y1266D01*
X2243Y1266D02*
X2250Y1266D01*
X0Y1265D02*
X7Y1265D01*
X209Y1265D02*
X279Y1265D01*
X2243Y1265D02*
X2250Y1265D01*
X0Y1264D02*
X7Y1264D01*
X209Y1264D02*
X279Y1264D01*
X2243Y1264D02*
X2250Y1264D01*
X0Y1263D02*
X7Y1263D01*
X209Y1263D02*
X279Y1263D01*
X2243Y1263D02*
X2250Y1263D01*
X0Y1262D02*
X7Y1262D01*
X210Y1262D02*
X278Y1262D01*
X2243Y1262D02*
X2250Y1262D01*
X0Y1261D02*
X7Y1261D01*
X211Y1261D02*
X277Y1261D01*
X2243Y1261D02*
X2250Y1261D01*
X0Y1260D02*
X7Y1260D01*
X212Y1260D02*
X276Y1260D01*
X2243Y1260D02*
X2250Y1260D01*
X0Y1259D02*
X7Y1259D01*
X2243Y1259D02*
X2250Y1259D01*
X0Y1258D02*
X7Y1258D01*
X2243Y1258D02*
X2250Y1258D01*
X0Y1257D02*
X7Y1257D01*
X2243Y1257D02*
X2250Y1257D01*
X0Y1256D02*
X7Y1256D01*
X2243Y1256D02*
X2250Y1256D01*
X0Y1255D02*
X7Y1255D01*
X2243Y1255D02*
X2250Y1255D01*
X0Y1254D02*
X7Y1254D01*
X2243Y1254D02*
X2250Y1254D01*
X0Y1253D02*
X7Y1253D01*
X2243Y1253D02*
X2250Y1253D01*
X0Y1252D02*
X7Y1252D01*
X2243Y1252D02*
X2250Y1252D01*
X0Y1251D02*
X7Y1251D01*
X2243Y1251D02*
X2250Y1251D01*
X0Y1250D02*
X7Y1250D01*
X2243Y1250D02*
X2250Y1250D01*
X0Y1249D02*
X7Y1249D01*
X2243Y1249D02*
X2250Y1249D01*
X0Y1248D02*
X7Y1248D01*
X2243Y1248D02*
X2250Y1248D01*
X0Y1247D02*
X7Y1247D01*
X2243Y1247D02*
X2250Y1247D01*
X0Y1246D02*
X7Y1246D01*
X2243Y1246D02*
X2250Y1246D01*
X0Y1245D02*
X7Y1245D01*
X2243Y1245D02*
X2250Y1245D01*
X0Y1244D02*
X7Y1244D01*
X2243Y1244D02*
X2250Y1244D01*
X0Y1243D02*
X7Y1243D01*
X2243Y1243D02*
X2250Y1243D01*
X0Y1242D02*
X7Y1242D01*
X2243Y1242D02*
X2250Y1242D01*
X0Y1241D02*
X7Y1241D01*
X2243Y1241D02*
X2250Y1241D01*
X0Y1240D02*
X7Y1240D01*
X2243Y1240D02*
X2250Y1240D01*
X0Y1239D02*
X7Y1239D01*
X2243Y1239D02*
X2250Y1239D01*
X0Y1238D02*
X7Y1238D01*
X2243Y1238D02*
X2250Y1238D01*
X0Y1237D02*
X7Y1237D01*
X2243Y1237D02*
X2250Y1237D01*
X0Y1236D02*
X7Y1236D01*
X2243Y1236D02*
X2250Y1236D01*
X0Y1235D02*
X7Y1235D01*
X2243Y1235D02*
X2250Y1235D01*
X0Y1234D02*
X7Y1234D01*
X2243Y1234D02*
X2250Y1234D01*
X0Y1233D02*
X7Y1233D01*
X0Y1232D02*
X7Y1232D01*
X0Y1231D02*
X7Y1231D01*
X0Y1230D02*
X7Y1230D01*
X0Y1229D02*
X7Y1229D01*
X0Y1228D02*
X7Y1228D01*
X0Y1227D02*
X7Y1227D01*
X0Y1226D02*
X7Y1226D01*
X2243Y1226D02*
X2251Y1226D01*
X0Y1225D02*
X7Y1225D01*
X2243Y1225D02*
X2250Y1225D01*
X0Y1224D02*
X7Y1224D01*
X2243Y1224D02*
X2250Y1224D01*
X0Y1223D02*
X7Y1223D01*
X2243Y1223D02*
X2250Y1223D01*
X0Y1222D02*
X7Y1222D01*
X2243Y1222D02*
X2250Y1222D01*
X0Y1221D02*
X7Y1221D01*
X2243Y1221D02*
X2250Y1221D01*
X0Y1220D02*
X7Y1220D01*
X2243Y1220D02*
X2250Y1220D01*
X0Y1219D02*
X7Y1219D01*
X0Y1218D02*
X7Y1218D01*
X0Y1217D02*
X7Y1217D01*
X0Y1216D02*
X7Y1216D01*
X0Y1215D02*
X7Y1215D01*
X0Y1214D02*
X7Y1214D01*
X0Y1213D02*
X7Y1213D01*
X0Y1212D02*
X7Y1212D01*
X2243Y1212D02*
X2250Y1212D01*
X0Y1211D02*
X7Y1211D01*
X2243Y1211D02*
X2250Y1211D01*
X0Y1210D02*
X7Y1210D01*
X2243Y1210D02*
X2250Y1210D01*
X0Y1209D02*
X7Y1209D01*
X2243Y1209D02*
X2250Y1209D01*
X0Y1208D02*
X7Y1208D01*
X2243Y1208D02*
X2250Y1208D01*
X0Y1207D02*
X7Y1207D01*
X2243Y1207D02*
X2250Y1207D01*
X0Y1206D02*
X7Y1206D01*
X2243Y1206D02*
X2250Y1206D01*
X0Y1205D02*
X7Y1205D01*
X2243Y1205D02*
X2250Y1205D01*
X0Y1204D02*
X7Y1204D01*
X2243Y1204D02*
X2250Y1204D01*
X0Y1203D02*
X7Y1203D01*
X2243Y1203D02*
X2250Y1203D01*
X0Y1202D02*
X7Y1202D01*
X2243Y1202D02*
X2250Y1202D01*
X0Y1201D02*
X7Y1201D01*
X2243Y1201D02*
X2250Y1201D01*
X0Y1200D02*
X7Y1200D01*
X2243Y1200D02*
X2250Y1200D01*
X0Y1199D02*
X7Y1199D01*
X2243Y1199D02*
X2250Y1199D01*
X0Y1198D02*
X7Y1198D01*
X2243Y1198D02*
X2250Y1198D01*
X0Y1197D02*
X7Y1197D01*
X2243Y1197D02*
X2250Y1197D01*
X0Y1196D02*
X7Y1196D01*
X2243Y1196D02*
X2250Y1196D01*
X0Y1195D02*
X7Y1195D01*
X2243Y1195D02*
X2250Y1195D01*
X0Y1194D02*
X7Y1194D01*
X2243Y1194D02*
X2250Y1194D01*
X0Y1193D02*
X7Y1193D01*
X2243Y1193D02*
X2250Y1193D01*
X0Y1192D02*
X7Y1192D01*
X2243Y1192D02*
X2250Y1192D01*
X0Y1191D02*
X7Y1191D01*
X2243Y1191D02*
X2250Y1191D01*
X0Y1190D02*
X7Y1190D01*
X2243Y1190D02*
X2250Y1190D01*
X0Y1189D02*
X7Y1189D01*
X2243Y1189D02*
X2250Y1189D01*
X0Y1188D02*
X7Y1188D01*
X2243Y1188D02*
X2250Y1188D01*
X0Y1187D02*
X7Y1187D01*
X2243Y1187D02*
X2250Y1187D01*
X0Y1186D02*
X7Y1186D01*
X2243Y1186D02*
X2250Y1186D01*
X0Y1185D02*
X7Y1185D01*
X2243Y1185D02*
X2250Y1185D01*
X0Y1184D02*
X7Y1184D01*
X2243Y1184D02*
X2250Y1184D01*
X0Y1183D02*
X7Y1183D01*
X2243Y1183D02*
X2250Y1183D01*
X0Y1182D02*
X7Y1182D01*
X2243Y1182D02*
X2250Y1182D01*
X0Y1181D02*
X7Y1181D01*
X2243Y1181D02*
X2250Y1181D01*
X0Y1180D02*
X7Y1180D01*
X2243Y1180D02*
X2250Y1180D01*
X0Y1179D02*
X7Y1179D01*
X2243Y1179D02*
X2250Y1179D01*
X0Y1178D02*
X7Y1178D01*
X2243Y1178D02*
X2250Y1178D01*
X0Y1177D02*
X7Y1177D01*
X2243Y1177D02*
X2250Y1177D01*
X0Y1176D02*
X7Y1176D01*
X2243Y1176D02*
X2250Y1176D01*
X0Y1175D02*
X7Y1175D01*
X2243Y1175D02*
X2250Y1175D01*
X0Y1174D02*
X7Y1174D01*
X2243Y1174D02*
X2250Y1174D01*
X0Y1173D02*
X7Y1173D01*
X2243Y1173D02*
X2250Y1173D01*
X0Y1172D02*
X7Y1172D01*
X2243Y1172D02*
X2250Y1172D01*
X0Y1171D02*
X7Y1171D01*
X2243Y1171D02*
X2250Y1171D01*
X0Y1170D02*
X7Y1170D01*
X2243Y1170D02*
X2250Y1170D01*
X0Y1169D02*
X7Y1169D01*
X2243Y1169D02*
X2250Y1169D01*
X0Y1168D02*
X7Y1168D01*
X2243Y1168D02*
X2250Y1168D01*
X0Y1167D02*
X7Y1167D01*
X2243Y1167D02*
X2250Y1167D01*
X0Y1166D02*
X7Y1166D01*
X2243Y1166D02*
X2250Y1166D01*
X0Y1165D02*
X7Y1165D01*
X2243Y1165D02*
X2250Y1165D01*
X0Y1164D02*
X7Y1164D01*
X2243Y1164D02*
X2250Y1164D01*
X0Y1163D02*
X7Y1163D01*
X2243Y1163D02*
X2250Y1163D01*
X0Y1162D02*
X7Y1162D01*
X2243Y1162D02*
X2250Y1162D01*
X0Y1161D02*
X7Y1161D01*
X2243Y1161D02*
X2250Y1161D01*
X0Y1160D02*
X7Y1160D01*
X2243Y1160D02*
X2250Y1160D01*
X0Y1159D02*
X7Y1159D01*
X2243Y1159D02*
X2250Y1159D01*
X0Y1158D02*
X7Y1158D01*
X2243Y1158D02*
X2250Y1158D01*
X0Y1157D02*
X7Y1157D01*
X2243Y1157D02*
X2250Y1157D01*
X0Y1156D02*
X7Y1156D01*
X2243Y1156D02*
X2250Y1156D01*
X0Y1155D02*
X7Y1155D01*
X2243Y1155D02*
X2250Y1155D01*
X0Y1154D02*
X7Y1154D01*
X2243Y1154D02*
X2250Y1154D01*
X0Y1153D02*
X7Y1153D01*
X2243Y1153D02*
X2250Y1153D01*
X0Y1152D02*
X7Y1152D01*
X2243Y1152D02*
X2250Y1152D01*
X0Y1151D02*
X7Y1151D01*
X2243Y1151D02*
X2250Y1151D01*
X0Y1150D02*
X7Y1150D01*
X2243Y1150D02*
X2250Y1150D01*
X0Y1149D02*
X7Y1149D01*
X2243Y1149D02*
X2250Y1149D01*
X0Y1148D02*
X7Y1148D01*
X2243Y1148D02*
X2250Y1148D01*
X0Y1147D02*
X7Y1147D01*
X2243Y1147D02*
X2250Y1147D01*
X0Y1146D02*
X7Y1146D01*
X2243Y1146D02*
X2250Y1146D01*
X0Y1145D02*
X7Y1145D01*
X2243Y1145D02*
X2250Y1145D01*
X0Y1144D02*
X7Y1144D01*
X2243Y1144D02*
X2250Y1144D01*
X0Y1143D02*
X7Y1143D01*
X2243Y1143D02*
X2250Y1143D01*
X0Y1142D02*
X7Y1142D01*
X2243Y1142D02*
X2250Y1142D01*
X0Y1141D02*
X7Y1141D01*
X2243Y1141D02*
X2250Y1141D01*
X0Y1140D02*
X7Y1140D01*
X2243Y1140D02*
X2250Y1140D01*
X0Y1139D02*
X7Y1139D01*
X2243Y1139D02*
X2250Y1139D01*
X0Y1138D02*
X7Y1138D01*
X2243Y1138D02*
X2250Y1138D01*
X0Y1137D02*
X7Y1137D01*
X2243Y1137D02*
X2250Y1137D01*
X0Y1136D02*
X7Y1136D01*
X2243Y1136D02*
X2250Y1136D01*
X0Y1135D02*
X7Y1135D01*
X2243Y1135D02*
X2250Y1135D01*
X0Y1134D02*
X7Y1134D01*
X2243Y1134D02*
X2250Y1134D01*
X0Y1133D02*
X7Y1133D01*
X2243Y1133D02*
X2250Y1133D01*
X0Y1132D02*
X7Y1132D01*
X2243Y1132D02*
X2250Y1132D01*
X0Y1131D02*
X7Y1131D01*
X2243Y1131D02*
X2250Y1131D01*
X0Y1130D02*
X7Y1130D01*
X2243Y1130D02*
X2250Y1130D01*
X0Y1129D02*
X7Y1129D01*
X2243Y1129D02*
X2250Y1129D01*
X0Y1128D02*
X7Y1128D01*
X2243Y1128D02*
X2250Y1128D01*
X0Y1127D02*
X7Y1127D01*
X2243Y1127D02*
X2250Y1127D01*
X0Y1126D02*
X7Y1126D01*
X2243Y1126D02*
X2250Y1126D01*
X0Y1125D02*
X7Y1125D01*
X2243Y1125D02*
X2250Y1125D01*
X0Y1124D02*
X7Y1124D01*
X2243Y1124D02*
X2250Y1124D01*
X0Y1123D02*
X7Y1123D01*
X2243Y1123D02*
X2250Y1123D01*
X0Y1122D02*
X7Y1122D01*
X2243Y1122D02*
X2250Y1122D01*
X0Y1121D02*
X7Y1121D01*
X2243Y1121D02*
X2250Y1121D01*
X0Y1120D02*
X7Y1120D01*
X2243Y1120D02*
X2250Y1120D01*
X0Y1119D02*
X7Y1119D01*
X2243Y1119D02*
X2250Y1119D01*
X0Y1118D02*
X7Y1118D01*
X2243Y1118D02*
X2250Y1118D01*
X0Y1117D02*
X7Y1117D01*
X2243Y1117D02*
X2250Y1117D01*
X0Y1116D02*
X7Y1116D01*
X2243Y1116D02*
X2250Y1116D01*
X0Y1115D02*
X7Y1115D01*
X2243Y1115D02*
X2250Y1115D01*
X0Y1114D02*
X7Y1114D01*
X2243Y1114D02*
X2250Y1114D01*
X0Y1113D02*
X7Y1113D01*
X2243Y1113D02*
X2250Y1113D01*
X0Y1112D02*
X7Y1112D01*
X2243Y1112D02*
X2250Y1112D01*
X0Y1111D02*
X7Y1111D01*
X2243Y1111D02*
X2250Y1111D01*
X0Y1110D02*
X7Y1110D01*
X2243Y1110D02*
X2250Y1110D01*
X0Y1109D02*
X7Y1109D01*
X2243Y1109D02*
X2250Y1109D01*
X0Y1108D02*
X7Y1108D01*
X2243Y1108D02*
X2250Y1108D01*
X0Y1107D02*
X7Y1107D01*
X2243Y1107D02*
X2250Y1107D01*
X0Y1106D02*
X7Y1106D01*
X2243Y1106D02*
X2250Y1106D01*
X0Y1105D02*
X7Y1105D01*
X2243Y1105D02*
X2250Y1105D01*
X0Y1104D02*
X7Y1104D01*
X2243Y1104D02*
X2250Y1104D01*
X0Y1103D02*
X7Y1103D01*
X2243Y1103D02*
X2250Y1103D01*
X0Y1102D02*
X7Y1102D01*
X2243Y1102D02*
X2250Y1102D01*
X0Y1101D02*
X7Y1101D01*
X2243Y1101D02*
X2250Y1101D01*
X0Y1100D02*
X7Y1100D01*
X2243Y1100D02*
X2250Y1100D01*
X0Y1099D02*
X7Y1099D01*
X2243Y1099D02*
X2250Y1099D01*
X0Y1098D02*
X7Y1098D01*
X2243Y1098D02*
X2250Y1098D01*
X0Y1097D02*
X7Y1097D01*
X2243Y1097D02*
X2250Y1097D01*
X0Y1096D02*
X7Y1096D01*
X2243Y1096D02*
X2250Y1096D01*
X0Y1095D02*
X7Y1095D01*
X2243Y1095D02*
X2250Y1095D01*
X0Y1094D02*
X7Y1094D01*
X2243Y1094D02*
X2250Y1094D01*
X0Y1093D02*
X7Y1093D01*
X2243Y1093D02*
X2250Y1093D01*
X0Y1092D02*
X7Y1092D01*
X2243Y1092D02*
X2250Y1092D01*
X0Y1091D02*
X7Y1091D01*
X2243Y1091D02*
X2250Y1091D01*
X0Y1090D02*
X7Y1090D01*
X1386Y1090D02*
X1433Y1090D01*
X1635Y1090D02*
X1701Y1090D01*
X2243Y1090D02*
X2250Y1090D01*
X0Y1089D02*
X7Y1089D01*
X1386Y1089D02*
X1434Y1089D01*
X1635Y1089D02*
X1701Y1089D01*
X2243Y1089D02*
X2250Y1089D01*
X0Y1088D02*
X7Y1088D01*
X1386Y1088D02*
X1434Y1088D01*
X1635Y1088D02*
X1701Y1088D01*
X2243Y1088D02*
X2250Y1088D01*
X0Y1087D02*
X7Y1087D01*
X1386Y1087D02*
X1434Y1087D01*
X1635Y1087D02*
X1701Y1087D01*
X2243Y1087D02*
X2250Y1087D01*
X0Y1086D02*
X7Y1086D01*
X1387Y1086D02*
X1434Y1086D01*
X1635Y1086D02*
X1701Y1086D01*
X2243Y1086D02*
X2250Y1086D01*
X0Y1085D02*
X7Y1085D01*
X1387Y1085D02*
X1434Y1085D01*
X1635Y1085D02*
X1700Y1085D01*
X2243Y1085D02*
X2250Y1085D01*
X0Y1084D02*
X7Y1084D01*
X1387Y1084D02*
X1434Y1084D01*
X1635Y1084D02*
X1701Y1084D01*
X2243Y1084D02*
X2250Y1084D01*
X0Y1083D02*
X7Y1083D01*
X1386Y1083D02*
X1434Y1083D01*
X1635Y1083D02*
X1701Y1083D01*
X2243Y1083D02*
X2250Y1083D01*
X0Y1082D02*
X7Y1082D01*
X1386Y1082D02*
X1434Y1082D01*
X1635Y1082D02*
X1701Y1082D01*
X2243Y1082D02*
X2250Y1082D01*
X0Y1081D02*
X7Y1081D01*
X1386Y1081D02*
X1434Y1081D01*
X1635Y1081D02*
X1701Y1081D01*
X2243Y1081D02*
X2250Y1081D01*
X0Y1080D02*
X7Y1080D01*
X2243Y1080D02*
X2250Y1080D01*
X0Y1079D02*
X7Y1079D01*
X2243Y1079D02*
X2250Y1079D01*
X0Y1078D02*
X7Y1078D01*
X2243Y1078D02*
X2250Y1078D01*
X0Y1077D02*
X7Y1077D01*
X2243Y1077D02*
X2250Y1077D01*
X0Y1076D02*
X7Y1076D01*
X2243Y1076D02*
X2250Y1076D01*
X0Y1075D02*
X7Y1075D01*
X2243Y1075D02*
X2250Y1075D01*
X0Y1074D02*
X7Y1074D01*
X2243Y1074D02*
X2250Y1074D01*
X0Y1073D02*
X7Y1073D01*
X2243Y1073D02*
X2250Y1073D01*
X0Y1072D02*
X7Y1072D01*
X2243Y1072D02*
X2250Y1072D01*
X0Y1071D02*
X7Y1071D01*
X2243Y1071D02*
X2250Y1071D01*
X0Y1070D02*
X7Y1070D01*
X2243Y1070D02*
X2250Y1070D01*
X0Y1069D02*
X7Y1069D01*
X2243Y1069D02*
X2250Y1069D01*
X0Y1068D02*
X7Y1068D01*
X2243Y1068D02*
X2250Y1068D01*
X0Y1067D02*
X7Y1067D01*
X2243Y1067D02*
X2250Y1067D01*
X0Y1066D02*
X7Y1066D01*
X2243Y1066D02*
X2250Y1066D01*
X0Y1065D02*
X7Y1065D01*
X2243Y1065D02*
X2250Y1065D01*
X0Y1064D02*
X7Y1064D01*
X2243Y1064D02*
X2250Y1064D01*
X0Y1063D02*
X7Y1063D01*
X2243Y1063D02*
X2250Y1063D01*
X0Y1062D02*
X7Y1062D01*
X2243Y1062D02*
X2250Y1062D01*
X0Y1061D02*
X7Y1061D01*
X2243Y1061D02*
X2250Y1061D01*
X0Y1060D02*
X7Y1060D01*
X2243Y1060D02*
X2250Y1060D01*
X0Y1059D02*
X7Y1059D01*
X2243Y1059D02*
X2250Y1059D01*
X0Y1058D02*
X7Y1058D01*
X2243Y1058D02*
X2250Y1058D01*
X0Y1057D02*
X7Y1057D01*
X2243Y1057D02*
X2250Y1057D01*
X0Y1056D02*
X7Y1056D01*
X2243Y1056D02*
X2250Y1056D01*
X0Y1055D02*
X7Y1055D01*
X2243Y1055D02*
X2250Y1055D01*
X0Y1054D02*
X7Y1054D01*
X2243Y1054D02*
X2250Y1054D01*
X0Y1053D02*
X7Y1053D01*
X2243Y1053D02*
X2250Y1053D01*
X0Y1052D02*
X7Y1052D01*
X2243Y1052D02*
X2250Y1052D01*
X0Y1051D02*
X7Y1051D01*
X2243Y1051D02*
X2250Y1051D01*
X0Y1050D02*
X7Y1050D01*
X2243Y1050D02*
X2250Y1050D01*
X0Y1049D02*
X7Y1049D01*
X2243Y1049D02*
X2250Y1049D01*
X0Y1048D02*
X7Y1048D01*
X2243Y1048D02*
X2250Y1048D01*
X0Y1047D02*
X7Y1047D01*
X2243Y1047D02*
X2250Y1047D01*
X0Y1046D02*
X7Y1046D01*
X2243Y1046D02*
X2250Y1046D01*
X0Y1045D02*
X7Y1045D01*
X2243Y1045D02*
X2250Y1045D01*
X0Y1044D02*
X7Y1044D01*
X2243Y1044D02*
X2250Y1044D01*
X0Y1043D02*
X7Y1043D01*
X2243Y1043D02*
X2250Y1043D01*
X0Y1042D02*
X7Y1042D01*
X2243Y1042D02*
X2250Y1042D01*
X0Y1041D02*
X7Y1041D01*
X2243Y1041D02*
X2250Y1041D01*
X0Y1040D02*
X7Y1040D01*
X2243Y1040D02*
X2250Y1040D01*
X0Y1039D02*
X7Y1039D01*
X2243Y1039D02*
X2250Y1039D01*
X0Y1038D02*
X7Y1038D01*
X2243Y1038D02*
X2250Y1038D01*
X0Y1037D02*
X7Y1037D01*
X2243Y1037D02*
X2250Y1037D01*
X0Y1036D02*
X7Y1036D01*
X2243Y1036D02*
X2250Y1036D01*
X0Y1035D02*
X7Y1035D01*
X2243Y1035D02*
X2250Y1035D01*
X0Y1034D02*
X7Y1034D01*
X2243Y1034D02*
X2250Y1034D01*
X0Y1033D02*
X7Y1033D01*
X2243Y1033D02*
X2250Y1033D01*
X0Y1032D02*
X7Y1032D01*
X2243Y1032D02*
X2250Y1032D01*
X0Y1031D02*
X7Y1031D01*
X2243Y1031D02*
X2250Y1031D01*
X0Y1030D02*
X7Y1030D01*
X2243Y1030D02*
X2250Y1030D01*
X0Y1029D02*
X7Y1029D01*
X2243Y1029D02*
X2250Y1029D01*
X0Y1028D02*
X7Y1028D01*
X2243Y1028D02*
X2250Y1028D01*
X0Y1027D02*
X7Y1027D01*
X2243Y1027D02*
X2250Y1027D01*
X0Y1026D02*
X7Y1026D01*
X2243Y1026D02*
X2250Y1026D01*
X0Y1025D02*
X7Y1025D01*
X2243Y1025D02*
X2250Y1025D01*
X0Y1024D02*
X7Y1024D01*
X2243Y1024D02*
X2250Y1024D01*
X0Y1023D02*
X7Y1023D01*
X2243Y1023D02*
X2250Y1023D01*
X0Y1022D02*
X7Y1022D01*
X2243Y1022D02*
X2250Y1022D01*
X0Y1021D02*
X7Y1021D01*
X2243Y1021D02*
X2250Y1021D01*
X0Y1020D02*
X7Y1020D01*
X2243Y1020D02*
X2250Y1020D01*
X0Y1019D02*
X7Y1019D01*
X2243Y1019D02*
X2250Y1019D01*
X0Y1018D02*
X7Y1018D01*
X2243Y1018D02*
X2250Y1018D01*
X0Y1017D02*
X7Y1017D01*
X2243Y1017D02*
X2250Y1017D01*
X0Y1016D02*
X7Y1016D01*
X1216Y1016D02*
X1246Y1016D01*
X1266Y1016D02*
X1268Y1016D01*
X1294Y1016D02*
X1296Y1016D01*
X2243Y1016D02*
X2250Y1016D01*
X0Y1015D02*
X7Y1015D01*
X1215Y1015D02*
X1247Y1015D01*
X1265Y1015D02*
X1269Y1015D01*
X1293Y1015D02*
X1297Y1015D01*
X2003Y1015D02*
X2026Y1015D01*
X2206Y1015D02*
X2222Y1015D01*
X2243Y1015D02*
X2250Y1015D01*
X0Y1014D02*
X7Y1014D01*
X1214Y1014D02*
X1247Y1014D01*
X1264Y1014D02*
X1270Y1014D01*
X1292Y1014D02*
X1298Y1014D01*
X2002Y1014D02*
X2030Y1014D01*
X2204Y1014D02*
X2223Y1014D01*
X2243Y1014D02*
X2250Y1014D01*
X0Y1013D02*
X7Y1013D01*
X1214Y1013D02*
X1248Y1013D01*
X1264Y1013D02*
X1271Y1013D01*
X1292Y1013D02*
X1298Y1013D01*
X2002Y1013D02*
X2032Y1013D01*
X2203Y1013D02*
X2223Y1013D01*
X2243Y1013D02*
X2250Y1013D01*
X0Y1012D02*
X7Y1012D01*
X1214Y1012D02*
X1247Y1012D01*
X1264Y1012D02*
X1271Y1012D01*
X1292Y1012D02*
X1298Y1012D01*
X2002Y1012D02*
X2033Y1012D01*
X2163Y1012D02*
X2163Y1012D01*
X2203Y1012D02*
X2223Y1012D01*
X2243Y1012D02*
X2250Y1012D01*
X0Y1011D02*
X7Y1011D01*
X1214Y1011D02*
X1247Y1011D01*
X1265Y1011D02*
X1272Y1011D01*
X1292Y1011D02*
X1298Y1011D01*
X2002Y1011D02*
X2034Y1011D01*
X2161Y1011D02*
X2165Y1011D01*
X2203Y1011D02*
X2223Y1011D01*
X2243Y1011D02*
X2250Y1011D01*
X0Y1010D02*
X7Y1010D01*
X1214Y1010D02*
X1246Y1010D01*
X1265Y1010D02*
X1273Y1010D01*
X1292Y1010D02*
X1298Y1010D01*
X2002Y1010D02*
X2034Y1010D01*
X2160Y1010D02*
X2165Y1010D01*
X2204Y1010D02*
X2223Y1010D01*
X2243Y1010D02*
X2250Y1010D01*
X0Y1009D02*
X7Y1009D01*
X1214Y1009D02*
X1220Y1009D01*
X1228Y1009D02*
X1234Y1009D01*
X1266Y1009D02*
X1273Y1009D01*
X1292Y1009D02*
X1298Y1009D01*
X2002Y1009D02*
X2035Y1009D01*
X2160Y1009D02*
X2166Y1009D01*
X2204Y1009D02*
X2223Y1009D01*
X2243Y1009D02*
X2250Y1009D01*
X0Y1008D02*
X7Y1008D01*
X1214Y1008D02*
X1220Y1008D01*
X1228Y1008D02*
X1234Y1008D01*
X1267Y1008D02*
X1274Y1008D01*
X1292Y1008D02*
X1298Y1008D01*
X2002Y1008D02*
X2009Y1008D01*
X2026Y1008D02*
X2035Y1008D01*
X2160Y1008D02*
X2166Y1008D01*
X2216Y1008D02*
X2223Y1008D01*
X2243Y1008D02*
X2250Y1008D01*
X0Y1007D02*
X7Y1007D01*
X1214Y1007D02*
X1220Y1007D01*
X1228Y1007D02*
X1234Y1007D01*
X1267Y1007D02*
X1274Y1007D01*
X1292Y1007D02*
X1298Y1007D01*
X2002Y1007D02*
X2008Y1007D01*
X2029Y1007D02*
X2036Y1007D01*
X2160Y1007D02*
X2166Y1007D01*
X2217Y1007D02*
X2223Y1007D01*
X2243Y1007D02*
X2250Y1007D01*
X0Y1006D02*
X7Y1006D01*
X1214Y1006D02*
X1220Y1006D01*
X1228Y1006D02*
X1234Y1006D01*
X1268Y1006D02*
X1275Y1006D01*
X1292Y1006D02*
X1298Y1006D01*
X2002Y1006D02*
X2008Y1006D01*
X2030Y1006D02*
X2036Y1006D01*
X2160Y1006D02*
X2166Y1006D01*
X2217Y1006D02*
X2223Y1006D01*
X2243Y1006D02*
X2250Y1006D01*
X0Y1005D02*
X7Y1005D01*
X1214Y1005D02*
X1220Y1005D01*
X1228Y1005D02*
X1234Y1005D01*
X1268Y1005D02*
X1275Y1005D01*
X1292Y1005D02*
X1298Y1005D01*
X2002Y1005D02*
X2008Y1005D01*
X2030Y1005D02*
X2036Y1005D01*
X2160Y1005D02*
X2166Y1005D01*
X2217Y1005D02*
X2223Y1005D01*
X2243Y1005D02*
X2250Y1005D01*
X0Y1004D02*
X7Y1004D01*
X1214Y1004D02*
X1220Y1004D01*
X1228Y1004D02*
X1234Y1004D01*
X1269Y1004D02*
X1276Y1004D01*
X1292Y1004D02*
X1298Y1004D01*
X2002Y1004D02*
X2008Y1004D01*
X2030Y1004D02*
X2036Y1004D01*
X2160Y1004D02*
X2166Y1004D01*
X2217Y1004D02*
X2223Y1004D01*
X2243Y1004D02*
X2250Y1004D01*
X0Y1003D02*
X7Y1003D01*
X1214Y1003D02*
X1220Y1003D01*
X1228Y1003D02*
X1234Y1003D01*
X1269Y1003D02*
X1277Y1003D01*
X1292Y1003D02*
X1298Y1003D01*
X2002Y1003D02*
X2008Y1003D01*
X2030Y1003D02*
X2036Y1003D01*
X2160Y1003D02*
X2166Y1003D01*
X2217Y1003D02*
X2223Y1003D01*
X2243Y1003D02*
X2250Y1003D01*
X0Y1002D02*
X7Y1002D01*
X1214Y1002D02*
X1220Y1002D01*
X1228Y1002D02*
X1234Y1002D01*
X1270Y1002D02*
X1277Y1002D01*
X1292Y1002D02*
X1298Y1002D01*
X2002Y1002D02*
X2008Y1002D01*
X2030Y1002D02*
X2036Y1002D01*
X2160Y1002D02*
X2166Y1002D01*
X2217Y1002D02*
X2223Y1002D01*
X2243Y1002D02*
X2250Y1002D01*
X0Y1001D02*
X7Y1001D01*
X1214Y1001D02*
X1220Y1001D01*
X1228Y1001D02*
X1234Y1001D01*
X1271Y1001D02*
X1278Y1001D01*
X1292Y1001D02*
X1298Y1001D01*
X2002Y1001D02*
X2008Y1001D01*
X2030Y1001D02*
X2036Y1001D01*
X2160Y1001D02*
X2166Y1001D01*
X2217Y1001D02*
X2223Y1001D01*
X2243Y1001D02*
X2250Y1001D01*
X0Y1000D02*
X7Y1000D01*
X1214Y1000D02*
X1220Y1000D01*
X1228Y1000D02*
X1234Y1000D01*
X1271Y1000D02*
X1278Y1000D01*
X1292Y1000D02*
X1298Y1000D01*
X2002Y1000D02*
X2008Y1000D01*
X2030Y1000D02*
X2036Y1000D01*
X2062Y1000D02*
X2077Y1000D01*
X2105Y1000D02*
X2107Y1000D01*
X2119Y1000D02*
X2128Y1000D01*
X2155Y1000D02*
X2181Y1000D01*
X2217Y1000D02*
X2223Y1000D01*
X2243Y1000D02*
X2250Y1000D01*
X0Y999D02*
X7Y999D01*
X1214Y999D02*
X1220Y999D01*
X1228Y999D02*
X1234Y999D01*
X1272Y999D02*
X1279Y999D01*
X1292Y999D02*
X1298Y999D01*
X2002Y999D02*
X2008Y999D01*
X2030Y999D02*
X2036Y999D01*
X2060Y999D02*
X2080Y999D01*
X2104Y999D02*
X2108Y999D01*
X2117Y999D02*
X2131Y999D01*
X2154Y999D02*
X2182Y999D01*
X2217Y999D02*
X2223Y999D01*
X2243Y999D02*
X2250Y999D01*
X0Y998D02*
X7Y998D01*
X1214Y998D02*
X1220Y998D01*
X1228Y998D02*
X1234Y998D01*
X1272Y998D02*
X1280Y998D01*
X1292Y998D02*
X1298Y998D01*
X2002Y998D02*
X2008Y998D01*
X2030Y998D02*
X2036Y998D01*
X2060Y998D02*
X2081Y998D01*
X2103Y998D02*
X2108Y998D01*
X2116Y998D02*
X2132Y998D01*
X2153Y998D02*
X2183Y998D01*
X2217Y998D02*
X2223Y998D01*
X2243Y998D02*
X2250Y998D01*
X0Y997D02*
X7Y997D01*
X1214Y997D02*
X1220Y997D01*
X1228Y997D02*
X1234Y997D01*
X1273Y997D02*
X1280Y997D01*
X1292Y997D02*
X1298Y997D01*
X2002Y997D02*
X2008Y997D01*
X2030Y997D02*
X2036Y997D01*
X2059Y997D02*
X2082Y997D01*
X2103Y997D02*
X2109Y997D01*
X2115Y997D02*
X2133Y997D01*
X2153Y997D02*
X2183Y997D01*
X2217Y997D02*
X2223Y997D01*
X2243Y997D02*
X2250Y997D01*
X0Y996D02*
X7Y996D01*
X1214Y996D02*
X1220Y996D01*
X1228Y996D02*
X1234Y996D01*
X1274Y996D02*
X1281Y996D01*
X1292Y996D02*
X1298Y996D01*
X2002Y996D02*
X2008Y996D01*
X2030Y996D02*
X2036Y996D01*
X2060Y996D02*
X2083Y996D01*
X2103Y996D02*
X2109Y996D01*
X2114Y996D02*
X2134Y996D01*
X2153Y996D02*
X2183Y996D01*
X2217Y996D02*
X2223Y996D01*
X2243Y996D02*
X2250Y996D01*
X0Y995D02*
X7Y995D01*
X1214Y995D02*
X1220Y995D01*
X1228Y995D02*
X1234Y995D01*
X1274Y995D02*
X1281Y995D01*
X1292Y995D02*
X1298Y995D01*
X2002Y995D02*
X2008Y995D01*
X2030Y995D02*
X2036Y995D01*
X2060Y995D02*
X2084Y995D01*
X2103Y995D02*
X2109Y995D01*
X2112Y995D02*
X2135Y995D01*
X2153Y995D02*
X2182Y995D01*
X2217Y995D02*
X2223Y995D01*
X2243Y995D02*
X2250Y995D01*
X0Y994D02*
X7Y994D01*
X1214Y994D02*
X1220Y994D01*
X1228Y994D02*
X1234Y994D01*
X1275Y994D02*
X1282Y994D01*
X1292Y994D02*
X1298Y994D01*
X2002Y994D02*
X2008Y994D01*
X2030Y994D02*
X2036Y994D01*
X2061Y994D02*
X2084Y994D01*
X2103Y994D02*
X2109Y994D01*
X2111Y994D02*
X2135Y994D01*
X2154Y994D02*
X2182Y994D01*
X2217Y994D02*
X2223Y994D01*
X2243Y994D02*
X2250Y994D01*
X0Y993D02*
X7Y993D01*
X1215Y993D02*
X1219Y993D01*
X1228Y993D02*
X1234Y993D01*
X1275Y993D02*
X1282Y993D01*
X1292Y993D02*
X1298Y993D01*
X2002Y993D02*
X2008Y993D01*
X2030Y993D02*
X2036Y993D01*
X2077Y993D02*
X2085Y993D01*
X2103Y993D02*
X2120Y993D01*
X2128Y993D02*
X2136Y993D01*
X2160Y993D02*
X2166Y993D01*
X2217Y993D02*
X2223Y993D01*
X2243Y993D02*
X2250Y993D01*
X0Y992D02*
X7Y992D01*
X1216Y992D02*
X1218Y992D01*
X1228Y992D02*
X1234Y992D01*
X1276Y992D02*
X1283Y992D01*
X1292Y992D02*
X1298Y992D01*
X2002Y992D02*
X2008Y992D01*
X2030Y992D02*
X2036Y992D01*
X2078Y992D02*
X2085Y992D01*
X2103Y992D02*
X2119Y992D01*
X2129Y992D02*
X2136Y992D01*
X2160Y992D02*
X2166Y992D01*
X2217Y992D02*
X2223Y992D01*
X2243Y992D02*
X2250Y992D01*
X0Y991D02*
X7Y991D01*
X1228Y991D02*
X1234Y991D01*
X1276Y991D02*
X1284Y991D01*
X1292Y991D02*
X1298Y991D01*
X2002Y991D02*
X2008Y991D01*
X2030Y991D02*
X2036Y991D01*
X2079Y991D02*
X2085Y991D01*
X2103Y991D02*
X2118Y991D01*
X2130Y991D02*
X2136Y991D01*
X2160Y991D02*
X2166Y991D01*
X2217Y991D02*
X2223Y991D01*
X2243Y991D02*
X2250Y991D01*
X0Y990D02*
X7Y990D01*
X1228Y990D02*
X1234Y990D01*
X1277Y990D02*
X1284Y990D01*
X1292Y990D02*
X1298Y990D01*
X2002Y990D02*
X2008Y990D01*
X2029Y990D02*
X2036Y990D01*
X2079Y990D02*
X2085Y990D01*
X2103Y990D02*
X2116Y990D01*
X2130Y990D02*
X2136Y990D01*
X2160Y990D02*
X2166Y990D01*
X2217Y990D02*
X2223Y990D01*
X2243Y990D02*
X2250Y990D01*
X0Y989D02*
X7Y989D01*
X1228Y989D02*
X1234Y989D01*
X1278Y989D02*
X1285Y989D01*
X1292Y989D02*
X1298Y989D01*
X2002Y989D02*
X2008Y989D01*
X2028Y989D02*
X2035Y989D01*
X2079Y989D02*
X2085Y989D01*
X2103Y989D02*
X2115Y989D01*
X2130Y989D02*
X2136Y989D01*
X2160Y989D02*
X2166Y989D01*
X2217Y989D02*
X2223Y989D01*
X2243Y989D02*
X2250Y989D01*
X0Y988D02*
X7Y988D01*
X1228Y988D02*
X1234Y988D01*
X1278Y988D02*
X1285Y988D01*
X1292Y988D02*
X1298Y988D01*
X2002Y988D02*
X2035Y988D01*
X2079Y988D02*
X2085Y988D01*
X2103Y988D02*
X2114Y988D01*
X2130Y988D02*
X2136Y988D01*
X2160Y988D02*
X2166Y988D01*
X2217Y988D02*
X2223Y988D01*
X2243Y988D02*
X2250Y988D01*
X0Y987D02*
X7Y987D01*
X1228Y987D02*
X1234Y987D01*
X1278Y987D02*
X1286Y987D01*
X1291Y987D02*
X1298Y987D01*
X2002Y987D02*
X2035Y987D01*
X2079Y987D02*
X2085Y987D01*
X2103Y987D02*
X2113Y987D01*
X2130Y987D02*
X2136Y987D01*
X2160Y987D02*
X2166Y987D01*
X2217Y987D02*
X2223Y987D01*
X2243Y987D02*
X2250Y987D01*
X0Y986D02*
X7Y986D01*
X1228Y986D02*
X1234Y986D01*
X1270Y986D02*
X1298Y986D01*
X2002Y986D02*
X2034Y986D01*
X2079Y986D02*
X2085Y986D01*
X2103Y986D02*
X2112Y986D01*
X2131Y986D02*
X2136Y986D01*
X2160Y986D02*
X2166Y986D01*
X2217Y986D02*
X2223Y986D01*
X2243Y986D02*
X2250Y986D01*
X0Y985D02*
X7Y985D01*
X1228Y985D02*
X1234Y985D01*
X1269Y985D02*
X1298Y985D01*
X2002Y985D02*
X2033Y985D01*
X2059Y985D02*
X2085Y985D01*
X2103Y985D02*
X2111Y985D01*
X2132Y985D02*
X2135Y985D01*
X2160Y985D02*
X2166Y985D01*
X2217Y985D02*
X2223Y985D01*
X2232Y985D02*
X2235Y985D01*
X2243Y985D02*
X2250Y985D01*
X0Y984D02*
X7Y984D01*
X1228Y984D02*
X1234Y984D01*
X1268Y984D02*
X1298Y984D01*
X2002Y984D02*
X2032Y984D01*
X2057Y984D02*
X2085Y984D01*
X2103Y984D02*
X2109Y984D01*
X2160Y984D02*
X2166Y984D01*
X2217Y984D02*
X2223Y984D01*
X2231Y984D02*
X2236Y984D01*
X2243Y984D02*
X2250Y984D01*
X0Y983D02*
X7Y983D01*
X1228Y983D02*
X1234Y983D01*
X1267Y983D02*
X1298Y983D01*
X2002Y983D02*
X2031Y983D01*
X2056Y983D02*
X2085Y983D01*
X2103Y983D02*
X2109Y983D01*
X2160Y983D02*
X2166Y983D01*
X2217Y983D02*
X2223Y983D01*
X2231Y983D02*
X2237Y983D01*
X2243Y983D02*
X2250Y983D01*
X0Y982D02*
X7Y982D01*
X1228Y982D02*
X1234Y982D01*
X1266Y982D02*
X1298Y982D01*
X2002Y982D02*
X2028Y982D01*
X2055Y982D02*
X2086Y982D01*
X2103Y982D02*
X2109Y982D01*
X2160Y982D02*
X2166Y982D01*
X2217Y982D02*
X2223Y982D01*
X2231Y982D02*
X2237Y982D01*
X2243Y982D02*
X2250Y982D01*
X0Y981D02*
X7Y981D01*
X1228Y981D02*
X1234Y981D01*
X1265Y981D02*
X1298Y981D01*
X2002Y981D02*
X2008Y981D01*
X2054Y981D02*
X2086Y981D01*
X2103Y981D02*
X2109Y981D01*
X2160Y981D02*
X2166Y981D01*
X2217Y981D02*
X2223Y981D01*
X2231Y981D02*
X2237Y981D01*
X2243Y981D02*
X2250Y981D01*
X0Y980D02*
X7Y980D01*
X1228Y980D02*
X1234Y980D01*
X1265Y980D02*
X1298Y980D01*
X2002Y980D02*
X2008Y980D01*
X2054Y980D02*
X2086Y980D01*
X2103Y980D02*
X2109Y980D01*
X2160Y980D02*
X2166Y980D01*
X2217Y980D02*
X2223Y980D01*
X2231Y980D02*
X2237Y980D01*
X2243Y980D02*
X2250Y980D01*
X0Y979D02*
X7Y979D01*
X1228Y979D02*
X1234Y979D01*
X1265Y979D02*
X1272Y979D01*
X1292Y979D02*
X1298Y979D01*
X2002Y979D02*
X2008Y979D01*
X2053Y979D02*
X2086Y979D01*
X2103Y979D02*
X2109Y979D01*
X2160Y979D02*
X2166Y979D01*
X2217Y979D02*
X2223Y979D01*
X2231Y979D02*
X2237Y979D01*
X2243Y979D02*
X2250Y979D01*
X0Y978D02*
X7Y978D01*
X1228Y978D02*
X1234Y978D01*
X1264Y978D02*
X1271Y978D01*
X1292Y978D02*
X1298Y978D01*
X2002Y978D02*
X2008Y978D01*
X2053Y978D02*
X2060Y978D01*
X2078Y978D02*
X2086Y978D01*
X2103Y978D02*
X2109Y978D01*
X2160Y978D02*
X2166Y978D01*
X2217Y978D02*
X2223Y978D01*
X2231Y978D02*
X2237Y978D01*
X2243Y978D02*
X2250Y978D01*
X0Y977D02*
X7Y977D01*
X1228Y977D02*
X1234Y977D01*
X1264Y977D02*
X1270Y977D01*
X1292Y977D02*
X1298Y977D01*
X2002Y977D02*
X2008Y977D01*
X2053Y977D02*
X2059Y977D01*
X2079Y977D02*
X2086Y977D01*
X2103Y977D02*
X2109Y977D01*
X2160Y977D02*
X2166Y977D01*
X2217Y977D02*
X2223Y977D01*
X2231Y977D02*
X2237Y977D01*
X2243Y977D02*
X2250Y977D01*
X0Y976D02*
X7Y976D01*
X1228Y976D02*
X1234Y976D01*
X1264Y976D02*
X1270Y976D01*
X1292Y976D02*
X1298Y976D01*
X2002Y976D02*
X2008Y976D01*
X2053Y976D02*
X2059Y976D01*
X2080Y976D02*
X2086Y976D01*
X2103Y976D02*
X2109Y976D01*
X2160Y976D02*
X2166Y976D01*
X2217Y976D02*
X2223Y976D01*
X2231Y976D02*
X2237Y976D01*
X2243Y976D02*
X2250Y976D01*
X0Y975D02*
X7Y975D01*
X1228Y975D02*
X1234Y975D01*
X1264Y975D02*
X1270Y975D01*
X1292Y975D02*
X1298Y975D01*
X2002Y975D02*
X2008Y975D01*
X2053Y975D02*
X2059Y975D01*
X2080Y975D02*
X2086Y975D01*
X2103Y975D02*
X2109Y975D01*
X2160Y975D02*
X2166Y975D01*
X2217Y975D02*
X2223Y975D01*
X2231Y975D02*
X2237Y975D01*
X2243Y975D02*
X2250Y975D01*
X0Y974D02*
X7Y974D01*
X1228Y974D02*
X1234Y974D01*
X1264Y974D02*
X1270Y974D01*
X1292Y974D02*
X1298Y974D01*
X2002Y974D02*
X2008Y974D01*
X2053Y974D02*
X2059Y974D01*
X2080Y974D02*
X2086Y974D01*
X2103Y974D02*
X2109Y974D01*
X2160Y974D02*
X2166Y974D01*
X2217Y974D02*
X2223Y974D01*
X2231Y974D02*
X2237Y974D01*
X2243Y974D02*
X2250Y974D01*
X0Y973D02*
X7Y973D01*
X1228Y973D02*
X1234Y973D01*
X1264Y973D02*
X1270Y973D01*
X1292Y973D02*
X1298Y973D01*
X2002Y973D02*
X2008Y973D01*
X2053Y973D02*
X2059Y973D01*
X2080Y973D02*
X2086Y973D01*
X2103Y973D02*
X2109Y973D01*
X2160Y973D02*
X2166Y973D01*
X2182Y973D02*
X2185Y973D01*
X2217Y973D02*
X2223Y973D01*
X2231Y973D02*
X2237Y973D01*
X2243Y973D02*
X2250Y973D01*
X0Y972D02*
X7Y972D01*
X1228Y972D02*
X1234Y972D01*
X1264Y972D02*
X1270Y972D01*
X1292Y972D02*
X1298Y972D01*
X2002Y972D02*
X2008Y972D01*
X2053Y972D02*
X2059Y972D01*
X2079Y972D02*
X2086Y972D01*
X2103Y972D02*
X2109Y972D01*
X2160Y972D02*
X2166Y972D01*
X2181Y972D02*
X2186Y972D01*
X2217Y972D02*
X2223Y972D01*
X2231Y972D02*
X2237Y972D01*
X2243Y972D02*
X2250Y972D01*
X0Y971D02*
X7Y971D01*
X1228Y971D02*
X1234Y971D01*
X1264Y971D02*
X1271Y971D01*
X1292Y971D02*
X1298Y971D01*
X2002Y971D02*
X2008Y971D01*
X2053Y971D02*
X2059Y971D01*
X2078Y971D02*
X2086Y971D01*
X2103Y971D02*
X2109Y971D01*
X2160Y971D02*
X2166Y971D01*
X2181Y971D02*
X2186Y971D01*
X2217Y971D02*
X2223Y971D01*
X2231Y971D02*
X2237Y971D01*
X2243Y971D02*
X2250Y971D01*
X0Y970D02*
X7Y970D01*
X1228Y970D02*
X1234Y970D01*
X1265Y970D02*
X1272Y970D01*
X1292Y970D02*
X1298Y970D01*
X2002Y970D02*
X2008Y970D01*
X2053Y970D02*
X2059Y970D01*
X2076Y970D02*
X2086Y970D01*
X2103Y970D02*
X2109Y970D01*
X2160Y970D02*
X2166Y970D01*
X2180Y970D02*
X2187Y970D01*
X2217Y970D02*
X2223Y970D01*
X2231Y970D02*
X2237Y970D01*
X2243Y970D02*
X2250Y970D01*
X0Y969D02*
X7Y969D01*
X1228Y969D02*
X1245Y969D01*
X1265Y969D02*
X1298Y969D01*
X2002Y969D02*
X2008Y969D01*
X2053Y969D02*
X2060Y969D01*
X2074Y969D02*
X2086Y969D01*
X2103Y969D02*
X2109Y969D01*
X2160Y969D02*
X2167Y969D01*
X2179Y969D02*
X2186Y969D01*
X2217Y969D02*
X2223Y969D01*
X2231Y969D02*
X2237Y969D01*
X2243Y969D02*
X2250Y969D01*
X0Y968D02*
X7Y968D01*
X1228Y968D02*
X1247Y968D01*
X1265Y968D02*
X1298Y968D01*
X2002Y968D02*
X2008Y968D01*
X2053Y968D02*
X2061Y968D01*
X2072Y968D02*
X2086Y968D01*
X2103Y968D02*
X2109Y968D01*
X2160Y968D02*
X2169Y968D01*
X2178Y968D02*
X2186Y968D01*
X2217Y968D02*
X2223Y968D01*
X2230Y968D02*
X2237Y968D01*
X2243Y968D02*
X2250Y968D01*
X0Y967D02*
X7Y967D01*
X1228Y967D02*
X1247Y967D01*
X1266Y967D02*
X1298Y967D01*
X2002Y967D02*
X2008Y967D01*
X2053Y967D02*
X2086Y967D01*
X2103Y967D02*
X2109Y967D01*
X2161Y967D02*
X2186Y967D01*
X2204Y967D02*
X2237Y967D01*
X2243Y967D02*
X2250Y967D01*
X0Y966D02*
X7Y966D01*
X1228Y966D02*
X1248Y966D01*
X1267Y966D02*
X1298Y966D01*
X2002Y966D02*
X2008Y966D01*
X2054Y966D02*
X2086Y966D01*
X2103Y966D02*
X2109Y966D01*
X2161Y966D02*
X2185Y966D01*
X2204Y966D02*
X2237Y966D01*
X2243Y966D02*
X2250Y966D01*
X0Y965D02*
X7Y965D01*
X1228Y965D02*
X1247Y965D01*
X1268Y965D02*
X1298Y965D01*
X2002Y965D02*
X2008Y965D01*
X2055Y965D02*
X2086Y965D01*
X2103Y965D02*
X2109Y965D01*
X2162Y965D02*
X2184Y965D01*
X2203Y965D02*
X2237Y965D01*
X2243Y965D02*
X2250Y965D01*
X0Y964D02*
X7Y964D01*
X1228Y964D02*
X1247Y964D01*
X1269Y964D02*
X1298Y964D01*
X2002Y964D02*
X2008Y964D01*
X2056Y964D02*
X2086Y964D01*
X2103Y964D02*
X2109Y964D01*
X2163Y964D02*
X2183Y964D01*
X2203Y964D02*
X2237Y964D01*
X2243Y964D02*
X2250Y964D01*
X0Y963D02*
X7Y963D01*
X1228Y963D02*
X1246Y963D01*
X1271Y963D02*
X1298Y963D01*
X2003Y963D02*
X2008Y963D01*
X2057Y963D02*
X2077Y963D01*
X2080Y963D02*
X2086Y963D01*
X2103Y963D02*
X2108Y963D01*
X2164Y963D02*
X2182Y963D01*
X2203Y963D02*
X2236Y963D01*
X2243Y963D02*
X2250Y963D01*
X0Y962D02*
X7Y962D01*
X2003Y962D02*
X2007Y962D01*
X2058Y962D02*
X2075Y962D01*
X2081Y962D02*
X2085Y962D01*
X2104Y962D02*
X2108Y962D01*
X2166Y962D02*
X2181Y962D01*
X2204Y962D02*
X2236Y962D01*
X2243Y962D02*
X2250Y962D01*
X0Y961D02*
X7Y961D01*
X2005Y961D02*
X2005Y961D01*
X2062Y961D02*
X2073Y961D01*
X2083Y961D02*
X2083Y961D01*
X2106Y961D02*
X2106Y961D01*
X2169Y961D02*
X2177Y961D01*
X2206Y961D02*
X2234Y961D01*
X2243Y961D02*
X2250Y961D01*
X0Y960D02*
X7Y960D01*
X2243Y960D02*
X2250Y960D01*
X0Y959D02*
X7Y959D01*
X2243Y959D02*
X2250Y959D01*
X0Y958D02*
X7Y958D01*
X2243Y958D02*
X2250Y958D01*
X0Y957D02*
X7Y957D01*
X2243Y957D02*
X2250Y957D01*
X0Y956D02*
X7Y956D01*
X2243Y956D02*
X2250Y956D01*
X0Y955D02*
X7Y955D01*
X2243Y955D02*
X2250Y955D01*
X0Y954D02*
X7Y954D01*
X2243Y954D02*
X2250Y954D01*
X0Y953D02*
X7Y953D01*
X2243Y953D02*
X2250Y953D01*
X0Y952D02*
X7Y952D01*
X2243Y952D02*
X2250Y952D01*
X0Y951D02*
X7Y951D01*
X2243Y951D02*
X2250Y951D01*
X0Y950D02*
X7Y950D01*
X2243Y950D02*
X2250Y950D01*
X0Y949D02*
X7Y949D01*
X2243Y949D02*
X2250Y949D01*
X0Y948D02*
X7Y948D01*
X2243Y948D02*
X2250Y948D01*
X0Y947D02*
X7Y947D01*
X2243Y947D02*
X2250Y947D01*
X0Y946D02*
X7Y946D01*
X2243Y946D02*
X2250Y946D01*
X0Y945D02*
X7Y945D01*
X2243Y945D02*
X2250Y945D01*
X0Y944D02*
X7Y944D01*
X2243Y944D02*
X2250Y944D01*
X0Y943D02*
X7Y943D01*
X2243Y943D02*
X2250Y943D01*
X0Y942D02*
X7Y942D01*
X2243Y942D02*
X2250Y942D01*
X0Y941D02*
X7Y941D01*
X2243Y941D02*
X2250Y941D01*
X0Y940D02*
X7Y940D01*
X2243Y940D02*
X2250Y940D01*
X0Y939D02*
X7Y939D01*
X2243Y939D02*
X2250Y939D01*
X0Y938D02*
X7Y938D01*
X2243Y938D02*
X2250Y938D01*
X0Y937D02*
X7Y937D01*
X2243Y937D02*
X2250Y937D01*
X0Y936D02*
X7Y936D01*
X2243Y936D02*
X2250Y936D01*
X0Y935D02*
X7Y935D01*
X89Y935D02*
X1899Y935D01*
X2243Y935D02*
X2250Y935D01*
X0Y934D02*
X7Y934D01*
X80Y934D02*
X1909Y934D01*
X2243Y934D02*
X2250Y934D01*
X0Y933D02*
X7Y933D01*
X74Y933D02*
X1914Y933D01*
X2243Y933D02*
X2250Y933D01*
X0Y932D02*
X7Y932D01*
X70Y932D02*
X1918Y932D01*
X2243Y932D02*
X2250Y932D01*
X0Y931D02*
X7Y931D01*
X66Y931D02*
X1922Y931D01*
X2243Y931D02*
X2250Y931D01*
X0Y930D02*
X7Y930D01*
X63Y930D02*
X1925Y930D01*
X2243Y930D02*
X2250Y930D01*
X0Y929D02*
X7Y929D01*
X60Y929D02*
X1928Y929D01*
X2243Y929D02*
X2250Y929D01*
X0Y928D02*
X7Y928D01*
X58Y928D02*
X1931Y928D01*
X2243Y928D02*
X2250Y928D01*
X0Y927D02*
X7Y927D01*
X55Y927D02*
X87Y927D01*
X1901Y927D02*
X1933Y927D01*
X2243Y927D02*
X2250Y927D01*
X0Y926D02*
X7Y926D01*
X53Y926D02*
X79Y926D01*
X1910Y926D02*
X1935Y926D01*
X2243Y926D02*
X2250Y926D01*
X0Y925D02*
X7Y925D01*
X51Y925D02*
X73Y925D01*
X1915Y925D02*
X1937Y925D01*
X2243Y925D02*
X2250Y925D01*
X0Y924D02*
X7Y924D01*
X49Y924D02*
X69Y924D01*
X1919Y924D02*
X1939Y924D01*
X2243Y924D02*
X2250Y924D01*
X0Y923D02*
X7Y923D01*
X47Y923D02*
X66Y923D01*
X1922Y923D02*
X1941Y923D01*
X2243Y923D02*
X2250Y923D01*
X0Y922D02*
X7Y922D01*
X45Y922D02*
X63Y922D01*
X1925Y922D02*
X1943Y922D01*
X2243Y922D02*
X2250Y922D01*
X0Y921D02*
X7Y921D01*
X43Y921D02*
X60Y921D01*
X1928Y921D02*
X1945Y921D01*
X2243Y921D02*
X2250Y921D01*
X0Y920D02*
X7Y920D01*
X42Y920D02*
X58Y920D01*
X1930Y920D02*
X1946Y920D01*
X2243Y920D02*
X2250Y920D01*
X0Y919D02*
X7Y919D01*
X40Y919D02*
X56Y919D01*
X1932Y919D02*
X1948Y919D01*
X2243Y919D02*
X2250Y919D01*
X0Y918D02*
X7Y918D01*
X39Y918D02*
X53Y918D01*
X1935Y918D02*
X1950Y918D01*
X2243Y918D02*
X2250Y918D01*
X0Y917D02*
X7Y917D01*
X37Y917D02*
X51Y917D01*
X1937Y917D02*
X1951Y917D01*
X2243Y917D02*
X2250Y917D01*
X0Y916D02*
X7Y916D01*
X36Y916D02*
X50Y916D01*
X1938Y916D02*
X1952Y916D01*
X2243Y916D02*
X2250Y916D01*
X0Y915D02*
X7Y915D01*
X34Y915D02*
X48Y915D01*
X1940Y915D02*
X1954Y915D01*
X2243Y915D02*
X2250Y915D01*
X0Y914D02*
X7Y914D01*
X33Y914D02*
X46Y914D01*
X1942Y914D02*
X1955Y914D01*
X2243Y914D02*
X2250Y914D01*
X0Y913D02*
X7Y913D01*
X32Y913D02*
X44Y913D01*
X1944Y913D02*
X1956Y913D01*
X2243Y913D02*
X2250Y913D01*
X0Y912D02*
X7Y912D01*
X31Y912D02*
X43Y912D01*
X1945Y912D02*
X1958Y912D01*
X2243Y912D02*
X2250Y912D01*
X0Y911D02*
X7Y911D01*
X29Y911D02*
X41Y911D01*
X1947Y911D02*
X1959Y911D01*
X2243Y911D02*
X2250Y911D01*
X0Y910D02*
X7Y910D01*
X28Y910D02*
X40Y910D01*
X1948Y910D02*
X1960Y910D01*
X2243Y910D02*
X2250Y910D01*
X0Y909D02*
X7Y909D01*
X27Y909D02*
X39Y909D01*
X1949Y909D02*
X1961Y909D01*
X2243Y909D02*
X2250Y909D01*
X0Y908D02*
X7Y908D01*
X26Y908D02*
X37Y908D01*
X1951Y908D02*
X1962Y908D01*
X2243Y908D02*
X2250Y908D01*
X0Y907D02*
X7Y907D01*
X25Y907D02*
X36Y907D01*
X1952Y907D02*
X1963Y907D01*
X2243Y907D02*
X2250Y907D01*
X0Y906D02*
X7Y906D01*
X24Y906D02*
X35Y906D01*
X1953Y906D02*
X1964Y906D01*
X2243Y906D02*
X2250Y906D01*
X0Y905D02*
X7Y905D01*
X23Y905D02*
X34Y905D01*
X1954Y905D02*
X1965Y905D01*
X2243Y905D02*
X2250Y905D01*
X0Y904D02*
X7Y904D01*
X22Y904D02*
X33Y904D01*
X1955Y904D02*
X1966Y904D01*
X2243Y904D02*
X2250Y904D01*
X0Y903D02*
X7Y903D01*
X21Y903D02*
X32Y903D01*
X1888Y903D02*
X1899Y903D01*
X1957Y903D02*
X1967Y903D01*
X2243Y903D02*
X2250Y903D01*
X0Y902D02*
X7Y902D01*
X20Y902D02*
X30Y902D01*
X1883Y902D02*
X1904Y902D01*
X1958Y902D02*
X1968Y902D01*
X2243Y902D02*
X2250Y902D01*
X0Y901D02*
X7Y901D01*
X19Y901D02*
X29Y901D01*
X1880Y901D02*
X1907Y901D01*
X1959Y901D02*
X1969Y901D01*
X2243Y901D02*
X2250Y901D01*
X0Y900D02*
X7Y900D01*
X18Y900D02*
X28Y900D01*
X1877Y900D02*
X1910Y900D01*
X1960Y900D02*
X1970Y900D01*
X2243Y900D02*
X2250Y900D01*
X0Y899D02*
X7Y899D01*
X18Y899D02*
X27Y899D01*
X1875Y899D02*
X1912Y899D01*
X1961Y899D02*
X1971Y899D01*
X2243Y899D02*
X2250Y899D01*
X0Y898D02*
X7Y898D01*
X17Y898D02*
X26Y898D01*
X1873Y898D02*
X1914Y898D01*
X1962Y898D02*
X1971Y898D01*
X2243Y898D02*
X2250Y898D01*
X0Y897D02*
X7Y897D01*
X16Y897D02*
X26Y897D01*
X1871Y897D02*
X1915Y897D01*
X1963Y897D02*
X1972Y897D01*
X2243Y897D02*
X2250Y897D01*
X0Y896D02*
X7Y896D01*
X15Y896D02*
X25Y896D01*
X1870Y896D02*
X1917Y896D01*
X1963Y896D02*
X1973Y896D01*
X2243Y896D02*
X2250Y896D01*
X0Y895D02*
X7Y895D01*
X14Y895D02*
X24Y895D01*
X1868Y895D02*
X1887Y895D01*
X1899Y895D02*
X1918Y895D01*
X1964Y895D02*
X1974Y895D01*
X2243Y895D02*
X2250Y895D01*
X0Y894D02*
X7Y894D01*
X14Y894D02*
X23Y894D01*
X1867Y894D02*
X1883Y894D01*
X1904Y894D02*
X1920Y894D01*
X1965Y894D02*
X1974Y894D01*
X2243Y894D02*
X2250Y894D01*
X0Y893D02*
X7Y893D01*
X13Y893D02*
X22Y893D01*
X1866Y893D02*
X1880Y893D01*
X1907Y893D02*
X1921Y893D01*
X1966Y893D02*
X1975Y893D01*
X2243Y893D02*
X2250Y893D01*
X0Y892D02*
X7Y892D01*
X12Y892D02*
X21Y892D01*
X1865Y892D02*
X1878Y892D01*
X1909Y892D02*
X1922Y892D01*
X1967Y892D02*
X1976Y892D01*
X2243Y892D02*
X2250Y892D01*
X0Y891D02*
X7Y891D01*
X12Y891D02*
X20Y891D01*
X1864Y891D02*
X1876Y891D01*
X1911Y891D02*
X1923Y891D01*
X1968Y891D02*
X1976Y891D01*
X2243Y891D02*
X2250Y891D01*
X0Y890D02*
X7Y890D01*
X11Y890D02*
X20Y890D01*
X1863Y890D02*
X1874Y890D01*
X1913Y890D02*
X1924Y890D01*
X1968Y890D02*
X1977Y890D01*
X2243Y890D02*
X2250Y890D01*
X0Y889D02*
X7Y889D01*
X10Y889D02*
X19Y889D01*
X1862Y889D02*
X1873Y889D01*
X1914Y889D02*
X1925Y889D01*
X1969Y889D02*
X1978Y889D01*
X2243Y889D02*
X2250Y889D01*
X0Y888D02*
X7Y888D01*
X10Y888D02*
X18Y888D01*
X1861Y888D02*
X1871Y888D01*
X1916Y888D02*
X1926Y888D01*
X1970Y888D02*
X1978Y888D01*
X2243Y888D02*
X2250Y888D01*
X0Y887D02*
X7Y887D01*
X9Y887D02*
X18Y887D01*
X1860Y887D02*
X1870Y887D01*
X1917Y887D02*
X1927Y887D01*
X1971Y887D02*
X1979Y887D01*
X2243Y887D02*
X2250Y887D01*
X0Y886D02*
X17Y886D01*
X1859Y886D02*
X1869Y886D01*
X1918Y886D02*
X1928Y886D01*
X1971Y886D02*
X1980Y886D01*
X2243Y886D02*
X2250Y886D01*
X0Y885D02*
X16Y885D01*
X1859Y885D02*
X1868Y885D01*
X1919Y885D02*
X1928Y885D01*
X1972Y885D02*
X1980Y885D01*
X2243Y885D02*
X2250Y885D01*
X0Y884D02*
X16Y884D01*
X1858Y884D02*
X1867Y884D01*
X1920Y884D02*
X1929Y884D01*
X1972Y884D02*
X1981Y884D01*
X2243Y884D02*
X2250Y884D01*
X0Y883D02*
X15Y883D01*
X1857Y883D02*
X1866Y883D01*
X1921Y883D02*
X1930Y883D01*
X1973Y883D02*
X1981Y883D01*
X2243Y883D02*
X2250Y883D01*
X0Y882D02*
X14Y882D01*
X1857Y882D02*
X1865Y882D01*
X1922Y882D02*
X1930Y882D01*
X1974Y882D02*
X1982Y882D01*
X2243Y882D02*
X2250Y882D01*
X0Y881D02*
X14Y881D01*
X1856Y881D02*
X1864Y881D01*
X1922Y881D02*
X1931Y881D01*
X1974Y881D02*
X1982Y881D01*
X2243Y881D02*
X2250Y881D01*
X0Y880D02*
X13Y880D01*
X1856Y880D02*
X1864Y880D01*
X1923Y880D02*
X1931Y880D01*
X1975Y880D02*
X1983Y880D01*
X2243Y880D02*
X2250Y880D01*
X0Y879D02*
X13Y879D01*
X1855Y879D02*
X1863Y879D01*
X1924Y879D02*
X1932Y879D01*
X1975Y879D02*
X1983Y879D01*
X2243Y879D02*
X2250Y879D01*
X0Y878D02*
X12Y878D01*
X1855Y878D02*
X1862Y878D01*
X1924Y878D02*
X1932Y878D01*
X1976Y878D02*
X1984Y878D01*
X2243Y878D02*
X2250Y878D01*
X0Y877D02*
X12Y877D01*
X1854Y877D02*
X1862Y877D01*
X1925Y877D02*
X1933Y877D01*
X1977Y877D02*
X1984Y877D01*
X2243Y877D02*
X2250Y877D01*
X0Y876D02*
X11Y876D01*
X1854Y876D02*
X1861Y876D01*
X1925Y876D02*
X1933Y876D01*
X1977Y876D02*
X1985Y876D01*
X2243Y876D02*
X2250Y876D01*
X0Y875D02*
X11Y875D01*
X1853Y875D02*
X1861Y875D01*
X1926Y875D02*
X1933Y875D01*
X1977Y875D02*
X1985Y875D01*
X2243Y875D02*
X2250Y875D01*
X0Y874D02*
X10Y874D01*
X1853Y874D02*
X1860Y874D01*
X1926Y874D02*
X1934Y874D01*
X1978Y874D02*
X1986Y874D01*
X2243Y874D02*
X2250Y874D01*
X0Y873D02*
X10Y873D01*
X1853Y873D02*
X1860Y873D01*
X1927Y873D02*
X1934Y873D01*
X1978Y873D02*
X1986Y873D01*
X2243Y873D02*
X2250Y873D01*
X0Y872D02*
X9Y872D01*
X1852Y872D02*
X1860Y872D01*
X1927Y872D02*
X1934Y872D01*
X1979Y872D02*
X1986Y872D01*
X2243Y872D02*
X2250Y872D01*
X0Y871D02*
X9Y871D01*
X1852Y871D02*
X1859Y871D01*
X1928Y871D02*
X1935Y871D01*
X1979Y871D02*
X1987Y871D01*
X2243Y871D02*
X2250Y871D01*
X0Y870D02*
X8Y870D01*
X1852Y870D02*
X1859Y870D01*
X1928Y870D02*
X1935Y870D01*
X1980Y870D02*
X1987Y870D01*
X2243Y870D02*
X2250Y870D01*
X0Y869D02*
X8Y869D01*
X1852Y869D02*
X1859Y869D01*
X1928Y869D02*
X1935Y869D01*
X1980Y869D02*
X1988Y869D01*
X2243Y869D02*
X2250Y869D01*
X0Y868D02*
X8Y868D01*
X1851Y868D02*
X1858Y868D01*
X1928Y868D02*
X1935Y868D01*
X1981Y868D02*
X1988Y868D01*
X2243Y868D02*
X2250Y868D01*
X0Y867D02*
X7Y867D01*
X1851Y867D02*
X1858Y867D01*
X1929Y867D02*
X1936Y867D01*
X1981Y867D02*
X1988Y867D01*
X2243Y867D02*
X2250Y867D01*
X0Y866D02*
X7Y866D01*
X1851Y866D02*
X1858Y866D01*
X1929Y866D02*
X1936Y866D01*
X1981Y866D02*
X1989Y866D01*
X2243Y866D02*
X2250Y866D01*
X0Y865D02*
X7Y865D01*
X1851Y865D02*
X1858Y865D01*
X1929Y865D02*
X1936Y865D01*
X1982Y865D02*
X1989Y865D01*
X2243Y865D02*
X2250Y865D01*
X0Y864D02*
X7Y864D01*
X1851Y864D02*
X1858Y864D01*
X1929Y864D02*
X1936Y864D01*
X1982Y864D02*
X1989Y864D01*
X2243Y864D02*
X2250Y864D01*
X0Y863D02*
X7Y863D01*
X1851Y863D02*
X1858Y863D01*
X1929Y863D02*
X1936Y863D01*
X1982Y863D02*
X1990Y863D01*
X2243Y863D02*
X2250Y863D01*
X0Y862D02*
X7Y862D01*
X1851Y862D02*
X1858Y862D01*
X1929Y862D02*
X1936Y862D01*
X1983Y862D02*
X1990Y862D01*
X2243Y862D02*
X2250Y862D01*
X0Y861D02*
X7Y861D01*
X1851Y861D02*
X1858Y861D01*
X1929Y861D02*
X1936Y861D01*
X1983Y861D02*
X1990Y861D01*
X2243Y861D02*
X2250Y861D01*
X0Y860D02*
X7Y860D01*
X1851Y860D02*
X1858Y860D01*
X1929Y860D02*
X1936Y860D01*
X1983Y860D02*
X1990Y860D01*
X2243Y860D02*
X2250Y860D01*
X0Y859D02*
X7Y859D01*
X1851Y859D02*
X1858Y859D01*
X1929Y859D02*
X1936Y859D01*
X1983Y859D02*
X1991Y859D01*
X2243Y859D02*
X2250Y859D01*
X0Y858D02*
X7Y858D01*
X1851Y858D02*
X1858Y858D01*
X1929Y858D02*
X1936Y858D01*
X1984Y858D02*
X1991Y858D01*
X2243Y858D02*
X2250Y858D01*
X0Y857D02*
X7Y857D01*
X1851Y857D02*
X1858Y857D01*
X1929Y857D02*
X1936Y857D01*
X1984Y857D02*
X1991Y857D01*
X2243Y857D02*
X2250Y857D01*
X0Y856D02*
X7Y856D01*
X1851Y856D02*
X1858Y856D01*
X1929Y856D02*
X1936Y856D01*
X1984Y856D02*
X1991Y856D01*
X2243Y856D02*
X2250Y856D01*
X0Y855D02*
X7Y855D01*
X1851Y855D02*
X1858Y855D01*
X1929Y855D02*
X1936Y855D01*
X1984Y855D02*
X1991Y855D01*
X2243Y855D02*
X2250Y855D01*
X0Y854D02*
X7Y854D01*
X1851Y854D02*
X1858Y854D01*
X1929Y854D02*
X1936Y854D01*
X1985Y854D02*
X1992Y854D01*
X2243Y854D02*
X2250Y854D01*
X0Y853D02*
X7Y853D01*
X1851Y853D02*
X1858Y853D01*
X1929Y853D02*
X1936Y853D01*
X1985Y853D02*
X1992Y853D01*
X2243Y853D02*
X2250Y853D01*
X0Y852D02*
X7Y852D01*
X1851Y852D02*
X1859Y852D01*
X1928Y852D02*
X1935Y852D01*
X1985Y852D02*
X1992Y852D01*
X2243Y852D02*
X2250Y852D01*
X0Y851D02*
X7Y851D01*
X1852Y851D02*
X1859Y851D01*
X1928Y851D02*
X1935Y851D01*
X1985Y851D02*
X1992Y851D01*
X2243Y851D02*
X2250Y851D01*
X0Y850D02*
X7Y850D01*
X1852Y850D02*
X1859Y850D01*
X1928Y850D02*
X1935Y850D01*
X1985Y850D02*
X1992Y850D01*
X2243Y850D02*
X2250Y850D01*
X0Y849D02*
X7Y849D01*
X1852Y849D02*
X1859Y849D01*
X1927Y849D02*
X1935Y849D01*
X1986Y849D02*
X1993Y849D01*
X2243Y849D02*
X2250Y849D01*
X0Y848D02*
X7Y848D01*
X1852Y848D02*
X1860Y848D01*
X1927Y848D02*
X1934Y848D01*
X1986Y848D02*
X1993Y848D01*
X2243Y848D02*
X2250Y848D01*
X0Y847D02*
X7Y847D01*
X1853Y847D02*
X1860Y847D01*
X1927Y847D02*
X1934Y847D01*
X1986Y847D02*
X1993Y847D01*
X2243Y847D02*
X2250Y847D01*
X0Y846D02*
X7Y846D01*
X1853Y846D02*
X1860Y846D01*
X1926Y846D02*
X1934Y846D01*
X1986Y846D02*
X1993Y846D01*
X2243Y846D02*
X2250Y846D01*
X0Y845D02*
X7Y845D01*
X1853Y845D02*
X1861Y845D01*
X1926Y845D02*
X1933Y845D01*
X1986Y845D02*
X1993Y845D01*
X2243Y845D02*
X2250Y845D01*
X0Y844D02*
X7Y844D01*
X1854Y844D02*
X1861Y844D01*
X1925Y844D02*
X1933Y844D01*
X1986Y844D02*
X1993Y844D01*
X2243Y844D02*
X2250Y844D01*
X0Y843D02*
X7Y843D01*
X1854Y843D02*
X1862Y843D01*
X1925Y843D02*
X1933Y843D01*
X1986Y843D02*
X1993Y843D01*
X2243Y843D02*
X2250Y843D01*
X0Y842D02*
X7Y842D01*
X1855Y842D02*
X1863Y842D01*
X1924Y842D02*
X1932Y842D01*
X1986Y842D02*
X1993Y842D01*
X2243Y842D02*
X2250Y842D01*
X0Y841D02*
X7Y841D01*
X1855Y841D02*
X1863Y841D01*
X1924Y841D02*
X1932Y841D01*
X1986Y841D02*
X1993Y841D01*
X2243Y841D02*
X2250Y841D01*
X0Y840D02*
X7Y840D01*
X1856Y840D02*
X1864Y840D01*
X1923Y840D02*
X1931Y840D01*
X1986Y840D02*
X1993Y840D01*
X2243Y840D02*
X2250Y840D01*
X0Y839D02*
X7Y839D01*
X1856Y839D02*
X1865Y839D01*
X1922Y839D02*
X1931Y839D01*
X1986Y839D02*
X1993Y839D01*
X2243Y839D02*
X2250Y839D01*
X0Y838D02*
X7Y838D01*
X1857Y838D02*
X1865Y838D01*
X1921Y838D02*
X1930Y838D01*
X1986Y838D02*
X1993Y838D01*
X2243Y838D02*
X2250Y838D01*
X0Y837D02*
X7Y837D01*
X1857Y837D02*
X1866Y837D01*
X1921Y837D02*
X1929Y837D01*
X1987Y837D02*
X1994Y837D01*
X2243Y837D02*
X2250Y837D01*
X0Y836D02*
X7Y836D01*
X1858Y836D02*
X1867Y836D01*
X1920Y836D02*
X1929Y836D01*
X1987Y836D02*
X1994Y836D01*
X2243Y836D02*
X2250Y836D01*
X0Y835D02*
X7Y835D01*
X1859Y835D02*
X1868Y835D01*
X1919Y835D02*
X1928Y835D01*
X1987Y835D02*
X1994Y835D01*
X2243Y835D02*
X2250Y835D01*
X0Y834D02*
X7Y834D01*
X1859Y834D02*
X1869Y834D01*
X1918Y834D02*
X1927Y834D01*
X1986Y834D02*
X1993Y834D01*
X2243Y834D02*
X2250Y834D01*
X0Y833D02*
X7Y833D01*
X1860Y833D02*
X1870Y833D01*
X1916Y833D02*
X1927Y833D01*
X1986Y833D02*
X1993Y833D01*
X2243Y833D02*
X2250Y833D01*
X0Y832D02*
X7Y832D01*
X1861Y832D02*
X1872Y832D01*
X1915Y832D02*
X1926Y832D01*
X1986Y832D02*
X1994Y832D01*
X2243Y832D02*
X2250Y832D01*
X0Y831D02*
X7Y831D01*
X1862Y831D02*
X1873Y831D01*
X1914Y831D02*
X1925Y831D01*
X1986Y831D02*
X1993Y831D01*
X2243Y831D02*
X2250Y831D01*
X0Y830D02*
X7Y830D01*
X1863Y830D02*
X1875Y830D01*
X1912Y830D02*
X1924Y830D01*
X1986Y830D02*
X1993Y830D01*
X2243Y830D02*
X2250Y830D01*
X0Y829D02*
X7Y829D01*
X1864Y829D02*
X1876Y829D01*
X1911Y829D02*
X1923Y829D01*
X1986Y829D02*
X1993Y829D01*
X2243Y829D02*
X2250Y829D01*
X0Y828D02*
X7Y828D01*
X1865Y828D02*
X1878Y828D01*
X1909Y828D02*
X1922Y828D01*
X1986Y828D02*
X1993Y828D01*
X2243Y828D02*
X2250Y828D01*
X0Y827D02*
X7Y827D01*
X1866Y827D02*
X1881Y827D01*
X1906Y827D02*
X1921Y827D01*
X1986Y827D02*
X1993Y827D01*
X2243Y827D02*
X2250Y827D01*
X0Y826D02*
X7Y826D01*
X1867Y826D02*
X1884Y826D01*
X1903Y826D02*
X1919Y826D01*
X1986Y826D02*
X1993Y826D01*
X2243Y826D02*
X2250Y826D01*
X0Y825D02*
X7Y825D01*
X1869Y825D02*
X1890Y825D01*
X1897Y825D02*
X1918Y825D01*
X1986Y825D02*
X1993Y825D01*
X2243Y825D02*
X2250Y825D01*
X0Y824D02*
X7Y824D01*
X1870Y824D02*
X1917Y824D01*
X1986Y824D02*
X1993Y824D01*
X2243Y824D02*
X2250Y824D01*
X0Y823D02*
X7Y823D01*
X1872Y823D02*
X1915Y823D01*
X1986Y823D02*
X1993Y823D01*
X2243Y823D02*
X2250Y823D01*
X0Y822D02*
X7Y822D01*
X1874Y822D02*
X1913Y822D01*
X1986Y822D02*
X1993Y822D01*
X2243Y822D02*
X2250Y822D01*
X0Y821D02*
X7Y821D01*
X1876Y821D02*
X1911Y821D01*
X1986Y821D02*
X1993Y821D01*
X2243Y821D02*
X2250Y821D01*
X0Y820D02*
X7Y820D01*
X1878Y820D02*
X1909Y820D01*
X1986Y820D02*
X1993Y820D01*
X2243Y820D02*
X2250Y820D01*
X0Y819D02*
X7Y819D01*
X1881Y819D02*
X1906Y819D01*
X1986Y819D02*
X1993Y819D01*
X2243Y819D02*
X2250Y819D01*
X0Y818D02*
X7Y818D01*
X1884Y818D02*
X1903Y818D01*
X1986Y818D02*
X1993Y818D01*
X2243Y818D02*
X2250Y818D01*
X0Y817D02*
X7Y817D01*
X1891Y817D02*
X1896Y817D01*
X1986Y817D02*
X1993Y817D01*
X2243Y817D02*
X2250Y817D01*
X0Y816D02*
X7Y816D01*
X1986Y816D02*
X1993Y816D01*
X2243Y816D02*
X2250Y816D01*
X0Y815D02*
X7Y815D01*
X1986Y815D02*
X1993Y815D01*
X2243Y815D02*
X2250Y815D01*
X0Y814D02*
X7Y814D01*
X1986Y814D02*
X1993Y814D01*
X2243Y814D02*
X2250Y814D01*
X0Y813D02*
X7Y813D01*
X1986Y813D02*
X1993Y813D01*
X2243Y813D02*
X2250Y813D01*
X0Y812D02*
X7Y812D01*
X1986Y812D02*
X1993Y812D01*
X2243Y812D02*
X2250Y812D01*
X0Y811D02*
X7Y811D01*
X1986Y811D02*
X1993Y811D01*
X2243Y811D02*
X2250Y811D01*
X0Y810D02*
X7Y810D01*
X1986Y810D02*
X1993Y810D01*
X2243Y810D02*
X2250Y810D01*
X0Y809D02*
X7Y809D01*
X1986Y809D02*
X1993Y809D01*
X2243Y809D02*
X2250Y809D01*
X0Y808D02*
X7Y808D01*
X1986Y808D02*
X1993Y808D01*
X2243Y808D02*
X2250Y808D01*
X0Y807D02*
X7Y807D01*
X1986Y807D02*
X1993Y807D01*
X2243Y807D02*
X2250Y807D01*
X0Y806D02*
X7Y806D01*
X1986Y806D02*
X1993Y806D01*
X2243Y806D02*
X2250Y806D01*
X0Y805D02*
X7Y805D01*
X1986Y805D02*
X1993Y805D01*
X2243Y805D02*
X2250Y805D01*
X0Y804D02*
X7Y804D01*
X1986Y804D02*
X1993Y804D01*
X2243Y804D02*
X2250Y804D01*
X0Y803D02*
X7Y803D01*
X1986Y803D02*
X1993Y803D01*
X2243Y803D02*
X2250Y803D01*
X0Y802D02*
X7Y802D01*
X1986Y802D02*
X1993Y802D01*
X2243Y802D02*
X2250Y802D01*
X0Y801D02*
X7Y801D01*
X1986Y801D02*
X1993Y801D01*
X2243Y801D02*
X2250Y801D01*
X0Y800D02*
X7Y800D01*
X1986Y800D02*
X1993Y800D01*
X2243Y800D02*
X2250Y800D01*
X0Y799D02*
X7Y799D01*
X1986Y799D02*
X1993Y799D01*
X2243Y799D02*
X2250Y799D01*
X0Y798D02*
X7Y798D01*
X1986Y798D02*
X1993Y798D01*
X2243Y798D02*
X2250Y798D01*
X0Y797D02*
X7Y797D01*
X1986Y797D02*
X1993Y797D01*
X2243Y797D02*
X2250Y797D01*
X0Y796D02*
X7Y796D01*
X1986Y796D02*
X1993Y796D01*
X2243Y796D02*
X2250Y796D01*
X0Y795D02*
X7Y795D01*
X1986Y795D02*
X1993Y795D01*
X2243Y795D02*
X2250Y795D01*
X0Y794D02*
X7Y794D01*
X1986Y794D02*
X1993Y794D01*
X2243Y794D02*
X2250Y794D01*
X0Y793D02*
X7Y793D01*
X1986Y793D02*
X1993Y793D01*
X2243Y793D02*
X2250Y793D01*
X0Y792D02*
X7Y792D01*
X1986Y792D02*
X1993Y792D01*
X2243Y792D02*
X2250Y792D01*
X0Y791D02*
X7Y791D01*
X1986Y791D02*
X1993Y791D01*
X2243Y791D02*
X2250Y791D01*
X0Y790D02*
X7Y790D01*
X1986Y790D02*
X1993Y790D01*
X2243Y790D02*
X2250Y790D01*
X0Y789D02*
X7Y789D01*
X1986Y789D02*
X1993Y789D01*
X2243Y789D02*
X2250Y789D01*
X0Y788D02*
X7Y788D01*
X1986Y788D02*
X1993Y788D01*
X2243Y788D02*
X2250Y788D01*
X0Y787D02*
X7Y787D01*
X1986Y787D02*
X1993Y787D01*
X2243Y787D02*
X2250Y787D01*
X0Y786D02*
X7Y786D01*
X1986Y786D02*
X1993Y786D01*
X2243Y786D02*
X2250Y786D01*
X0Y785D02*
X7Y785D01*
X1986Y785D02*
X1993Y785D01*
X2243Y785D02*
X2250Y785D01*
X0Y784D02*
X7Y784D01*
X1986Y784D02*
X1993Y784D01*
X2243Y784D02*
X2250Y784D01*
X0Y783D02*
X7Y783D01*
X1986Y783D02*
X1993Y783D01*
X2243Y783D02*
X2250Y783D01*
X0Y782D02*
X7Y782D01*
X1986Y782D02*
X1993Y782D01*
X2243Y782D02*
X2250Y782D01*
X0Y781D02*
X7Y781D01*
X1986Y781D02*
X1993Y781D01*
X2243Y781D02*
X2250Y781D01*
X0Y780D02*
X7Y780D01*
X1986Y780D02*
X1993Y780D01*
X2243Y780D02*
X2250Y780D01*
X0Y779D02*
X7Y779D01*
X1986Y779D02*
X1993Y779D01*
X2243Y779D02*
X2250Y779D01*
X0Y778D02*
X7Y778D01*
X1986Y778D02*
X1993Y778D01*
X2243Y778D02*
X2250Y778D01*
X0Y777D02*
X7Y777D01*
X1986Y777D02*
X1993Y777D01*
X2243Y777D02*
X2250Y777D01*
X0Y776D02*
X7Y776D01*
X1986Y776D02*
X1993Y776D01*
X2243Y776D02*
X2250Y776D01*
X0Y775D02*
X7Y775D01*
X1986Y775D02*
X1993Y775D01*
X2243Y775D02*
X2250Y775D01*
X0Y774D02*
X7Y774D01*
X1986Y774D02*
X1993Y774D01*
X2243Y774D02*
X2250Y774D01*
X0Y773D02*
X7Y773D01*
X1986Y773D02*
X1993Y773D01*
X2243Y773D02*
X2250Y773D01*
X0Y772D02*
X7Y772D01*
X1986Y772D02*
X1993Y772D01*
X2243Y772D02*
X2250Y772D01*
X0Y771D02*
X7Y771D01*
X1986Y771D02*
X1993Y771D01*
X2243Y771D02*
X2250Y771D01*
X0Y770D02*
X7Y770D01*
X1986Y770D02*
X1993Y770D01*
X2243Y770D02*
X2250Y770D01*
X0Y769D02*
X7Y769D01*
X1986Y769D02*
X1993Y769D01*
X2243Y769D02*
X2250Y769D01*
X0Y768D02*
X7Y768D01*
X1986Y768D02*
X1993Y768D01*
X2243Y768D02*
X2250Y768D01*
X0Y767D02*
X7Y767D01*
X1986Y767D02*
X1993Y767D01*
X2243Y767D02*
X2250Y767D01*
X0Y766D02*
X7Y766D01*
X1986Y766D02*
X1993Y766D01*
X2243Y766D02*
X2250Y766D01*
X0Y765D02*
X7Y765D01*
X1986Y765D02*
X1993Y765D01*
X2243Y765D02*
X2250Y765D01*
X0Y764D02*
X7Y764D01*
X1986Y764D02*
X1993Y764D01*
X2243Y764D02*
X2250Y764D01*
X0Y763D02*
X7Y763D01*
X1986Y763D02*
X1993Y763D01*
X2243Y763D02*
X2250Y763D01*
X0Y762D02*
X7Y762D01*
X1986Y762D02*
X1993Y762D01*
X2243Y762D02*
X2250Y762D01*
X0Y761D02*
X7Y761D01*
X1986Y761D02*
X1993Y761D01*
X2243Y761D02*
X2250Y761D01*
X0Y760D02*
X7Y760D01*
X1986Y760D02*
X1993Y760D01*
X2243Y760D02*
X2250Y760D01*
X0Y759D02*
X7Y759D01*
X1986Y759D02*
X1993Y759D01*
X2243Y759D02*
X2250Y759D01*
X0Y758D02*
X7Y758D01*
X1986Y758D02*
X1993Y758D01*
X2243Y758D02*
X2250Y758D01*
X0Y757D02*
X7Y757D01*
X1986Y757D02*
X1993Y757D01*
X2243Y757D02*
X2250Y757D01*
X0Y756D02*
X7Y756D01*
X1986Y756D02*
X1993Y756D01*
X2243Y756D02*
X2250Y756D01*
X0Y755D02*
X7Y755D01*
X1986Y755D02*
X1993Y755D01*
X2243Y755D02*
X2250Y755D01*
X0Y754D02*
X7Y754D01*
X1986Y754D02*
X1993Y754D01*
X2243Y754D02*
X2250Y754D01*
X0Y753D02*
X7Y753D01*
X1986Y753D02*
X1993Y753D01*
X2243Y753D02*
X2250Y753D01*
X0Y752D02*
X7Y752D01*
X1986Y752D02*
X1993Y752D01*
X2243Y752D02*
X2250Y752D01*
X0Y751D02*
X7Y751D01*
X1986Y751D02*
X1993Y751D01*
X2243Y751D02*
X2250Y751D01*
X0Y750D02*
X7Y750D01*
X1986Y750D02*
X1993Y750D01*
X2243Y750D02*
X2250Y750D01*
X0Y749D02*
X7Y749D01*
X1986Y749D02*
X1993Y749D01*
X2243Y749D02*
X2250Y749D01*
X0Y748D02*
X7Y748D01*
X1986Y748D02*
X1993Y748D01*
X2243Y748D02*
X2250Y748D01*
X0Y747D02*
X7Y747D01*
X1986Y747D02*
X1993Y747D01*
X2243Y747D02*
X2250Y747D01*
X0Y746D02*
X7Y746D01*
X1986Y746D02*
X1993Y746D01*
X2243Y746D02*
X2250Y746D01*
X0Y745D02*
X7Y745D01*
X1986Y745D02*
X1993Y745D01*
X2243Y745D02*
X2250Y745D01*
X0Y744D02*
X7Y744D01*
X1986Y744D02*
X1993Y744D01*
X2243Y744D02*
X2250Y744D01*
X0Y743D02*
X7Y743D01*
X1986Y743D02*
X1993Y743D01*
X2243Y743D02*
X2250Y743D01*
X0Y742D02*
X7Y742D01*
X1986Y742D02*
X1993Y742D01*
X2243Y742D02*
X2250Y742D01*
X0Y741D02*
X7Y741D01*
X1986Y741D02*
X1993Y741D01*
X2243Y741D02*
X2250Y741D01*
X0Y740D02*
X7Y740D01*
X1986Y740D02*
X1993Y740D01*
X2243Y740D02*
X2250Y740D01*
X0Y739D02*
X7Y739D01*
X1986Y739D02*
X1993Y739D01*
X2243Y739D02*
X2250Y739D01*
X0Y738D02*
X7Y738D01*
X1986Y738D02*
X1993Y738D01*
X2243Y738D02*
X2250Y738D01*
X0Y737D02*
X7Y737D01*
X1986Y737D02*
X1993Y737D01*
X2243Y737D02*
X2250Y737D01*
X0Y736D02*
X7Y736D01*
X1986Y736D02*
X1993Y736D01*
X2243Y736D02*
X2250Y736D01*
X0Y735D02*
X7Y735D01*
X1986Y735D02*
X1993Y735D01*
X2243Y735D02*
X2250Y735D01*
X0Y734D02*
X7Y734D01*
X1986Y734D02*
X1993Y734D01*
X2243Y734D02*
X2250Y734D01*
X0Y733D02*
X7Y733D01*
X1986Y733D02*
X1993Y733D01*
X2243Y733D02*
X2250Y733D01*
X0Y732D02*
X7Y732D01*
X1986Y732D02*
X1993Y732D01*
X2243Y732D02*
X2250Y732D01*
X0Y731D02*
X7Y731D01*
X1986Y731D02*
X1993Y731D01*
X2243Y731D02*
X2250Y731D01*
X0Y730D02*
X7Y730D01*
X1986Y730D02*
X1993Y730D01*
X2243Y730D02*
X2250Y730D01*
X0Y729D02*
X7Y729D01*
X1986Y729D02*
X1993Y729D01*
X2243Y729D02*
X2250Y729D01*
X0Y728D02*
X7Y728D01*
X1986Y728D02*
X1993Y728D01*
X2243Y728D02*
X2250Y728D01*
X0Y727D02*
X7Y727D01*
X1986Y727D02*
X1993Y727D01*
X2243Y727D02*
X2250Y727D01*
X0Y726D02*
X7Y726D01*
X1986Y726D02*
X1993Y726D01*
X2243Y726D02*
X2250Y726D01*
X0Y725D02*
X7Y725D01*
X1986Y725D02*
X1993Y725D01*
X2243Y725D02*
X2250Y725D01*
X0Y724D02*
X7Y724D01*
X1986Y724D02*
X1993Y724D01*
X2243Y724D02*
X2250Y724D01*
X0Y723D02*
X7Y723D01*
X1986Y723D02*
X1993Y723D01*
X2243Y723D02*
X2250Y723D01*
X0Y722D02*
X7Y722D01*
X1986Y722D02*
X1993Y722D01*
X2243Y722D02*
X2250Y722D01*
X0Y721D02*
X7Y721D01*
X1986Y721D02*
X1993Y721D01*
X2243Y721D02*
X2250Y721D01*
X0Y720D02*
X7Y720D01*
X1986Y720D02*
X1993Y720D01*
X2243Y720D02*
X2250Y720D01*
X0Y719D02*
X7Y719D01*
X1986Y719D02*
X1993Y719D01*
X2243Y719D02*
X2250Y719D01*
X0Y718D02*
X7Y718D01*
X1986Y718D02*
X1993Y718D01*
X2243Y718D02*
X2250Y718D01*
X0Y717D02*
X7Y717D01*
X1986Y717D02*
X1993Y717D01*
X2243Y717D02*
X2250Y717D01*
X0Y716D02*
X7Y716D01*
X1986Y716D02*
X1993Y716D01*
X2243Y716D02*
X2250Y716D01*
X0Y715D02*
X7Y715D01*
X1986Y715D02*
X1993Y715D01*
X2243Y715D02*
X2250Y715D01*
X0Y714D02*
X7Y714D01*
X1986Y714D02*
X1993Y714D01*
X2243Y714D02*
X2250Y714D01*
X0Y713D02*
X7Y713D01*
X1986Y713D02*
X1993Y713D01*
X2243Y713D02*
X2250Y713D01*
X0Y712D02*
X7Y712D01*
X1986Y712D02*
X1993Y712D01*
X2243Y712D02*
X2250Y712D01*
X0Y711D02*
X7Y711D01*
X1986Y711D02*
X1993Y711D01*
X2243Y711D02*
X2250Y711D01*
X0Y710D02*
X7Y710D01*
X1986Y710D02*
X1993Y710D01*
X2243Y710D02*
X2250Y710D01*
X0Y709D02*
X7Y709D01*
X1986Y709D02*
X1993Y709D01*
X2243Y709D02*
X2250Y709D01*
X0Y708D02*
X7Y708D01*
X1986Y708D02*
X1993Y708D01*
X2243Y708D02*
X2250Y708D01*
X0Y707D02*
X7Y707D01*
X1986Y707D02*
X1993Y707D01*
X2243Y707D02*
X2250Y707D01*
X0Y706D02*
X7Y706D01*
X1986Y706D02*
X1993Y706D01*
X2243Y706D02*
X2250Y706D01*
X0Y705D02*
X7Y705D01*
X1986Y705D02*
X1993Y705D01*
X2243Y705D02*
X2250Y705D01*
X0Y704D02*
X7Y704D01*
X1986Y704D02*
X1993Y704D01*
X2243Y704D02*
X2250Y704D01*
X0Y703D02*
X7Y703D01*
X1986Y703D02*
X1993Y703D01*
X2243Y703D02*
X2250Y703D01*
X0Y702D02*
X7Y702D01*
X1986Y702D02*
X1993Y702D01*
X2243Y702D02*
X2250Y702D01*
X0Y701D02*
X7Y701D01*
X1986Y701D02*
X1993Y701D01*
X2243Y701D02*
X2250Y701D01*
X0Y700D02*
X7Y700D01*
X1986Y700D02*
X1993Y700D01*
X2243Y700D02*
X2250Y700D01*
X0Y699D02*
X7Y699D01*
X1986Y699D02*
X1993Y699D01*
X2243Y699D02*
X2250Y699D01*
X0Y698D02*
X7Y698D01*
X1986Y698D02*
X1993Y698D01*
X2243Y698D02*
X2250Y698D01*
X0Y697D02*
X7Y697D01*
X1986Y697D02*
X1993Y697D01*
X2243Y697D02*
X2250Y697D01*
X0Y696D02*
X7Y696D01*
X1986Y696D02*
X1993Y696D01*
X2243Y696D02*
X2250Y696D01*
X0Y695D02*
X7Y695D01*
X1986Y695D02*
X1993Y695D01*
X2243Y695D02*
X2250Y695D01*
X0Y694D02*
X7Y694D01*
X1986Y694D02*
X1993Y694D01*
X2243Y694D02*
X2250Y694D01*
X0Y693D02*
X7Y693D01*
X1986Y693D02*
X1993Y693D01*
X2243Y693D02*
X2250Y693D01*
X0Y692D02*
X7Y692D01*
X1986Y692D02*
X1993Y692D01*
X2243Y692D02*
X2250Y692D01*
X0Y691D02*
X7Y691D01*
X1986Y691D02*
X1993Y691D01*
X2243Y691D02*
X2250Y691D01*
X0Y690D02*
X7Y690D01*
X1986Y690D02*
X1993Y690D01*
X2243Y690D02*
X2250Y690D01*
X0Y689D02*
X7Y689D01*
X1986Y689D02*
X1993Y689D01*
X2243Y689D02*
X2250Y689D01*
X0Y688D02*
X7Y688D01*
X1986Y688D02*
X1993Y688D01*
X2243Y688D02*
X2250Y688D01*
X0Y687D02*
X7Y687D01*
X1986Y687D02*
X1993Y687D01*
X2243Y687D02*
X2250Y687D01*
X0Y686D02*
X7Y686D01*
X1986Y686D02*
X1993Y686D01*
X2243Y686D02*
X2250Y686D01*
X0Y685D02*
X7Y685D01*
X1986Y685D02*
X1993Y685D01*
X2243Y685D02*
X2250Y685D01*
X0Y684D02*
X7Y684D01*
X1986Y684D02*
X1993Y684D01*
X2243Y684D02*
X2250Y684D01*
X0Y683D02*
X7Y683D01*
X1986Y683D02*
X1993Y683D01*
X2243Y683D02*
X2250Y683D01*
X0Y682D02*
X7Y682D01*
X1986Y682D02*
X1993Y682D01*
X2243Y682D02*
X2250Y682D01*
X0Y681D02*
X7Y681D01*
X1986Y681D02*
X1993Y681D01*
X2243Y681D02*
X2250Y681D01*
X0Y680D02*
X7Y680D01*
X1986Y680D02*
X1993Y680D01*
X2243Y680D02*
X2250Y680D01*
X0Y679D02*
X7Y679D01*
X1986Y679D02*
X1993Y679D01*
X2243Y679D02*
X2250Y679D01*
X0Y678D02*
X7Y678D01*
X1986Y678D02*
X1993Y678D01*
X2243Y678D02*
X2250Y678D01*
X0Y677D02*
X7Y677D01*
X1986Y677D02*
X1993Y677D01*
X2243Y677D02*
X2250Y677D01*
X0Y676D02*
X7Y676D01*
X1986Y676D02*
X1993Y676D01*
X2243Y676D02*
X2250Y676D01*
X0Y675D02*
X7Y675D01*
X1986Y675D02*
X1993Y675D01*
X2243Y675D02*
X2250Y675D01*
X0Y674D02*
X7Y674D01*
X1986Y674D02*
X1993Y674D01*
X2243Y674D02*
X2250Y674D01*
X0Y673D02*
X7Y673D01*
X1986Y673D02*
X1993Y673D01*
X2243Y673D02*
X2250Y673D01*
X0Y672D02*
X7Y672D01*
X1986Y672D02*
X1993Y672D01*
X2243Y672D02*
X2250Y672D01*
X0Y671D02*
X7Y671D01*
X1986Y671D02*
X1993Y671D01*
X2243Y671D02*
X2250Y671D01*
X0Y670D02*
X7Y670D01*
X1986Y670D02*
X1993Y670D01*
X2243Y670D02*
X2250Y670D01*
X0Y669D02*
X7Y669D01*
X1986Y669D02*
X1993Y669D01*
X2243Y669D02*
X2250Y669D01*
X0Y668D02*
X7Y668D01*
X1986Y668D02*
X1993Y668D01*
X2243Y668D02*
X2250Y668D01*
X0Y667D02*
X7Y667D01*
X1986Y667D02*
X1993Y667D01*
X2243Y667D02*
X2250Y667D01*
X0Y666D02*
X7Y666D01*
X1986Y666D02*
X1993Y666D01*
X2243Y666D02*
X2250Y666D01*
X0Y665D02*
X7Y665D01*
X1986Y665D02*
X1993Y665D01*
X2243Y665D02*
X2250Y665D01*
X0Y664D02*
X7Y664D01*
X1986Y664D02*
X1993Y664D01*
X2243Y664D02*
X2250Y664D01*
X0Y663D02*
X7Y663D01*
X1986Y663D02*
X1993Y663D01*
X2243Y663D02*
X2250Y663D01*
X0Y662D02*
X7Y662D01*
X1986Y662D02*
X1993Y662D01*
X2243Y662D02*
X2250Y662D01*
X0Y661D02*
X7Y661D01*
X1986Y661D02*
X1993Y661D01*
X2243Y661D02*
X2250Y661D01*
X0Y660D02*
X7Y660D01*
X1986Y660D02*
X1993Y660D01*
X2243Y660D02*
X2250Y660D01*
X0Y659D02*
X7Y659D01*
X1986Y659D02*
X1993Y659D01*
X2243Y659D02*
X2250Y659D01*
X0Y658D02*
X7Y658D01*
X1986Y658D02*
X1993Y658D01*
X2243Y658D02*
X2250Y658D01*
X0Y657D02*
X7Y657D01*
X1986Y657D02*
X1993Y657D01*
X2243Y657D02*
X2250Y657D01*
X0Y656D02*
X7Y656D01*
X1986Y656D02*
X1993Y656D01*
X2243Y656D02*
X2250Y656D01*
X0Y655D02*
X7Y655D01*
X1986Y655D02*
X1993Y655D01*
X2243Y655D02*
X2250Y655D01*
X0Y654D02*
X7Y654D01*
X1986Y654D02*
X1993Y654D01*
X2243Y654D02*
X2250Y654D01*
X0Y653D02*
X7Y653D01*
X1986Y653D02*
X1993Y653D01*
X2243Y653D02*
X2250Y653D01*
X0Y652D02*
X7Y652D01*
X1986Y652D02*
X1993Y652D01*
X2243Y652D02*
X2250Y652D01*
X0Y651D02*
X7Y651D01*
X1986Y651D02*
X1993Y651D01*
X2243Y651D02*
X2250Y651D01*
X0Y650D02*
X7Y650D01*
X1986Y650D02*
X1993Y650D01*
X2243Y650D02*
X2250Y650D01*
X0Y649D02*
X7Y649D01*
X1986Y649D02*
X1993Y649D01*
X2243Y649D02*
X2250Y649D01*
X0Y648D02*
X7Y648D01*
X1986Y648D02*
X1993Y648D01*
X2243Y648D02*
X2250Y648D01*
X0Y647D02*
X7Y647D01*
X1986Y647D02*
X1993Y647D01*
X2243Y647D02*
X2250Y647D01*
X0Y646D02*
X7Y646D01*
X1986Y646D02*
X1993Y646D01*
X2243Y646D02*
X2250Y646D01*
X0Y645D02*
X7Y645D01*
X1986Y645D02*
X1993Y645D01*
X2243Y645D02*
X2250Y645D01*
X0Y644D02*
X7Y644D01*
X1986Y644D02*
X1993Y644D01*
X2243Y644D02*
X2250Y644D01*
X0Y643D02*
X7Y643D01*
X1986Y643D02*
X1993Y643D01*
X2243Y643D02*
X2250Y643D01*
X0Y642D02*
X7Y642D01*
X1986Y642D02*
X1993Y642D01*
X2243Y642D02*
X2250Y642D01*
X0Y641D02*
X7Y641D01*
X1986Y641D02*
X1993Y641D01*
X2243Y641D02*
X2250Y641D01*
X0Y640D02*
X7Y640D01*
X1986Y640D02*
X1993Y640D01*
X2243Y640D02*
X2250Y640D01*
X0Y639D02*
X7Y639D01*
X1986Y639D02*
X1993Y639D01*
X2243Y639D02*
X2250Y639D01*
X0Y638D02*
X7Y638D01*
X1986Y638D02*
X1993Y638D01*
X2243Y638D02*
X2250Y638D01*
X0Y637D02*
X36Y637D01*
X1986Y637D02*
X1993Y637D01*
X2243Y637D02*
X2250Y637D01*
X0Y636D02*
X37Y636D01*
X1986Y636D02*
X1993Y636D01*
X2243Y636D02*
X2250Y636D01*
X0Y635D02*
X37Y635D01*
X1986Y635D02*
X1993Y635D01*
X2243Y635D02*
X2250Y635D01*
X0Y634D02*
X37Y634D01*
X1986Y634D02*
X1993Y634D01*
X2243Y634D02*
X2250Y634D01*
X0Y633D02*
X36Y633D01*
X1986Y633D02*
X1993Y633D01*
X2243Y633D02*
X2250Y633D01*
X0Y632D02*
X7Y632D01*
X1986Y632D02*
X1993Y632D01*
X2243Y632D02*
X2250Y632D01*
X0Y631D02*
X7Y631D01*
X1986Y631D02*
X1993Y631D01*
X2243Y631D02*
X2250Y631D01*
X0Y630D02*
X7Y630D01*
X1986Y630D02*
X1993Y630D01*
X2243Y630D02*
X2250Y630D01*
X0Y629D02*
X7Y629D01*
X1986Y629D02*
X1993Y629D01*
X2243Y629D02*
X2250Y629D01*
X0Y628D02*
X7Y628D01*
X1986Y628D02*
X1993Y628D01*
X2243Y628D02*
X2250Y628D01*
X0Y627D02*
X7Y627D01*
X1986Y627D02*
X1993Y627D01*
X2243Y627D02*
X2250Y627D01*
X0Y626D02*
X7Y626D01*
X1986Y626D02*
X1993Y626D01*
X2243Y626D02*
X2250Y626D01*
X0Y625D02*
X7Y625D01*
X1986Y625D02*
X1993Y625D01*
X2243Y625D02*
X2250Y625D01*
X0Y624D02*
X7Y624D01*
X1986Y624D02*
X1993Y624D01*
X2243Y624D02*
X2250Y624D01*
X0Y623D02*
X7Y623D01*
X1986Y623D02*
X1993Y623D01*
X2243Y623D02*
X2250Y623D01*
X0Y622D02*
X7Y622D01*
X1986Y622D02*
X1993Y622D01*
X2243Y622D02*
X2250Y622D01*
X0Y621D02*
X7Y621D01*
X1986Y621D02*
X1993Y621D01*
X2243Y621D02*
X2250Y621D01*
X0Y620D02*
X7Y620D01*
X1986Y620D02*
X1993Y620D01*
X2243Y620D02*
X2250Y620D01*
X0Y619D02*
X7Y619D01*
X1986Y619D02*
X1993Y619D01*
X2243Y619D02*
X2250Y619D01*
X0Y618D02*
X7Y618D01*
X1986Y618D02*
X1993Y618D01*
X2243Y618D02*
X2250Y618D01*
X0Y617D02*
X7Y617D01*
X1986Y617D02*
X1993Y617D01*
X2243Y617D02*
X2250Y617D01*
X0Y616D02*
X7Y616D01*
X1986Y616D02*
X1993Y616D01*
X2243Y616D02*
X2250Y616D01*
X0Y615D02*
X7Y615D01*
X1986Y615D02*
X1993Y615D01*
X2243Y615D02*
X2250Y615D01*
X0Y614D02*
X7Y614D01*
X1986Y614D02*
X1993Y614D01*
X2243Y614D02*
X2250Y614D01*
X0Y613D02*
X7Y613D01*
X1986Y613D02*
X1993Y613D01*
X2243Y613D02*
X2250Y613D01*
X0Y612D02*
X7Y612D01*
X1986Y612D02*
X1993Y612D01*
X2243Y612D02*
X2250Y612D01*
X0Y611D02*
X7Y611D01*
X1986Y611D02*
X1993Y611D01*
X2243Y611D02*
X2250Y611D01*
X0Y610D02*
X7Y610D01*
X1986Y610D02*
X1993Y610D01*
X2243Y610D02*
X2250Y610D01*
X0Y609D02*
X7Y609D01*
X1986Y609D02*
X1993Y609D01*
X2243Y609D02*
X2250Y609D01*
X0Y608D02*
X7Y608D01*
X1986Y608D02*
X1993Y608D01*
X2243Y608D02*
X2250Y608D01*
X0Y607D02*
X7Y607D01*
X1986Y607D02*
X1993Y607D01*
X2243Y607D02*
X2250Y607D01*
X0Y606D02*
X7Y606D01*
X1986Y606D02*
X1993Y606D01*
X2243Y606D02*
X2250Y606D01*
X0Y605D02*
X7Y605D01*
X1986Y605D02*
X1993Y605D01*
X2243Y605D02*
X2250Y605D01*
X0Y604D02*
X7Y604D01*
X1986Y604D02*
X1993Y604D01*
X2243Y604D02*
X2250Y604D01*
X0Y603D02*
X7Y603D01*
X1986Y603D02*
X1993Y603D01*
X2243Y603D02*
X2250Y603D01*
X0Y602D02*
X7Y602D01*
X1986Y602D02*
X1993Y602D01*
X2243Y602D02*
X2250Y602D01*
X0Y601D02*
X7Y601D01*
X1986Y601D02*
X1993Y601D01*
X2243Y601D02*
X2250Y601D01*
X0Y600D02*
X7Y600D01*
X1986Y600D02*
X1993Y600D01*
X2243Y600D02*
X2250Y600D01*
X0Y599D02*
X7Y599D01*
X1986Y599D02*
X1993Y599D01*
X2243Y599D02*
X2250Y599D01*
X0Y598D02*
X7Y598D01*
X1986Y598D02*
X1993Y598D01*
X2243Y598D02*
X2250Y598D01*
X0Y597D02*
X7Y597D01*
X1986Y597D02*
X1993Y597D01*
X2243Y597D02*
X2250Y597D01*
X0Y596D02*
X7Y596D01*
X1986Y596D02*
X1993Y596D01*
X2243Y596D02*
X2250Y596D01*
X0Y595D02*
X7Y595D01*
X1986Y595D02*
X1993Y595D01*
X2243Y595D02*
X2250Y595D01*
X0Y594D02*
X7Y594D01*
X1986Y594D02*
X1993Y594D01*
X2243Y594D02*
X2250Y594D01*
X0Y593D02*
X7Y593D01*
X1986Y593D02*
X1993Y593D01*
X2243Y593D02*
X2250Y593D01*
X0Y592D02*
X7Y592D01*
X1986Y592D02*
X1993Y592D01*
X2243Y592D02*
X2250Y592D01*
X0Y591D02*
X7Y591D01*
X1986Y591D02*
X1993Y591D01*
X2243Y591D02*
X2250Y591D01*
X0Y590D02*
X7Y590D01*
X1986Y590D02*
X1993Y590D01*
X2243Y590D02*
X2250Y590D01*
X0Y589D02*
X7Y589D01*
X1986Y589D02*
X1993Y589D01*
X2243Y589D02*
X2250Y589D01*
X0Y588D02*
X7Y588D01*
X1986Y588D02*
X1993Y588D01*
X2243Y588D02*
X2250Y588D01*
X0Y587D02*
X7Y587D01*
X1986Y587D02*
X1993Y587D01*
X2243Y587D02*
X2250Y587D01*
X0Y586D02*
X7Y586D01*
X1986Y586D02*
X1993Y586D01*
X2243Y586D02*
X2250Y586D01*
X0Y585D02*
X7Y585D01*
X1986Y585D02*
X1993Y585D01*
X2243Y585D02*
X2250Y585D01*
X0Y584D02*
X7Y584D01*
X1986Y584D02*
X1993Y584D01*
X2243Y584D02*
X2250Y584D01*
X0Y583D02*
X7Y583D01*
X1986Y583D02*
X1993Y583D01*
X2243Y583D02*
X2250Y583D01*
X0Y582D02*
X7Y582D01*
X1986Y582D02*
X1993Y582D01*
X2243Y582D02*
X2250Y582D01*
X0Y581D02*
X7Y581D01*
X1986Y581D02*
X1993Y581D01*
X2243Y581D02*
X2250Y581D01*
X0Y580D02*
X8Y580D01*
X1986Y580D02*
X1993Y580D01*
X2243Y580D02*
X2250Y580D01*
X0Y579D02*
X9Y579D01*
X1986Y579D02*
X1993Y579D01*
X2243Y579D02*
X2250Y579D01*
X0Y578D02*
X10Y578D01*
X1986Y578D02*
X1993Y578D01*
X2243Y578D02*
X2250Y578D01*
X0Y577D02*
X11Y577D01*
X1986Y577D02*
X1993Y577D01*
X2243Y577D02*
X2250Y577D01*
X0Y576D02*
X12Y576D01*
X1986Y576D02*
X1993Y576D01*
X2243Y576D02*
X2250Y576D01*
X0Y575D02*
X13Y575D01*
X166Y575D02*
X173Y575D01*
X1986Y575D02*
X1993Y575D01*
X2243Y575D02*
X2250Y575D01*
X0Y574D02*
X14Y574D01*
X163Y574D02*
X175Y574D01*
X1986Y574D02*
X1993Y574D01*
X2243Y574D02*
X2250Y574D01*
X0Y573D02*
X15Y573D01*
X161Y573D02*
X177Y573D01*
X1986Y573D02*
X1993Y573D01*
X2243Y573D02*
X2250Y573D01*
X0Y572D02*
X16Y572D01*
X160Y572D02*
X178Y572D01*
X1986Y572D02*
X1993Y572D01*
X2243Y572D02*
X2250Y572D01*
X0Y571D02*
X17Y571D01*
X159Y571D02*
X179Y571D01*
X1986Y571D02*
X1993Y571D01*
X2243Y571D02*
X2250Y571D01*
X0Y570D02*
X18Y570D01*
X158Y570D02*
X180Y570D01*
X1986Y570D02*
X1993Y570D01*
X2243Y570D02*
X2250Y570D01*
X0Y569D02*
X19Y569D01*
X158Y569D02*
X180Y569D01*
X1986Y569D02*
X1993Y569D01*
X2243Y569D02*
X2250Y569D01*
X0Y568D02*
X7Y568D01*
X9Y568D02*
X20Y568D01*
X157Y568D02*
X181Y568D01*
X1986Y568D02*
X1993Y568D01*
X2243Y568D02*
X2250Y568D01*
X0Y567D02*
X7Y567D01*
X10Y567D02*
X21Y567D01*
X157Y567D02*
X166Y567D01*
X172Y567D02*
X181Y567D01*
X1986Y567D02*
X1993Y567D01*
X2243Y567D02*
X2250Y567D01*
X0Y566D02*
X7Y566D01*
X11Y566D02*
X21Y566D01*
X157Y566D02*
X165Y566D01*
X174Y566D02*
X182Y566D01*
X1986Y566D02*
X1993Y566D01*
X2243Y566D02*
X2250Y566D01*
X0Y565D02*
X7Y565D01*
X12Y565D02*
X22Y565D01*
X156Y565D02*
X164Y565D01*
X174Y565D02*
X182Y565D01*
X1986Y565D02*
X1993Y565D01*
X2243Y565D02*
X2250Y565D01*
X0Y564D02*
X7Y564D01*
X13Y564D02*
X22Y564D01*
X156Y564D02*
X163Y564D01*
X175Y564D02*
X182Y564D01*
X1986Y564D02*
X1993Y564D01*
X2243Y564D02*
X2250Y564D01*
X0Y563D02*
X7Y563D01*
X14Y563D02*
X22Y563D01*
X156Y563D02*
X163Y563D01*
X175Y563D02*
X182Y563D01*
X1986Y563D02*
X1993Y563D01*
X2243Y563D02*
X2250Y563D01*
X0Y562D02*
X7Y562D01*
X15Y562D02*
X22Y562D01*
X156Y562D02*
X163Y562D01*
X175Y562D02*
X182Y562D01*
X1986Y562D02*
X1993Y562D01*
X2243Y562D02*
X2250Y562D01*
X0Y561D02*
X7Y561D01*
X15Y561D02*
X22Y561D01*
X156Y561D02*
X163Y561D01*
X175Y561D02*
X182Y561D01*
X1986Y561D02*
X1993Y561D01*
X2243Y561D02*
X2250Y561D01*
X0Y560D02*
X7Y560D01*
X15Y560D02*
X22Y560D01*
X156Y560D02*
X163Y560D01*
X175Y560D02*
X182Y560D01*
X1986Y560D02*
X1993Y560D01*
X2243Y560D02*
X2250Y560D01*
X0Y559D02*
X7Y559D01*
X15Y559D02*
X22Y559D01*
X156Y559D02*
X164Y559D01*
X174Y559D02*
X182Y559D01*
X1986Y559D02*
X1993Y559D01*
X2243Y559D02*
X2250Y559D01*
X0Y558D02*
X7Y558D01*
X15Y558D02*
X22Y558D01*
X157Y558D02*
X164Y558D01*
X174Y558D02*
X182Y558D01*
X1986Y558D02*
X1993Y558D01*
X2243Y558D02*
X2250Y558D01*
X0Y557D02*
X7Y557D01*
X15Y557D02*
X22Y557D01*
X157Y557D02*
X166Y557D01*
X172Y557D02*
X181Y557D01*
X1986Y557D02*
X1993Y557D01*
X2243Y557D02*
X2250Y557D01*
X0Y556D02*
X7Y556D01*
X15Y556D02*
X22Y556D01*
X157Y556D02*
X181Y556D01*
X1986Y556D02*
X1993Y556D01*
X2243Y556D02*
X2250Y556D01*
X0Y555D02*
X7Y555D01*
X15Y555D02*
X22Y555D01*
X158Y555D02*
X180Y555D01*
X1986Y555D02*
X1993Y555D01*
X2243Y555D02*
X2250Y555D01*
X0Y554D02*
X7Y554D01*
X15Y554D02*
X22Y554D01*
X158Y554D02*
X180Y554D01*
X1986Y554D02*
X1993Y554D01*
X2243Y554D02*
X2250Y554D01*
X0Y553D02*
X7Y553D01*
X15Y553D02*
X22Y553D01*
X159Y553D02*
X179Y553D01*
X1986Y553D02*
X1993Y553D01*
X2243Y553D02*
X2250Y553D01*
X0Y552D02*
X7Y552D01*
X15Y552D02*
X22Y552D01*
X160Y552D02*
X178Y552D01*
X1986Y552D02*
X1993Y552D01*
X2243Y552D02*
X2250Y552D01*
X0Y551D02*
X7Y551D01*
X15Y551D02*
X22Y551D01*
X161Y551D02*
X177Y551D01*
X1986Y551D02*
X1993Y551D01*
X2243Y551D02*
X2250Y551D01*
X0Y550D02*
X7Y550D01*
X15Y550D02*
X22Y550D01*
X163Y550D02*
X175Y550D01*
X1986Y550D02*
X1993Y550D01*
X2243Y550D02*
X2250Y550D01*
X0Y549D02*
X7Y549D01*
X15Y549D02*
X22Y549D01*
X165Y549D02*
X173Y549D01*
X1986Y549D02*
X1993Y549D01*
X2243Y549D02*
X2250Y549D01*
X0Y548D02*
X7Y548D01*
X15Y548D02*
X22Y548D01*
X1986Y548D02*
X1993Y548D01*
X2243Y548D02*
X2250Y548D01*
X0Y547D02*
X7Y547D01*
X15Y547D02*
X22Y547D01*
X1986Y547D02*
X1993Y547D01*
X2243Y547D02*
X2250Y547D01*
X0Y546D02*
X7Y546D01*
X15Y546D02*
X22Y546D01*
X1986Y546D02*
X1993Y546D01*
X2243Y546D02*
X2250Y546D01*
X0Y545D02*
X7Y545D01*
X15Y545D02*
X22Y545D01*
X1986Y545D02*
X1993Y545D01*
X2243Y545D02*
X2250Y545D01*
X0Y544D02*
X7Y544D01*
X15Y544D02*
X22Y544D01*
X1986Y544D02*
X1993Y544D01*
X2243Y544D02*
X2250Y544D01*
X0Y543D02*
X7Y543D01*
X15Y543D02*
X22Y543D01*
X1986Y543D02*
X1993Y543D01*
X2243Y543D02*
X2250Y543D01*
X0Y542D02*
X7Y542D01*
X15Y542D02*
X22Y542D01*
X1986Y542D02*
X1993Y542D01*
X2243Y542D02*
X2250Y542D01*
X0Y541D02*
X7Y541D01*
X15Y541D02*
X22Y541D01*
X1986Y541D02*
X1993Y541D01*
X2243Y541D02*
X2250Y541D01*
X0Y540D02*
X7Y540D01*
X15Y540D02*
X22Y540D01*
X1986Y540D02*
X1993Y540D01*
X2243Y540D02*
X2250Y540D01*
X0Y539D02*
X7Y539D01*
X15Y539D02*
X22Y539D01*
X1986Y539D02*
X1993Y539D01*
X2243Y539D02*
X2250Y539D01*
X0Y538D02*
X7Y538D01*
X15Y538D02*
X22Y538D01*
X1986Y538D02*
X1993Y538D01*
X2243Y538D02*
X2250Y538D01*
X0Y537D02*
X7Y537D01*
X15Y537D02*
X22Y537D01*
X1986Y537D02*
X1993Y537D01*
X2243Y537D02*
X2250Y537D01*
X0Y536D02*
X7Y536D01*
X15Y536D02*
X22Y536D01*
X1986Y536D02*
X1993Y536D01*
X2243Y536D02*
X2250Y536D01*
X0Y535D02*
X7Y535D01*
X15Y535D02*
X22Y535D01*
X1986Y535D02*
X1993Y535D01*
X2243Y535D02*
X2250Y535D01*
X0Y534D02*
X7Y534D01*
X15Y534D02*
X22Y534D01*
X1986Y534D02*
X1993Y534D01*
X2243Y534D02*
X2250Y534D01*
X0Y533D02*
X7Y533D01*
X15Y533D02*
X22Y533D01*
X1986Y533D02*
X1993Y533D01*
X2243Y533D02*
X2250Y533D01*
X0Y532D02*
X7Y532D01*
X15Y532D02*
X22Y532D01*
X1986Y532D02*
X1993Y532D01*
X2243Y532D02*
X2250Y532D01*
X0Y531D02*
X7Y531D01*
X15Y531D02*
X22Y531D01*
X1986Y531D02*
X1993Y531D01*
X2243Y531D02*
X2250Y531D01*
X0Y530D02*
X7Y530D01*
X15Y530D02*
X22Y530D01*
X1986Y530D02*
X1993Y530D01*
X2243Y530D02*
X2250Y530D01*
X0Y529D02*
X7Y529D01*
X15Y529D02*
X22Y529D01*
X1986Y529D02*
X1993Y529D01*
X2243Y529D02*
X2250Y529D01*
X0Y528D02*
X7Y528D01*
X15Y528D02*
X22Y528D01*
X1986Y528D02*
X1993Y528D01*
X2243Y528D02*
X2250Y528D01*
X0Y527D02*
X7Y527D01*
X15Y527D02*
X22Y527D01*
X1986Y527D02*
X1993Y527D01*
X2243Y527D02*
X2250Y527D01*
X0Y526D02*
X7Y526D01*
X15Y526D02*
X22Y526D01*
X1986Y526D02*
X1993Y526D01*
X2243Y526D02*
X2250Y526D01*
X0Y525D02*
X7Y525D01*
X15Y525D02*
X22Y525D01*
X1986Y525D02*
X1993Y525D01*
X2243Y525D02*
X2250Y525D01*
X0Y524D02*
X7Y524D01*
X15Y524D02*
X22Y524D01*
X1986Y524D02*
X1993Y524D01*
X2243Y524D02*
X2250Y524D01*
X0Y523D02*
X7Y523D01*
X15Y523D02*
X22Y523D01*
X1986Y523D02*
X1993Y523D01*
X2243Y523D02*
X2250Y523D01*
X0Y522D02*
X7Y522D01*
X15Y522D02*
X22Y522D01*
X1986Y522D02*
X1993Y522D01*
X2243Y522D02*
X2250Y522D01*
X0Y521D02*
X7Y521D01*
X15Y521D02*
X22Y521D01*
X1986Y521D02*
X1993Y521D01*
X2243Y521D02*
X2250Y521D01*
X0Y520D02*
X7Y520D01*
X15Y520D02*
X22Y520D01*
X1986Y520D02*
X1993Y520D01*
X2243Y520D02*
X2250Y520D01*
X0Y519D02*
X7Y519D01*
X15Y519D02*
X22Y519D01*
X1986Y519D02*
X1993Y519D01*
X2243Y519D02*
X2250Y519D01*
X0Y518D02*
X7Y518D01*
X15Y518D02*
X22Y518D01*
X1986Y518D02*
X1993Y518D01*
X2243Y518D02*
X2250Y518D01*
X0Y517D02*
X7Y517D01*
X15Y517D02*
X22Y517D01*
X1986Y517D02*
X1993Y517D01*
X2243Y517D02*
X2250Y517D01*
X0Y516D02*
X7Y516D01*
X15Y516D02*
X22Y516D01*
X1986Y516D02*
X1993Y516D01*
X2243Y516D02*
X2250Y516D01*
X0Y515D02*
X7Y515D01*
X15Y515D02*
X22Y515D01*
X1986Y515D02*
X1993Y515D01*
X2243Y515D02*
X2250Y515D01*
X0Y514D02*
X7Y514D01*
X15Y514D02*
X22Y514D01*
X1986Y514D02*
X1993Y514D01*
X2243Y514D02*
X2250Y514D01*
X0Y513D02*
X7Y513D01*
X15Y513D02*
X22Y513D01*
X1986Y513D02*
X1993Y513D01*
X2243Y513D02*
X2250Y513D01*
X0Y512D02*
X7Y512D01*
X15Y512D02*
X22Y512D01*
X1986Y512D02*
X1993Y512D01*
X2243Y512D02*
X2250Y512D01*
X0Y511D02*
X7Y511D01*
X15Y511D02*
X22Y511D01*
X1986Y511D02*
X1993Y511D01*
X2243Y511D02*
X2250Y511D01*
X0Y510D02*
X7Y510D01*
X15Y510D02*
X22Y510D01*
X1986Y510D02*
X1993Y510D01*
X2243Y510D02*
X2250Y510D01*
X0Y509D02*
X7Y509D01*
X15Y509D02*
X22Y509D01*
X1986Y509D02*
X1993Y509D01*
X2243Y509D02*
X2250Y509D01*
X0Y508D02*
X7Y508D01*
X15Y508D02*
X22Y508D01*
X1986Y508D02*
X1993Y508D01*
X2243Y508D02*
X2250Y508D01*
X0Y507D02*
X7Y507D01*
X15Y507D02*
X22Y507D01*
X1986Y507D02*
X1993Y507D01*
X2243Y507D02*
X2250Y507D01*
X0Y506D02*
X7Y506D01*
X15Y506D02*
X22Y506D01*
X1986Y506D02*
X1993Y506D01*
X2243Y506D02*
X2250Y506D01*
X0Y505D02*
X7Y505D01*
X15Y505D02*
X22Y505D01*
X1986Y505D02*
X1993Y505D01*
X2243Y505D02*
X2250Y505D01*
X0Y504D02*
X7Y504D01*
X15Y504D02*
X22Y504D01*
X1986Y504D02*
X1993Y504D01*
X2243Y504D02*
X2250Y504D01*
X0Y503D02*
X7Y503D01*
X15Y503D02*
X22Y503D01*
X1986Y503D02*
X1993Y503D01*
X2243Y503D02*
X2250Y503D01*
X0Y502D02*
X7Y502D01*
X15Y502D02*
X22Y502D01*
X1986Y502D02*
X1993Y502D01*
X2243Y502D02*
X2250Y502D01*
X0Y501D02*
X7Y501D01*
X15Y501D02*
X22Y501D01*
X1986Y501D02*
X1993Y501D01*
X2243Y501D02*
X2250Y501D01*
X0Y500D02*
X7Y500D01*
X15Y500D02*
X22Y500D01*
X1986Y500D02*
X1993Y500D01*
X2243Y500D02*
X2250Y500D01*
X0Y499D02*
X7Y499D01*
X15Y499D02*
X22Y499D01*
X1986Y499D02*
X1993Y499D01*
X2243Y499D02*
X2250Y499D01*
X0Y498D02*
X7Y498D01*
X15Y498D02*
X22Y498D01*
X1986Y498D02*
X1993Y498D01*
X2243Y498D02*
X2250Y498D01*
X0Y497D02*
X7Y497D01*
X15Y497D02*
X22Y497D01*
X1986Y497D02*
X1993Y497D01*
X2243Y497D02*
X2250Y497D01*
X0Y496D02*
X7Y496D01*
X15Y496D02*
X22Y496D01*
X1986Y496D02*
X1993Y496D01*
X2243Y496D02*
X2250Y496D01*
X0Y495D02*
X7Y495D01*
X15Y495D02*
X22Y495D01*
X1986Y495D02*
X1993Y495D01*
X2243Y495D02*
X2250Y495D01*
X0Y494D02*
X7Y494D01*
X15Y494D02*
X22Y494D01*
X1986Y494D02*
X1993Y494D01*
X2243Y494D02*
X2250Y494D01*
X0Y493D02*
X7Y493D01*
X15Y493D02*
X22Y493D01*
X1986Y493D02*
X1993Y493D01*
X2243Y493D02*
X2250Y493D01*
X0Y492D02*
X7Y492D01*
X15Y492D02*
X22Y492D01*
X1986Y492D02*
X1993Y492D01*
X2243Y492D02*
X2250Y492D01*
X0Y491D02*
X7Y491D01*
X15Y491D02*
X22Y491D01*
X1986Y491D02*
X1993Y491D01*
X2243Y491D02*
X2250Y491D01*
X0Y490D02*
X7Y490D01*
X15Y490D02*
X22Y490D01*
X1986Y490D02*
X1993Y490D01*
X2243Y490D02*
X2250Y490D01*
X0Y489D02*
X7Y489D01*
X15Y489D02*
X22Y489D01*
X1986Y489D02*
X1993Y489D01*
X2243Y489D02*
X2250Y489D01*
X0Y488D02*
X7Y488D01*
X15Y488D02*
X22Y488D01*
X1986Y488D02*
X1993Y488D01*
X2243Y488D02*
X2250Y488D01*
X0Y487D02*
X7Y487D01*
X15Y487D02*
X22Y487D01*
X1986Y487D02*
X1993Y487D01*
X2243Y487D02*
X2250Y487D01*
X0Y486D02*
X7Y486D01*
X15Y486D02*
X22Y486D01*
X1986Y486D02*
X1993Y486D01*
X2243Y486D02*
X2250Y486D01*
X0Y485D02*
X7Y485D01*
X15Y485D02*
X22Y485D01*
X1986Y485D02*
X1993Y485D01*
X2243Y485D02*
X2250Y485D01*
X0Y484D02*
X7Y484D01*
X15Y484D02*
X22Y484D01*
X1986Y484D02*
X1993Y484D01*
X2243Y484D02*
X2250Y484D01*
X0Y483D02*
X7Y483D01*
X15Y483D02*
X22Y483D01*
X1986Y483D02*
X1993Y483D01*
X2243Y483D02*
X2250Y483D01*
X0Y482D02*
X7Y482D01*
X15Y482D02*
X22Y482D01*
X1986Y482D02*
X1993Y482D01*
X2243Y482D02*
X2250Y482D01*
X0Y481D02*
X7Y481D01*
X15Y481D02*
X22Y481D01*
X1986Y481D02*
X1993Y481D01*
X2243Y481D02*
X2250Y481D01*
X0Y480D02*
X7Y480D01*
X15Y480D02*
X22Y480D01*
X1986Y480D02*
X1993Y480D01*
X2243Y480D02*
X2250Y480D01*
X0Y479D02*
X7Y479D01*
X15Y479D02*
X22Y479D01*
X1986Y479D02*
X1993Y479D01*
X2243Y479D02*
X2250Y479D01*
X0Y478D02*
X7Y478D01*
X15Y478D02*
X22Y478D01*
X1986Y478D02*
X1993Y478D01*
X2243Y478D02*
X2250Y478D01*
X0Y477D02*
X7Y477D01*
X15Y477D02*
X22Y477D01*
X1986Y477D02*
X1993Y477D01*
X2243Y477D02*
X2250Y477D01*
X0Y476D02*
X7Y476D01*
X15Y476D02*
X22Y476D01*
X1986Y476D02*
X1993Y476D01*
X2243Y476D02*
X2250Y476D01*
X0Y475D02*
X7Y475D01*
X15Y475D02*
X22Y475D01*
X1986Y475D02*
X1993Y475D01*
X2243Y475D02*
X2250Y475D01*
X0Y474D02*
X7Y474D01*
X15Y474D02*
X22Y474D01*
X1986Y474D02*
X1993Y474D01*
X2243Y474D02*
X2250Y474D01*
X0Y473D02*
X7Y473D01*
X15Y473D02*
X22Y473D01*
X1986Y473D02*
X1993Y473D01*
X2243Y473D02*
X2250Y473D01*
X0Y472D02*
X7Y472D01*
X15Y472D02*
X22Y472D01*
X1986Y472D02*
X1993Y472D01*
X2243Y472D02*
X2250Y472D01*
X0Y471D02*
X7Y471D01*
X15Y471D02*
X22Y471D01*
X1986Y471D02*
X1993Y471D01*
X2243Y471D02*
X2250Y471D01*
X0Y470D02*
X7Y470D01*
X15Y470D02*
X22Y470D01*
X1986Y470D02*
X1993Y470D01*
X2243Y470D02*
X2250Y470D01*
X0Y469D02*
X7Y469D01*
X15Y469D02*
X22Y469D01*
X1986Y469D02*
X1993Y469D01*
X2243Y469D02*
X2250Y469D01*
X0Y468D02*
X7Y468D01*
X15Y468D02*
X22Y468D01*
X1986Y468D02*
X1993Y468D01*
X2243Y468D02*
X2250Y468D01*
X0Y467D02*
X7Y467D01*
X15Y467D02*
X22Y467D01*
X1986Y467D02*
X1993Y467D01*
X2243Y467D02*
X2250Y467D01*
X0Y466D02*
X7Y466D01*
X15Y466D02*
X22Y466D01*
X1986Y466D02*
X1993Y466D01*
X2243Y466D02*
X2250Y466D01*
X0Y465D02*
X7Y465D01*
X15Y465D02*
X22Y465D01*
X1986Y465D02*
X1993Y465D01*
X2243Y465D02*
X2250Y465D01*
X0Y464D02*
X7Y464D01*
X15Y464D02*
X22Y464D01*
X1986Y464D02*
X1993Y464D01*
X2243Y464D02*
X2250Y464D01*
X0Y463D02*
X7Y463D01*
X15Y463D02*
X22Y463D01*
X1986Y463D02*
X1993Y463D01*
X2243Y463D02*
X2250Y463D01*
X0Y462D02*
X7Y462D01*
X15Y462D02*
X22Y462D01*
X1986Y462D02*
X1993Y462D01*
X2243Y462D02*
X2250Y462D01*
X0Y461D02*
X7Y461D01*
X15Y461D02*
X22Y461D01*
X1986Y461D02*
X1993Y461D01*
X2243Y461D02*
X2250Y461D01*
X0Y460D02*
X7Y460D01*
X15Y460D02*
X22Y460D01*
X1986Y460D02*
X1993Y460D01*
X2243Y460D02*
X2250Y460D01*
X0Y459D02*
X7Y459D01*
X15Y459D02*
X22Y459D01*
X1986Y459D02*
X1993Y459D01*
X2243Y459D02*
X2250Y459D01*
X0Y458D02*
X7Y458D01*
X15Y458D02*
X22Y458D01*
X1986Y458D02*
X1993Y458D01*
X2243Y458D02*
X2250Y458D01*
X0Y457D02*
X7Y457D01*
X15Y457D02*
X22Y457D01*
X1986Y457D02*
X1993Y457D01*
X2243Y457D02*
X2250Y457D01*
X0Y456D02*
X7Y456D01*
X15Y456D02*
X22Y456D01*
X1986Y456D02*
X1993Y456D01*
X2243Y456D02*
X2250Y456D01*
X0Y455D02*
X7Y455D01*
X15Y455D02*
X22Y455D01*
X1986Y455D02*
X1993Y455D01*
X2243Y455D02*
X2250Y455D01*
X0Y454D02*
X7Y454D01*
X15Y454D02*
X22Y454D01*
X1986Y454D02*
X1993Y454D01*
X2243Y454D02*
X2250Y454D01*
X0Y453D02*
X7Y453D01*
X15Y453D02*
X22Y453D01*
X1986Y453D02*
X1993Y453D01*
X2243Y453D02*
X2250Y453D01*
X0Y452D02*
X7Y452D01*
X15Y452D02*
X22Y452D01*
X1986Y452D02*
X1993Y452D01*
X2243Y452D02*
X2250Y452D01*
X0Y451D02*
X7Y451D01*
X15Y451D02*
X22Y451D01*
X1986Y451D02*
X1993Y451D01*
X2243Y451D02*
X2250Y451D01*
X0Y450D02*
X7Y450D01*
X15Y450D02*
X22Y450D01*
X1986Y450D02*
X1993Y450D01*
X2243Y450D02*
X2250Y450D01*
X0Y449D02*
X7Y449D01*
X15Y449D02*
X22Y449D01*
X1986Y449D02*
X1993Y449D01*
X2243Y449D02*
X2250Y449D01*
X0Y448D02*
X7Y448D01*
X15Y448D02*
X22Y448D01*
X1986Y448D02*
X1993Y448D01*
X2243Y448D02*
X2250Y448D01*
X0Y447D02*
X7Y447D01*
X15Y447D02*
X22Y447D01*
X1986Y447D02*
X1993Y447D01*
X2243Y447D02*
X2250Y447D01*
X0Y446D02*
X7Y446D01*
X15Y446D02*
X22Y446D01*
X1986Y446D02*
X1993Y446D01*
X2243Y446D02*
X2250Y446D01*
X0Y445D02*
X7Y445D01*
X15Y445D02*
X22Y445D01*
X1986Y445D02*
X1993Y445D01*
X2243Y445D02*
X2250Y445D01*
X0Y444D02*
X7Y444D01*
X15Y444D02*
X22Y444D01*
X1986Y444D02*
X1993Y444D01*
X2243Y444D02*
X2250Y444D01*
X0Y443D02*
X7Y443D01*
X15Y443D02*
X22Y443D01*
X1986Y443D02*
X1993Y443D01*
X2243Y443D02*
X2250Y443D01*
X0Y442D02*
X7Y442D01*
X15Y442D02*
X22Y442D01*
X1986Y442D02*
X1993Y442D01*
X2243Y442D02*
X2250Y442D01*
X0Y441D02*
X7Y441D01*
X15Y441D02*
X22Y441D01*
X1986Y441D02*
X1993Y441D01*
X2243Y441D02*
X2250Y441D01*
X0Y440D02*
X7Y440D01*
X15Y440D02*
X22Y440D01*
X1986Y440D02*
X1993Y440D01*
X2243Y440D02*
X2250Y440D01*
X0Y439D02*
X7Y439D01*
X15Y439D02*
X22Y439D01*
X1986Y439D02*
X1993Y439D01*
X2243Y439D02*
X2250Y439D01*
X0Y438D02*
X7Y438D01*
X15Y438D02*
X22Y438D01*
X1986Y438D02*
X1993Y438D01*
X2243Y438D02*
X2250Y438D01*
X0Y437D02*
X7Y437D01*
X15Y437D02*
X22Y437D01*
X1986Y437D02*
X1993Y437D01*
X2243Y437D02*
X2250Y437D01*
X0Y436D02*
X7Y436D01*
X15Y436D02*
X22Y436D01*
X1986Y436D02*
X1993Y436D01*
X2243Y436D02*
X2250Y436D01*
X0Y435D02*
X7Y435D01*
X15Y435D02*
X22Y435D01*
X1986Y435D02*
X1993Y435D01*
X2243Y435D02*
X2250Y435D01*
X0Y434D02*
X7Y434D01*
X15Y434D02*
X22Y434D01*
X1986Y434D02*
X1993Y434D01*
X2243Y434D02*
X2250Y434D01*
X0Y433D02*
X7Y433D01*
X15Y433D02*
X22Y433D01*
X1986Y433D02*
X1993Y433D01*
X2243Y433D02*
X2250Y433D01*
X0Y432D02*
X7Y432D01*
X15Y432D02*
X22Y432D01*
X1986Y432D02*
X1993Y432D01*
X2243Y432D02*
X2250Y432D01*
X0Y431D02*
X7Y431D01*
X15Y431D02*
X22Y431D01*
X1986Y431D02*
X1993Y431D01*
X2243Y431D02*
X2250Y431D01*
X0Y430D02*
X7Y430D01*
X15Y430D02*
X22Y430D01*
X1986Y430D02*
X1993Y430D01*
X2243Y430D02*
X2250Y430D01*
X0Y429D02*
X7Y429D01*
X15Y429D02*
X22Y429D01*
X1986Y429D02*
X1993Y429D01*
X2243Y429D02*
X2250Y429D01*
X0Y428D02*
X7Y428D01*
X15Y428D02*
X22Y428D01*
X1986Y428D02*
X1993Y428D01*
X2243Y428D02*
X2250Y428D01*
X0Y427D02*
X7Y427D01*
X15Y427D02*
X22Y427D01*
X1986Y427D02*
X1993Y427D01*
X2243Y427D02*
X2250Y427D01*
X0Y426D02*
X7Y426D01*
X15Y426D02*
X22Y426D01*
X1986Y426D02*
X1993Y426D01*
X2243Y426D02*
X2250Y426D01*
X0Y425D02*
X7Y425D01*
X15Y425D02*
X22Y425D01*
X1986Y425D02*
X1993Y425D01*
X2243Y425D02*
X2250Y425D01*
X0Y424D02*
X7Y424D01*
X15Y424D02*
X22Y424D01*
X1986Y424D02*
X1993Y424D01*
X2243Y424D02*
X2250Y424D01*
X0Y423D02*
X7Y423D01*
X15Y423D02*
X22Y423D01*
X1986Y423D02*
X1993Y423D01*
X2243Y423D02*
X2250Y423D01*
X0Y422D02*
X7Y422D01*
X15Y422D02*
X22Y422D01*
X168Y422D02*
X171Y422D01*
X1986Y422D02*
X1993Y422D01*
X2243Y422D02*
X2250Y422D01*
X0Y421D02*
X7Y421D01*
X15Y421D02*
X22Y421D01*
X164Y421D02*
X174Y421D01*
X1986Y421D02*
X1993Y421D01*
X2243Y421D02*
X2250Y421D01*
X0Y420D02*
X7Y420D01*
X15Y420D02*
X22Y420D01*
X162Y420D02*
X176Y420D01*
X1986Y420D02*
X1993Y420D01*
X2243Y420D02*
X2250Y420D01*
X0Y419D02*
X7Y419D01*
X15Y419D02*
X22Y419D01*
X161Y419D02*
X177Y419D01*
X1986Y419D02*
X1993Y419D01*
X2243Y419D02*
X2250Y419D01*
X0Y418D02*
X7Y418D01*
X15Y418D02*
X22Y418D01*
X160Y418D02*
X178Y418D01*
X1986Y418D02*
X1993Y418D01*
X2243Y418D02*
X2250Y418D01*
X0Y417D02*
X7Y417D01*
X15Y417D02*
X22Y417D01*
X159Y417D02*
X179Y417D01*
X1986Y417D02*
X1993Y417D01*
X2243Y417D02*
X2250Y417D01*
X0Y416D02*
X7Y416D01*
X15Y416D02*
X22Y416D01*
X158Y416D02*
X180Y416D01*
X1986Y416D02*
X1993Y416D01*
X2243Y416D02*
X2250Y416D01*
X0Y415D02*
X7Y415D01*
X15Y415D02*
X22Y415D01*
X158Y415D02*
X181Y415D01*
X1986Y415D02*
X1993Y415D01*
X2243Y415D02*
X2250Y415D01*
X0Y414D02*
X7Y414D01*
X15Y414D02*
X22Y414D01*
X157Y414D02*
X167Y414D01*
X171Y414D02*
X181Y414D01*
X1986Y414D02*
X1993Y414D01*
X2243Y414D02*
X2250Y414D01*
X0Y413D02*
X7Y413D01*
X15Y413D02*
X22Y413D01*
X157Y413D02*
X165Y413D01*
X173Y413D02*
X181Y413D01*
X1986Y413D02*
X1993Y413D01*
X2243Y413D02*
X2250Y413D01*
X0Y412D02*
X7Y412D01*
X15Y412D02*
X22Y412D01*
X156Y412D02*
X164Y412D01*
X174Y412D02*
X182Y412D01*
X1986Y412D02*
X1993Y412D01*
X2243Y412D02*
X2250Y412D01*
X0Y411D02*
X7Y411D01*
X15Y411D02*
X22Y411D01*
X156Y411D02*
X163Y411D01*
X175Y411D02*
X182Y411D01*
X1986Y411D02*
X1993Y411D01*
X2243Y411D02*
X2250Y411D01*
X0Y410D02*
X7Y410D01*
X15Y410D02*
X22Y410D01*
X156Y410D02*
X163Y410D01*
X175Y410D02*
X182Y410D01*
X1986Y410D02*
X1993Y410D01*
X2243Y410D02*
X2250Y410D01*
X0Y409D02*
X7Y409D01*
X15Y409D02*
X22Y409D01*
X156Y409D02*
X163Y409D01*
X175Y409D02*
X182Y409D01*
X1986Y409D02*
X1993Y409D01*
X2243Y409D02*
X2250Y409D01*
X0Y408D02*
X7Y408D01*
X14Y408D02*
X22Y408D01*
X156Y408D02*
X163Y408D01*
X175Y408D02*
X182Y408D01*
X1986Y408D02*
X1993Y408D01*
X2243Y408D02*
X2250Y408D01*
X0Y407D02*
X7Y407D01*
X14Y407D02*
X22Y407D01*
X156Y407D02*
X163Y407D01*
X175Y407D02*
X182Y407D01*
X1986Y407D02*
X1993Y407D01*
X2243Y407D02*
X2250Y407D01*
X0Y406D02*
X7Y406D01*
X13Y406D02*
X22Y406D01*
X156Y406D02*
X163Y406D01*
X175Y406D02*
X182Y406D01*
X1986Y406D02*
X1993Y406D01*
X2243Y406D02*
X2250Y406D01*
X0Y405D02*
X7Y405D01*
X12Y405D02*
X22Y405D01*
X156Y405D02*
X164Y405D01*
X174Y405D02*
X182Y405D01*
X1986Y405D02*
X1993Y405D01*
X2243Y405D02*
X2250Y405D01*
X0Y404D02*
X7Y404D01*
X11Y404D02*
X21Y404D01*
X157Y404D02*
X165Y404D01*
X173Y404D02*
X182Y404D01*
X1986Y404D02*
X1993Y404D01*
X2243Y404D02*
X2250Y404D01*
X0Y403D02*
X7Y403D01*
X10Y403D02*
X20Y403D01*
X157Y403D02*
X167Y403D01*
X172Y403D02*
X181Y403D01*
X1986Y403D02*
X1993Y403D01*
X2243Y403D02*
X2250Y403D01*
X0Y402D02*
X7Y402D01*
X9Y402D02*
X19Y402D01*
X158Y402D02*
X181Y402D01*
X1986Y402D02*
X1993Y402D01*
X2243Y402D02*
X2250Y402D01*
X0Y401D02*
X18Y401D01*
X158Y401D02*
X180Y401D01*
X1986Y401D02*
X1993Y401D01*
X2243Y401D02*
X2250Y401D01*
X0Y400D02*
X17Y400D01*
X159Y400D02*
X179Y400D01*
X1986Y400D02*
X1993Y400D01*
X2243Y400D02*
X2250Y400D01*
X0Y399D02*
X16Y399D01*
X160Y399D02*
X179Y399D01*
X1986Y399D02*
X1993Y399D01*
X2243Y399D02*
X2250Y399D01*
X0Y398D02*
X15Y398D01*
X161Y398D02*
X177Y398D01*
X1986Y398D02*
X1993Y398D01*
X2243Y398D02*
X2250Y398D01*
X0Y397D02*
X14Y397D01*
X162Y397D02*
X176Y397D01*
X1986Y397D02*
X1993Y397D01*
X2243Y397D02*
X2250Y397D01*
X0Y396D02*
X13Y396D01*
X164Y396D02*
X174Y396D01*
X1986Y396D02*
X1993Y396D01*
X2243Y396D02*
X2250Y396D01*
X0Y395D02*
X12Y395D01*
X167Y395D02*
X171Y395D01*
X1986Y395D02*
X1993Y395D01*
X2243Y395D02*
X2250Y395D01*
X0Y394D02*
X11Y394D01*
X1986Y394D02*
X1993Y394D01*
X2243Y394D02*
X2250Y394D01*
X0Y393D02*
X10Y393D01*
X1986Y393D02*
X1993Y393D01*
X2243Y393D02*
X2250Y393D01*
X0Y392D02*
X9Y392D01*
X1986Y392D02*
X1993Y392D01*
X2243Y392D02*
X2250Y392D01*
X0Y391D02*
X8Y391D01*
X1986Y391D02*
X1993Y391D01*
X2243Y391D02*
X2250Y391D01*
X0Y390D02*
X7Y390D01*
X1986Y390D02*
X1993Y390D01*
X2243Y390D02*
X2250Y390D01*
X0Y389D02*
X7Y389D01*
X1986Y389D02*
X1993Y389D01*
X2243Y389D02*
X2250Y389D01*
X0Y388D02*
X7Y388D01*
X1986Y388D02*
X1993Y388D01*
X2243Y388D02*
X2250Y388D01*
X0Y387D02*
X7Y387D01*
X1986Y387D02*
X1993Y387D01*
X2243Y387D02*
X2250Y387D01*
X0Y386D02*
X7Y386D01*
X1986Y386D02*
X1993Y386D01*
X2243Y386D02*
X2250Y386D01*
X0Y385D02*
X7Y385D01*
X1986Y385D02*
X1993Y385D01*
X2243Y385D02*
X2250Y385D01*
X0Y384D02*
X7Y384D01*
X1986Y384D02*
X1993Y384D01*
X2243Y384D02*
X2250Y384D01*
X0Y383D02*
X7Y383D01*
X1986Y383D02*
X1993Y383D01*
X2243Y383D02*
X2250Y383D01*
X0Y382D02*
X7Y382D01*
X1986Y382D02*
X1993Y382D01*
X2243Y382D02*
X2250Y382D01*
X0Y381D02*
X7Y381D01*
X1986Y381D02*
X1993Y381D01*
X2243Y381D02*
X2250Y381D01*
X0Y380D02*
X7Y380D01*
X1986Y380D02*
X1993Y380D01*
X2243Y380D02*
X2250Y380D01*
X0Y379D02*
X7Y379D01*
X1986Y379D02*
X1993Y379D01*
X2243Y379D02*
X2250Y379D01*
X0Y378D02*
X7Y378D01*
X1986Y378D02*
X1993Y378D01*
X2243Y378D02*
X2250Y378D01*
X0Y377D02*
X7Y377D01*
X1986Y377D02*
X1993Y377D01*
X2243Y377D02*
X2250Y377D01*
X0Y376D02*
X7Y376D01*
X1986Y376D02*
X1993Y376D01*
X2243Y376D02*
X2250Y376D01*
X0Y375D02*
X7Y375D01*
X1986Y375D02*
X1993Y375D01*
X2243Y375D02*
X2250Y375D01*
X0Y374D02*
X7Y374D01*
X1986Y374D02*
X1993Y374D01*
X2243Y374D02*
X2250Y374D01*
X0Y373D02*
X7Y373D01*
X1986Y373D02*
X1993Y373D01*
X2243Y373D02*
X2250Y373D01*
X0Y372D02*
X7Y372D01*
X1986Y372D02*
X1993Y372D01*
X2243Y372D02*
X2250Y372D01*
X0Y371D02*
X7Y371D01*
X1986Y371D02*
X1993Y371D01*
X2243Y371D02*
X2250Y371D01*
X0Y370D02*
X7Y370D01*
X1986Y370D02*
X1993Y370D01*
X2243Y370D02*
X2250Y370D01*
X0Y369D02*
X7Y369D01*
X1986Y369D02*
X1993Y369D01*
X2243Y369D02*
X2250Y369D01*
X0Y368D02*
X7Y368D01*
X1986Y368D02*
X1993Y368D01*
X2243Y368D02*
X2250Y368D01*
X0Y367D02*
X7Y367D01*
X1986Y367D02*
X1993Y367D01*
X2243Y367D02*
X2250Y367D01*
X0Y366D02*
X7Y366D01*
X1986Y366D02*
X1993Y366D01*
X2243Y366D02*
X2250Y366D01*
X0Y365D02*
X7Y365D01*
X1986Y365D02*
X1993Y365D01*
X2243Y365D02*
X2250Y365D01*
X0Y364D02*
X7Y364D01*
X1986Y364D02*
X1993Y364D01*
X2243Y364D02*
X2250Y364D01*
X0Y363D02*
X7Y363D01*
X1986Y363D02*
X1993Y363D01*
X2243Y363D02*
X2250Y363D01*
X0Y362D02*
X7Y362D01*
X1986Y362D02*
X1993Y362D01*
X2243Y362D02*
X2250Y362D01*
X0Y361D02*
X7Y361D01*
X1986Y361D02*
X1993Y361D01*
X2243Y361D02*
X2250Y361D01*
X0Y360D02*
X7Y360D01*
X1986Y360D02*
X1993Y360D01*
X2243Y360D02*
X2250Y360D01*
X0Y359D02*
X7Y359D01*
X1986Y359D02*
X1993Y359D01*
X2243Y359D02*
X2250Y359D01*
X0Y358D02*
X7Y358D01*
X1986Y358D02*
X1993Y358D01*
X2243Y358D02*
X2250Y358D01*
X0Y357D02*
X7Y357D01*
X1986Y357D02*
X1993Y357D01*
X2243Y357D02*
X2250Y357D01*
X0Y356D02*
X7Y356D01*
X1986Y356D02*
X1993Y356D01*
X2243Y356D02*
X2250Y356D01*
X0Y355D02*
X7Y355D01*
X1986Y355D02*
X1993Y355D01*
X2243Y355D02*
X2250Y355D01*
X0Y354D02*
X7Y354D01*
X1986Y354D02*
X1993Y354D01*
X2243Y354D02*
X2250Y354D01*
X0Y353D02*
X7Y353D01*
X1986Y353D02*
X1993Y353D01*
X2243Y353D02*
X2250Y353D01*
X0Y352D02*
X7Y352D01*
X1986Y352D02*
X1993Y352D01*
X2243Y352D02*
X2250Y352D01*
X0Y351D02*
X7Y351D01*
X1986Y351D02*
X1993Y351D01*
X2243Y351D02*
X2250Y351D01*
X0Y350D02*
X7Y350D01*
X1986Y350D02*
X1993Y350D01*
X2243Y350D02*
X2250Y350D01*
X0Y349D02*
X7Y349D01*
X1986Y349D02*
X1993Y349D01*
X2243Y349D02*
X2250Y349D01*
X0Y348D02*
X7Y348D01*
X1986Y348D02*
X1993Y348D01*
X2243Y348D02*
X2250Y348D01*
X0Y347D02*
X7Y347D01*
X1986Y347D02*
X1993Y347D01*
X2243Y347D02*
X2250Y347D01*
X0Y346D02*
X7Y346D01*
X1986Y346D02*
X1993Y346D01*
X2243Y346D02*
X2250Y346D01*
X0Y345D02*
X7Y345D01*
X1986Y345D02*
X1993Y345D01*
X2243Y345D02*
X2250Y345D01*
X0Y344D02*
X7Y344D01*
X1986Y344D02*
X1993Y344D01*
X2243Y344D02*
X2250Y344D01*
X0Y343D02*
X7Y343D01*
X1986Y343D02*
X1993Y343D01*
X2243Y343D02*
X2250Y343D01*
X0Y342D02*
X7Y342D01*
X1986Y342D02*
X1993Y342D01*
X2243Y342D02*
X2250Y342D01*
X0Y341D02*
X7Y341D01*
X1986Y341D02*
X1993Y341D01*
X2243Y341D02*
X2250Y341D01*
X0Y340D02*
X7Y340D01*
X1986Y340D02*
X1993Y340D01*
X2243Y340D02*
X2250Y340D01*
X0Y339D02*
X7Y339D01*
X1986Y339D02*
X1993Y339D01*
X2243Y339D02*
X2250Y339D01*
X0Y338D02*
X35Y338D01*
X1986Y338D02*
X1993Y338D01*
X2243Y338D02*
X2250Y338D01*
X0Y337D02*
X37Y337D01*
X1986Y337D02*
X1993Y337D01*
X2243Y337D02*
X2250Y337D01*
X0Y336D02*
X37Y336D01*
X1986Y336D02*
X1993Y336D01*
X2243Y336D02*
X2250Y336D01*
X0Y335D02*
X37Y335D01*
X1986Y335D02*
X1993Y335D01*
X2243Y335D02*
X2250Y335D01*
X0Y334D02*
X37Y334D01*
X1986Y334D02*
X1993Y334D01*
X2243Y334D02*
X2250Y334D01*
X0Y333D02*
X7Y333D01*
X1986Y333D02*
X1993Y333D01*
X2243Y333D02*
X2250Y333D01*
X0Y332D02*
X7Y332D01*
X1986Y332D02*
X1993Y332D01*
X2243Y332D02*
X2250Y332D01*
X0Y331D02*
X7Y331D01*
X1986Y331D02*
X1993Y331D01*
X2243Y331D02*
X2250Y331D01*
X0Y330D02*
X7Y330D01*
X1986Y330D02*
X1993Y330D01*
X2243Y330D02*
X2250Y330D01*
X0Y329D02*
X7Y329D01*
X1986Y329D02*
X1993Y329D01*
X2243Y329D02*
X2250Y329D01*
X0Y328D02*
X7Y328D01*
X1986Y328D02*
X1993Y328D01*
X2243Y328D02*
X2250Y328D01*
X0Y327D02*
X7Y327D01*
X1986Y327D02*
X1993Y327D01*
X2243Y327D02*
X2250Y327D01*
X0Y326D02*
X7Y326D01*
X1986Y326D02*
X1993Y326D01*
X2243Y326D02*
X2250Y326D01*
X0Y325D02*
X7Y325D01*
X1986Y325D02*
X1993Y325D01*
X2243Y325D02*
X2250Y325D01*
X0Y324D02*
X7Y324D01*
X1986Y324D02*
X1993Y324D01*
X2243Y324D02*
X2250Y324D01*
X0Y323D02*
X7Y323D01*
X1986Y323D02*
X1993Y323D01*
X2243Y323D02*
X2250Y323D01*
X0Y322D02*
X7Y322D01*
X1986Y322D02*
X1993Y322D01*
X2243Y322D02*
X2250Y322D01*
X0Y321D02*
X7Y321D01*
X1986Y321D02*
X1993Y321D01*
X2243Y321D02*
X2250Y321D01*
X0Y320D02*
X7Y320D01*
X1986Y320D02*
X1993Y320D01*
X2243Y320D02*
X2250Y320D01*
X0Y319D02*
X7Y319D01*
X1986Y319D02*
X1993Y319D01*
X2243Y319D02*
X2250Y319D01*
X0Y318D02*
X7Y318D01*
X1986Y318D02*
X1993Y318D01*
X2243Y318D02*
X2250Y318D01*
X0Y317D02*
X7Y317D01*
X1986Y317D02*
X1993Y317D01*
X2243Y317D02*
X2250Y317D01*
X0Y316D02*
X7Y316D01*
X1986Y316D02*
X1993Y316D01*
X2243Y316D02*
X2250Y316D01*
X0Y315D02*
X7Y315D01*
X1986Y315D02*
X1993Y315D01*
X2243Y315D02*
X2250Y315D01*
X0Y314D02*
X7Y314D01*
X1986Y314D02*
X1993Y314D01*
X2243Y314D02*
X2250Y314D01*
X0Y313D02*
X7Y313D01*
X1986Y313D02*
X1993Y313D01*
X2243Y313D02*
X2250Y313D01*
X0Y312D02*
X7Y312D01*
X1986Y312D02*
X1993Y312D01*
X2243Y312D02*
X2250Y312D01*
X0Y311D02*
X7Y311D01*
X1986Y311D02*
X1993Y311D01*
X2243Y311D02*
X2250Y311D01*
X0Y310D02*
X7Y310D01*
X1986Y310D02*
X1993Y310D01*
X2243Y310D02*
X2250Y310D01*
X0Y309D02*
X7Y309D01*
X1986Y309D02*
X1993Y309D01*
X2243Y309D02*
X2250Y309D01*
X0Y308D02*
X7Y308D01*
X1986Y308D02*
X1993Y308D01*
X2243Y308D02*
X2250Y308D01*
X0Y307D02*
X7Y307D01*
X1986Y307D02*
X1993Y307D01*
X2243Y307D02*
X2250Y307D01*
X0Y306D02*
X7Y306D01*
X1986Y306D02*
X1993Y306D01*
X2243Y306D02*
X2250Y306D01*
X0Y305D02*
X7Y305D01*
X1986Y305D02*
X1993Y305D01*
X2243Y305D02*
X2250Y305D01*
X0Y304D02*
X7Y304D01*
X1986Y304D02*
X1993Y304D01*
X2243Y304D02*
X2250Y304D01*
X0Y303D02*
X7Y303D01*
X1986Y303D02*
X1993Y303D01*
X2243Y303D02*
X2250Y303D01*
X0Y302D02*
X7Y302D01*
X1986Y302D02*
X1993Y302D01*
X2243Y302D02*
X2250Y302D01*
X0Y301D02*
X7Y301D01*
X1986Y301D02*
X1993Y301D01*
X2243Y301D02*
X2250Y301D01*
X0Y300D02*
X7Y300D01*
X1986Y300D02*
X1993Y300D01*
X2243Y300D02*
X2250Y300D01*
X0Y299D02*
X7Y299D01*
X1986Y299D02*
X1993Y299D01*
X2243Y299D02*
X2250Y299D01*
X0Y298D02*
X7Y298D01*
X1986Y298D02*
X1993Y298D01*
X2243Y298D02*
X2250Y298D01*
X0Y297D02*
X7Y297D01*
X1986Y297D02*
X1993Y297D01*
X2243Y297D02*
X2250Y297D01*
X0Y296D02*
X7Y296D01*
X1986Y296D02*
X1993Y296D01*
X2243Y296D02*
X2250Y296D01*
X0Y295D02*
X7Y295D01*
X1986Y295D02*
X1993Y295D01*
X2243Y295D02*
X2250Y295D01*
X0Y294D02*
X7Y294D01*
X1986Y294D02*
X1993Y294D01*
X2243Y294D02*
X2250Y294D01*
X0Y293D02*
X7Y293D01*
X1986Y293D02*
X1993Y293D01*
X2243Y293D02*
X2250Y293D01*
X0Y292D02*
X7Y292D01*
X1986Y292D02*
X1993Y292D01*
X2243Y292D02*
X2250Y292D01*
X0Y291D02*
X7Y291D01*
X1986Y291D02*
X1993Y291D01*
X2243Y291D02*
X2250Y291D01*
X0Y290D02*
X7Y290D01*
X1986Y290D02*
X1993Y290D01*
X2243Y290D02*
X2250Y290D01*
X0Y289D02*
X7Y289D01*
X1986Y289D02*
X1993Y289D01*
X2243Y289D02*
X2250Y289D01*
X0Y288D02*
X7Y288D01*
X1986Y288D02*
X1993Y288D01*
X2243Y288D02*
X2250Y288D01*
X0Y287D02*
X7Y287D01*
X1986Y287D02*
X1993Y287D01*
X2243Y287D02*
X2250Y287D01*
X0Y286D02*
X7Y286D01*
X1986Y286D02*
X1993Y286D01*
X2243Y286D02*
X2250Y286D01*
X0Y285D02*
X7Y285D01*
X1986Y285D02*
X1993Y285D01*
X2243Y285D02*
X2250Y285D01*
X0Y284D02*
X7Y284D01*
X1986Y284D02*
X1993Y284D01*
X2243Y284D02*
X2250Y284D01*
X0Y283D02*
X7Y283D01*
X1986Y283D02*
X1993Y283D01*
X2243Y283D02*
X2250Y283D01*
X0Y282D02*
X7Y282D01*
X1986Y282D02*
X1993Y282D01*
X2243Y282D02*
X2250Y282D01*
X0Y281D02*
X7Y281D01*
X1986Y281D02*
X1993Y281D01*
X2243Y281D02*
X2250Y281D01*
X0Y280D02*
X7Y280D01*
X1986Y280D02*
X1993Y280D01*
X2243Y280D02*
X2250Y280D01*
X0Y279D02*
X7Y279D01*
X1986Y279D02*
X1993Y279D01*
X2243Y279D02*
X2250Y279D01*
X0Y278D02*
X7Y278D01*
X1986Y278D02*
X1993Y278D01*
X2243Y278D02*
X2250Y278D01*
X0Y277D02*
X7Y277D01*
X1986Y277D02*
X1993Y277D01*
X2243Y277D02*
X2250Y277D01*
X0Y276D02*
X7Y276D01*
X1986Y276D02*
X1993Y276D01*
X2243Y276D02*
X2250Y276D01*
X0Y275D02*
X7Y275D01*
X1986Y275D02*
X1993Y275D01*
X2243Y275D02*
X2250Y275D01*
X0Y274D02*
X7Y274D01*
X1986Y274D02*
X1993Y274D01*
X2243Y274D02*
X2250Y274D01*
X0Y273D02*
X7Y273D01*
X1986Y273D02*
X1993Y273D01*
X2243Y273D02*
X2250Y273D01*
X0Y272D02*
X7Y272D01*
X1986Y272D02*
X1993Y272D01*
X2243Y272D02*
X2250Y272D01*
X0Y271D02*
X7Y271D01*
X1986Y271D02*
X1993Y271D01*
X2243Y271D02*
X2250Y271D01*
X0Y270D02*
X7Y270D01*
X1986Y270D02*
X1993Y270D01*
X2243Y270D02*
X2250Y270D01*
X0Y269D02*
X7Y269D01*
X1986Y269D02*
X1993Y269D01*
X2243Y269D02*
X2250Y269D01*
X0Y268D02*
X7Y268D01*
X1986Y268D02*
X1993Y268D01*
X2243Y268D02*
X2250Y268D01*
X0Y267D02*
X7Y267D01*
X1986Y267D02*
X1993Y267D01*
X2243Y267D02*
X2250Y267D01*
X0Y266D02*
X7Y266D01*
X1986Y266D02*
X1993Y266D01*
X2243Y266D02*
X2250Y266D01*
X0Y265D02*
X7Y265D01*
X1986Y265D02*
X1993Y265D01*
X2243Y265D02*
X2250Y265D01*
X0Y264D02*
X7Y264D01*
X1986Y264D02*
X1993Y264D01*
X2243Y264D02*
X2250Y264D01*
X0Y263D02*
X7Y263D01*
X1986Y263D02*
X1993Y263D01*
X2243Y263D02*
X2250Y263D01*
X0Y262D02*
X7Y262D01*
X1986Y262D02*
X1993Y262D01*
X2243Y262D02*
X2250Y262D01*
X0Y261D02*
X7Y261D01*
X1986Y261D02*
X1993Y261D01*
X2243Y261D02*
X2250Y261D01*
X0Y260D02*
X7Y260D01*
X1986Y260D02*
X1993Y260D01*
X2243Y260D02*
X2250Y260D01*
X0Y259D02*
X7Y259D01*
X1986Y259D02*
X1993Y259D01*
X2243Y259D02*
X2250Y259D01*
X0Y258D02*
X7Y258D01*
X1986Y258D02*
X1993Y258D01*
X2243Y258D02*
X2250Y258D01*
X0Y257D02*
X7Y257D01*
X1986Y257D02*
X1993Y257D01*
X2243Y257D02*
X2250Y257D01*
X0Y256D02*
X7Y256D01*
X1986Y256D02*
X1993Y256D01*
X2243Y256D02*
X2250Y256D01*
X0Y255D02*
X7Y255D01*
X1986Y255D02*
X1993Y255D01*
X2243Y255D02*
X2250Y255D01*
X0Y254D02*
X7Y254D01*
X1986Y254D02*
X1993Y254D01*
X2243Y254D02*
X2250Y254D01*
X0Y253D02*
X7Y253D01*
X1986Y253D02*
X1993Y253D01*
X2243Y253D02*
X2250Y253D01*
X0Y252D02*
X7Y252D01*
X1986Y252D02*
X1993Y252D01*
X2243Y252D02*
X2250Y252D01*
X0Y251D02*
X7Y251D01*
X1986Y251D02*
X1993Y251D01*
X2243Y251D02*
X2250Y251D01*
X0Y250D02*
X7Y250D01*
X1986Y250D02*
X1993Y250D01*
X2243Y250D02*
X2250Y250D01*
X0Y249D02*
X7Y249D01*
X1986Y249D02*
X1993Y249D01*
X2243Y249D02*
X2250Y249D01*
X0Y248D02*
X7Y248D01*
X1986Y248D02*
X1993Y248D01*
X2243Y248D02*
X2250Y248D01*
X0Y247D02*
X7Y247D01*
X1986Y247D02*
X1993Y247D01*
X2243Y247D02*
X2250Y247D01*
X0Y246D02*
X7Y246D01*
X1986Y246D02*
X1993Y246D01*
X2243Y246D02*
X2250Y246D01*
X0Y245D02*
X7Y245D01*
X1986Y245D02*
X1993Y245D01*
X2243Y245D02*
X2250Y245D01*
X0Y244D02*
X7Y244D01*
X1986Y244D02*
X1993Y244D01*
X2243Y244D02*
X2250Y244D01*
X0Y243D02*
X7Y243D01*
X1986Y243D02*
X1993Y243D01*
X2243Y243D02*
X2250Y243D01*
X0Y242D02*
X7Y242D01*
X1986Y242D02*
X1993Y242D01*
X2243Y242D02*
X2250Y242D01*
X0Y241D02*
X7Y241D01*
X1986Y241D02*
X1993Y241D01*
X2243Y241D02*
X2250Y241D01*
X0Y240D02*
X7Y240D01*
X1986Y240D02*
X1993Y240D01*
X2243Y240D02*
X2250Y240D01*
X0Y239D02*
X7Y239D01*
X1986Y239D02*
X1993Y239D01*
X2243Y239D02*
X2250Y239D01*
X0Y238D02*
X7Y238D01*
X1986Y238D02*
X1993Y238D01*
X2243Y238D02*
X2250Y238D01*
X0Y237D02*
X7Y237D01*
X1986Y237D02*
X1993Y237D01*
X2243Y237D02*
X2250Y237D01*
X0Y236D02*
X7Y236D01*
X1986Y236D02*
X1993Y236D01*
X2243Y236D02*
X2250Y236D01*
X0Y235D02*
X7Y235D01*
X1986Y235D02*
X1993Y235D01*
X2243Y235D02*
X2250Y235D01*
X0Y234D02*
X7Y234D01*
X1986Y234D02*
X1993Y234D01*
X2243Y234D02*
X2250Y234D01*
X0Y233D02*
X7Y233D01*
X1986Y233D02*
X1993Y233D01*
X2243Y233D02*
X2250Y233D01*
X0Y232D02*
X7Y232D01*
X1986Y232D02*
X1993Y232D01*
X2243Y232D02*
X2250Y232D01*
X0Y231D02*
X7Y231D01*
X1986Y231D02*
X1993Y231D01*
X2243Y231D02*
X2250Y231D01*
X0Y230D02*
X7Y230D01*
X1986Y230D02*
X1993Y230D01*
X2243Y230D02*
X2250Y230D01*
X0Y229D02*
X7Y229D01*
X1986Y229D02*
X1993Y229D01*
X2243Y229D02*
X2250Y229D01*
X0Y228D02*
X7Y228D01*
X1986Y228D02*
X1993Y228D01*
X2243Y228D02*
X2250Y228D01*
X0Y227D02*
X7Y227D01*
X1986Y227D02*
X1993Y227D01*
X2243Y227D02*
X2250Y227D01*
X0Y226D02*
X7Y226D01*
X1986Y226D02*
X1993Y226D01*
X2243Y226D02*
X2250Y226D01*
X0Y225D02*
X7Y225D01*
X1986Y225D02*
X1993Y225D01*
X2243Y225D02*
X2250Y225D01*
X0Y224D02*
X7Y224D01*
X1986Y224D02*
X1993Y224D01*
X2243Y224D02*
X2250Y224D01*
X0Y223D02*
X7Y223D01*
X1986Y223D02*
X1993Y223D01*
X2243Y223D02*
X2250Y223D01*
X0Y222D02*
X7Y222D01*
X1986Y222D02*
X1993Y222D01*
X2243Y222D02*
X2250Y222D01*
X0Y221D02*
X7Y221D01*
X1986Y221D02*
X1993Y221D01*
X2243Y221D02*
X2250Y221D01*
X0Y220D02*
X7Y220D01*
X1986Y220D02*
X1993Y220D01*
X2243Y220D02*
X2250Y220D01*
X0Y219D02*
X7Y219D01*
X1986Y219D02*
X1993Y219D01*
X2243Y219D02*
X2250Y219D01*
X0Y218D02*
X7Y218D01*
X1986Y218D02*
X1993Y218D01*
X2243Y218D02*
X2250Y218D01*
X0Y217D02*
X7Y217D01*
X1986Y217D02*
X1993Y217D01*
X2243Y217D02*
X2250Y217D01*
X0Y216D02*
X7Y216D01*
X1986Y216D02*
X1993Y216D01*
X2243Y216D02*
X2250Y216D01*
X0Y215D02*
X7Y215D01*
X1986Y215D02*
X1993Y215D01*
X2243Y215D02*
X2250Y215D01*
X0Y214D02*
X7Y214D01*
X1986Y214D02*
X1993Y214D01*
X2243Y214D02*
X2250Y214D01*
X0Y213D02*
X7Y213D01*
X1986Y213D02*
X1993Y213D01*
X2243Y213D02*
X2250Y213D01*
X0Y212D02*
X7Y212D01*
X1986Y212D02*
X1993Y212D01*
X2243Y212D02*
X2250Y212D01*
X0Y211D02*
X7Y211D01*
X1986Y211D02*
X1993Y211D01*
X2243Y211D02*
X2250Y211D01*
X0Y210D02*
X7Y210D01*
X1986Y210D02*
X1993Y210D01*
X2243Y210D02*
X2250Y210D01*
X0Y209D02*
X7Y209D01*
X1986Y209D02*
X1993Y209D01*
X2243Y209D02*
X2250Y209D01*
X0Y208D02*
X7Y208D01*
X1986Y208D02*
X1993Y208D01*
X2243Y208D02*
X2250Y208D01*
X0Y207D02*
X7Y207D01*
X1986Y207D02*
X1993Y207D01*
X2243Y207D02*
X2250Y207D01*
X0Y206D02*
X7Y206D01*
X1986Y206D02*
X1993Y206D01*
X2243Y206D02*
X2250Y206D01*
X0Y205D02*
X7Y205D01*
X1986Y205D02*
X1993Y205D01*
X2243Y205D02*
X2250Y205D01*
X0Y204D02*
X7Y204D01*
X1986Y204D02*
X1993Y204D01*
X2243Y204D02*
X2250Y204D01*
X0Y203D02*
X7Y203D01*
X1986Y203D02*
X1993Y203D01*
X2243Y203D02*
X2250Y203D01*
X0Y202D02*
X7Y202D01*
X1986Y202D02*
X1993Y202D01*
X2243Y202D02*
X2250Y202D01*
X0Y201D02*
X7Y201D01*
X1986Y201D02*
X1993Y201D01*
X2243Y201D02*
X2250Y201D01*
X0Y200D02*
X7Y200D01*
X1986Y200D02*
X1993Y200D01*
X2243Y200D02*
X2250Y200D01*
X0Y199D02*
X7Y199D01*
X1986Y199D02*
X1993Y199D01*
X2243Y199D02*
X2250Y199D01*
X0Y198D02*
X7Y198D01*
X1986Y198D02*
X1993Y198D01*
X2243Y198D02*
X2250Y198D01*
X0Y197D02*
X7Y197D01*
X1986Y197D02*
X1993Y197D01*
X2243Y197D02*
X2250Y197D01*
X0Y196D02*
X7Y196D01*
X1986Y196D02*
X1993Y196D01*
X2243Y196D02*
X2250Y196D01*
X0Y195D02*
X7Y195D01*
X1986Y195D02*
X1993Y195D01*
X2243Y195D02*
X2250Y195D01*
X0Y194D02*
X7Y194D01*
X1986Y194D02*
X1993Y194D01*
X2243Y194D02*
X2250Y194D01*
X0Y193D02*
X7Y193D01*
X1986Y193D02*
X1993Y193D01*
X2243Y193D02*
X2250Y193D01*
X0Y192D02*
X7Y192D01*
X1986Y192D02*
X1993Y192D01*
X2243Y192D02*
X2250Y192D01*
X0Y191D02*
X7Y191D01*
X1986Y191D02*
X1993Y191D01*
X2243Y191D02*
X2250Y191D01*
X0Y190D02*
X7Y190D01*
X1986Y190D02*
X1993Y190D01*
X2243Y190D02*
X2250Y190D01*
X0Y189D02*
X7Y189D01*
X1986Y189D02*
X1993Y189D01*
X2243Y189D02*
X2250Y189D01*
X0Y188D02*
X7Y188D01*
X1986Y188D02*
X1993Y188D01*
X2243Y188D02*
X2250Y188D01*
X0Y187D02*
X7Y187D01*
X1986Y187D02*
X1993Y187D01*
X2243Y187D02*
X2250Y187D01*
X0Y186D02*
X7Y186D01*
X1986Y186D02*
X1993Y186D01*
X2243Y186D02*
X2250Y186D01*
X0Y185D02*
X7Y185D01*
X1986Y185D02*
X1993Y185D01*
X2243Y185D02*
X2250Y185D01*
X0Y184D02*
X7Y184D01*
X1986Y184D02*
X1993Y184D01*
X2243Y184D02*
X2250Y184D01*
X0Y183D02*
X7Y183D01*
X1986Y183D02*
X1993Y183D01*
X2243Y183D02*
X2250Y183D01*
X0Y182D02*
X7Y182D01*
X1986Y182D02*
X1993Y182D01*
X2243Y182D02*
X2250Y182D01*
X0Y181D02*
X7Y181D01*
X1986Y181D02*
X1993Y181D01*
X2243Y181D02*
X2250Y181D01*
X0Y180D02*
X7Y180D01*
X1986Y180D02*
X1993Y180D01*
X2243Y180D02*
X2250Y180D01*
X0Y179D02*
X7Y179D01*
X1986Y179D02*
X1993Y179D01*
X2243Y179D02*
X2250Y179D01*
X0Y178D02*
X7Y178D01*
X1986Y178D02*
X1993Y178D01*
X2243Y178D02*
X2250Y178D01*
X0Y177D02*
X7Y177D01*
X1986Y177D02*
X1993Y177D01*
X2243Y177D02*
X2250Y177D01*
X0Y176D02*
X7Y176D01*
X1986Y176D02*
X1993Y176D01*
X2243Y176D02*
X2250Y176D01*
X0Y175D02*
X7Y175D01*
X1986Y175D02*
X1993Y175D01*
X2243Y175D02*
X2250Y175D01*
X0Y174D02*
X7Y174D01*
X1986Y174D02*
X1993Y174D01*
X2243Y174D02*
X2250Y174D01*
X0Y173D02*
X7Y173D01*
X1986Y173D02*
X1993Y173D01*
X2243Y173D02*
X2250Y173D01*
X0Y172D02*
X7Y172D01*
X1986Y172D02*
X1993Y172D01*
X2243Y172D02*
X2250Y172D01*
X0Y171D02*
X7Y171D01*
X1986Y171D02*
X1993Y171D01*
X2243Y171D02*
X2250Y171D01*
X0Y170D02*
X7Y170D01*
X1986Y170D02*
X1993Y170D01*
X2243Y170D02*
X2250Y170D01*
X0Y169D02*
X7Y169D01*
X1986Y169D02*
X1993Y169D01*
X2243Y169D02*
X2250Y169D01*
X0Y168D02*
X7Y168D01*
X1986Y168D02*
X1993Y168D01*
X2243Y168D02*
X2250Y168D01*
X0Y167D02*
X7Y167D01*
X1986Y167D02*
X1993Y167D01*
X2243Y167D02*
X2250Y167D01*
X0Y166D02*
X7Y166D01*
X1986Y166D02*
X1993Y166D01*
X2243Y166D02*
X2250Y166D01*
X0Y165D02*
X7Y165D01*
X1986Y165D02*
X1993Y165D01*
X2243Y165D02*
X2250Y165D01*
X0Y164D02*
X7Y164D01*
X1986Y164D02*
X1993Y164D01*
X2243Y164D02*
X2250Y164D01*
X0Y163D02*
X7Y163D01*
X1986Y163D02*
X1993Y163D01*
X2243Y163D02*
X2250Y163D01*
X0Y162D02*
X7Y162D01*
X1986Y162D02*
X1993Y162D01*
X2243Y162D02*
X2250Y162D01*
X0Y161D02*
X7Y161D01*
X1986Y161D02*
X1993Y161D01*
X2243Y161D02*
X2250Y161D01*
X0Y160D02*
X7Y160D01*
X1986Y160D02*
X1993Y160D01*
X2243Y160D02*
X2250Y160D01*
X0Y159D02*
X7Y159D01*
X1986Y159D02*
X1993Y159D01*
X2243Y159D02*
X2250Y159D01*
X0Y158D02*
X7Y158D01*
X1986Y158D02*
X1993Y158D01*
X2243Y158D02*
X2250Y158D01*
X0Y157D02*
X7Y157D01*
X1986Y157D02*
X1993Y157D01*
X2243Y157D02*
X2250Y157D01*
X0Y156D02*
X7Y156D01*
X1986Y156D02*
X1993Y156D01*
X2243Y156D02*
X2250Y156D01*
X0Y155D02*
X7Y155D01*
X1986Y155D02*
X1993Y155D01*
X2243Y155D02*
X2250Y155D01*
X0Y154D02*
X7Y154D01*
X1986Y154D02*
X1993Y154D01*
X2243Y154D02*
X2250Y154D01*
X0Y153D02*
X7Y153D01*
X1986Y153D02*
X1993Y153D01*
X2243Y153D02*
X2250Y153D01*
X0Y152D02*
X7Y152D01*
X1986Y152D02*
X1993Y152D01*
X2243Y152D02*
X2250Y152D01*
X0Y151D02*
X7Y151D01*
X1892Y151D02*
X1894Y151D01*
X1986Y151D02*
X1993Y151D01*
X2243Y151D02*
X2250Y151D01*
X0Y150D02*
X7Y150D01*
X1885Y150D02*
X1902Y150D01*
X1986Y150D02*
X1993Y150D01*
X2243Y150D02*
X2250Y150D01*
X0Y149D02*
X7Y149D01*
X1881Y149D02*
X1906Y149D01*
X1986Y149D02*
X1993Y149D01*
X2243Y149D02*
X2250Y149D01*
X0Y148D02*
X7Y148D01*
X1878Y148D02*
X1909Y148D01*
X1986Y148D02*
X1993Y148D01*
X2243Y148D02*
X2250Y148D01*
X0Y147D02*
X7Y147D01*
X1876Y147D02*
X1911Y147D01*
X1986Y147D02*
X1993Y147D01*
X2243Y147D02*
X2250Y147D01*
X0Y146D02*
X7Y146D01*
X1874Y146D02*
X1913Y146D01*
X1986Y146D02*
X1993Y146D01*
X2243Y146D02*
X2250Y146D01*
X0Y145D02*
X7Y145D01*
X1872Y145D02*
X1915Y145D01*
X1986Y145D02*
X1993Y145D01*
X2243Y145D02*
X2250Y145D01*
X0Y144D02*
X7Y144D01*
X1870Y144D02*
X1917Y144D01*
X1986Y144D02*
X1993Y144D01*
X2243Y144D02*
X2250Y144D01*
X0Y143D02*
X7Y143D01*
X1869Y143D02*
X1891Y143D01*
X1896Y143D02*
X1918Y143D01*
X1986Y143D02*
X1993Y143D01*
X2243Y143D02*
X2250Y143D01*
X0Y142D02*
X7Y142D01*
X1867Y142D02*
X1884Y142D01*
X1903Y142D02*
X1919Y142D01*
X1986Y142D02*
X1993Y142D01*
X2243Y142D02*
X2250Y142D01*
X0Y141D02*
X7Y141D01*
X1866Y141D02*
X1881Y141D01*
X1906Y141D02*
X1921Y141D01*
X1986Y141D02*
X1993Y141D01*
X2243Y141D02*
X2250Y141D01*
X0Y140D02*
X7Y140D01*
X1865Y140D02*
X1878Y140D01*
X1908Y140D02*
X1922Y140D01*
X1986Y140D02*
X1993Y140D01*
X2243Y140D02*
X2250Y140D01*
X0Y139D02*
X7Y139D01*
X1864Y139D02*
X1876Y139D01*
X1911Y139D02*
X1923Y139D01*
X1986Y139D02*
X1993Y139D01*
X2243Y139D02*
X2250Y139D01*
X0Y138D02*
X7Y138D01*
X1863Y138D02*
X1875Y138D01*
X1912Y138D02*
X1924Y138D01*
X1986Y138D02*
X1994Y138D01*
X2243Y138D02*
X2250Y138D01*
X0Y137D02*
X7Y137D01*
X1862Y137D02*
X1873Y137D01*
X1914Y137D02*
X1925Y137D01*
X1986Y137D02*
X1993Y137D01*
X2243Y137D02*
X2250Y137D01*
X0Y136D02*
X7Y136D01*
X1861Y136D02*
X1872Y136D01*
X1915Y136D02*
X1926Y136D01*
X1987Y136D02*
X1994Y136D01*
X2243Y136D02*
X2250Y136D01*
X0Y135D02*
X7Y135D01*
X1860Y135D02*
X1870Y135D01*
X1916Y135D02*
X1927Y135D01*
X1987Y135D02*
X1994Y135D01*
X2243Y135D02*
X2250Y135D01*
X0Y134D02*
X7Y134D01*
X1860Y134D02*
X1869Y134D01*
X1917Y134D02*
X1927Y134D01*
X1987Y134D02*
X1994Y134D01*
X2243Y134D02*
X2250Y134D01*
X0Y133D02*
X7Y133D01*
X1859Y133D02*
X1868Y133D01*
X1919Y133D02*
X1928Y133D01*
X1987Y133D02*
X1994Y133D01*
X2243Y133D02*
X2250Y133D01*
X0Y132D02*
X7Y132D01*
X1858Y132D02*
X1867Y132D01*
X1920Y132D02*
X1929Y132D01*
X1986Y132D02*
X1993Y132D01*
X2243Y132D02*
X2250Y132D01*
X0Y131D02*
X7Y131D01*
X1857Y131D02*
X1866Y131D01*
X1920Y131D02*
X1929Y131D01*
X1986Y131D02*
X1993Y131D01*
X2243Y131D02*
X2250Y131D01*
X0Y130D02*
X7Y130D01*
X1857Y130D02*
X1865Y130D01*
X1921Y130D02*
X1930Y130D01*
X1986Y130D02*
X1993Y130D01*
X2243Y130D02*
X2250Y130D01*
X0Y129D02*
X7Y129D01*
X1856Y129D02*
X1865Y129D01*
X1922Y129D02*
X1931Y129D01*
X1986Y129D02*
X1993Y129D01*
X2243Y129D02*
X2250Y129D01*
X0Y128D02*
X7Y128D01*
X1856Y128D02*
X1864Y128D01*
X1923Y128D02*
X1931Y128D01*
X1986Y128D02*
X1993Y128D01*
X2243Y128D02*
X2250Y128D01*
X0Y127D02*
X7Y127D01*
X1855Y127D02*
X1863Y127D01*
X1924Y127D02*
X1932Y127D01*
X1986Y127D02*
X1993Y127D01*
X2243Y127D02*
X2250Y127D01*
X0Y126D02*
X7Y126D01*
X1855Y126D02*
X1863Y126D01*
X1924Y126D02*
X1932Y126D01*
X1986Y126D02*
X1993Y126D01*
X2243Y126D02*
X2250Y126D01*
X0Y125D02*
X7Y125D01*
X1854Y125D02*
X1862Y125D01*
X1925Y125D02*
X1933Y125D01*
X1986Y125D02*
X1993Y125D01*
X2243Y125D02*
X2250Y125D01*
X0Y124D02*
X7Y124D01*
X1854Y124D02*
X1862Y124D01*
X1925Y124D02*
X1933Y124D01*
X1986Y124D02*
X1993Y124D01*
X2243Y124D02*
X2250Y124D01*
X0Y123D02*
X7Y123D01*
X1854Y123D02*
X1861Y123D01*
X1926Y123D02*
X1933Y123D01*
X1986Y123D02*
X1993Y123D01*
X2243Y123D02*
X2250Y123D01*
X0Y122D02*
X7Y122D01*
X1853Y122D02*
X1861Y122D01*
X1926Y122D02*
X1934Y122D01*
X1986Y122D02*
X1993Y122D01*
X2243Y122D02*
X2250Y122D01*
X0Y121D02*
X7Y121D01*
X1853Y121D02*
X1860Y121D01*
X1927Y121D02*
X1934Y121D01*
X1985Y121D02*
X1992Y121D01*
X2243Y121D02*
X2250Y121D01*
X0Y120D02*
X7Y120D01*
X1852Y120D02*
X1860Y120D01*
X1927Y120D02*
X1934Y120D01*
X1985Y120D02*
X1992Y120D01*
X2243Y120D02*
X2250Y120D01*
X0Y119D02*
X7Y119D01*
X1852Y119D02*
X1859Y119D01*
X1927Y119D02*
X1935Y119D01*
X1985Y119D02*
X1992Y119D01*
X2243Y119D02*
X2250Y119D01*
X0Y118D02*
X7Y118D01*
X1852Y118D02*
X1859Y118D01*
X1928Y118D02*
X1935Y118D01*
X1985Y118D02*
X1992Y118D01*
X2243Y118D02*
X2250Y118D01*
X0Y117D02*
X7Y117D01*
X1852Y117D02*
X1859Y117D01*
X1928Y117D02*
X1935Y117D01*
X1985Y117D02*
X1992Y117D01*
X2243Y117D02*
X2250Y117D01*
X0Y116D02*
X7Y116D01*
X1851Y116D02*
X1859Y116D01*
X1928Y116D02*
X1935Y116D01*
X1985Y116D02*
X1992Y116D01*
X2243Y116D02*
X2250Y116D01*
X0Y115D02*
X7Y115D01*
X1851Y115D02*
X1858Y115D01*
X1928Y115D02*
X1936Y115D01*
X1984Y115D02*
X1991Y115D01*
X2243Y115D02*
X2250Y115D01*
X0Y114D02*
X7Y114D01*
X1851Y114D02*
X1858Y114D01*
X1929Y114D02*
X1936Y114D01*
X1984Y114D02*
X1991Y114D01*
X2243Y114D02*
X2250Y114D01*
X0Y113D02*
X7Y113D01*
X1851Y113D02*
X1858Y113D01*
X1929Y113D02*
X1936Y113D01*
X1984Y113D02*
X1991Y113D01*
X2243Y113D02*
X2250Y113D01*
X0Y112D02*
X7Y112D01*
X1851Y112D02*
X1858Y112D01*
X1929Y112D02*
X1936Y112D01*
X1984Y112D02*
X1991Y112D01*
X2243Y112D02*
X2250Y112D01*
X0Y111D02*
X7Y111D01*
X1851Y111D02*
X1858Y111D01*
X1929Y111D02*
X1936Y111D01*
X1983Y111D02*
X1990Y111D01*
X2243Y111D02*
X2250Y111D01*
X0Y110D02*
X7Y110D01*
X1851Y110D02*
X1858Y110D01*
X1929Y110D02*
X1936Y110D01*
X1983Y110D02*
X1990Y110D01*
X2243Y110D02*
X2250Y110D01*
X0Y109D02*
X7Y109D01*
X1851Y109D02*
X1858Y109D01*
X1929Y109D02*
X1936Y109D01*
X1983Y109D02*
X1990Y109D01*
X2243Y109D02*
X2250Y109D01*
X0Y108D02*
X7Y108D01*
X1851Y108D02*
X1858Y108D01*
X1929Y108D02*
X1936Y108D01*
X1982Y108D02*
X1990Y108D01*
X2243Y108D02*
X2250Y108D01*
X0Y107D02*
X7Y107D01*
X1851Y107D02*
X1858Y107D01*
X1929Y107D02*
X1936Y107D01*
X1982Y107D02*
X1989Y107D01*
X2243Y107D02*
X2250Y107D01*
X0Y106D02*
X7Y106D01*
X1851Y106D02*
X1858Y106D01*
X1929Y106D02*
X1936Y106D01*
X1982Y106D02*
X1989Y106D01*
X2243Y106D02*
X2250Y106D01*
X0Y105D02*
X7Y105D01*
X1851Y105D02*
X1858Y105D01*
X1929Y105D02*
X1936Y105D01*
X1982Y105D02*
X1989Y105D01*
X2243Y105D02*
X2250Y105D01*
X0Y104D02*
X7Y104D01*
X1851Y104D02*
X1858Y104D01*
X1929Y104D02*
X1936Y104D01*
X1981Y104D02*
X1988Y104D01*
X2243Y104D02*
X2250Y104D01*
X0Y103D02*
X7Y103D01*
X1851Y103D02*
X1858Y103D01*
X1929Y103D02*
X1936Y103D01*
X1981Y103D02*
X1988Y103D01*
X2243Y103D02*
X2250Y103D01*
X0Y102D02*
X8Y102D01*
X1851Y102D02*
X1858Y102D01*
X1929Y102D02*
X1936Y102D01*
X1980Y102D02*
X1988Y102D01*
X2243Y102D02*
X2250Y102D01*
X0Y101D02*
X8Y101D01*
X1851Y101D02*
X1858Y101D01*
X1929Y101D02*
X1936Y101D01*
X1980Y101D02*
X1987Y101D01*
X2243Y101D02*
X2250Y101D01*
X0Y100D02*
X9Y100D01*
X1851Y100D02*
X1858Y100D01*
X1928Y100D02*
X1935Y100D01*
X1980Y100D02*
X1987Y100D01*
X2243Y100D02*
X2250Y100D01*
X0Y99D02*
X9Y99D01*
X1852Y99D02*
X1859Y99D01*
X1928Y99D02*
X1935Y99D01*
X1979Y99D02*
X1987Y99D01*
X2243Y99D02*
X2250Y99D01*
X0Y98D02*
X9Y98D01*
X1852Y98D02*
X1859Y98D01*
X1928Y98D02*
X1935Y98D01*
X1979Y98D02*
X1986Y98D01*
X2243Y98D02*
X2250Y98D01*
X0Y97D02*
X10Y97D01*
X1852Y97D02*
X1859Y97D01*
X1928Y97D02*
X1935Y97D01*
X1978Y97D02*
X1986Y97D01*
X2243Y97D02*
X2250Y97D01*
X0Y96D02*
X10Y96D01*
X1852Y96D02*
X1860Y96D01*
X1927Y96D02*
X1934Y96D01*
X1978Y96D02*
X1985Y96D01*
X2243Y96D02*
X2250Y96D01*
X0Y95D02*
X11Y95D01*
X1853Y95D02*
X1860Y95D01*
X1927Y95D02*
X1934Y95D01*
X1977Y95D02*
X1985Y95D01*
X2243Y95D02*
X2250Y95D01*
X0Y94D02*
X11Y94D01*
X1853Y94D02*
X1860Y94D01*
X1926Y94D02*
X1934Y94D01*
X1977Y94D02*
X1985Y94D01*
X2243Y94D02*
X2250Y94D01*
X0Y93D02*
X12Y93D01*
X1853Y93D02*
X1861Y93D01*
X1926Y93D02*
X1933Y93D01*
X1976Y93D02*
X1984Y93D01*
X2243Y93D02*
X2250Y93D01*
X0Y92D02*
X12Y92D01*
X1854Y92D02*
X1861Y92D01*
X1926Y92D02*
X1933Y92D01*
X1976Y92D02*
X1984Y92D01*
X2243Y92D02*
X2250Y92D01*
X0Y91D02*
X13Y91D01*
X1854Y91D02*
X1862Y91D01*
X1925Y91D02*
X1933Y91D01*
X1975Y91D02*
X1983Y91D01*
X2243Y91D02*
X2250Y91D01*
X0Y90D02*
X13Y90D01*
X1855Y90D02*
X1862Y90D01*
X1924Y90D02*
X1932Y90D01*
X1975Y90D02*
X1983Y90D01*
X2243Y90D02*
X2250Y90D01*
X0Y89D02*
X14Y89D01*
X1855Y89D02*
X1863Y89D01*
X1924Y89D02*
X1932Y89D01*
X1974Y89D02*
X1982Y89D01*
X2243Y89D02*
X2250Y89D01*
X0Y88D02*
X15Y88D01*
X1856Y88D02*
X1864Y88D01*
X1923Y88D02*
X1931Y88D01*
X1973Y88D02*
X1982Y88D01*
X2243Y88D02*
X2250Y88D01*
X0Y87D02*
X15Y87D01*
X1856Y87D02*
X1864Y87D01*
X1922Y87D02*
X1931Y87D01*
X1973Y87D02*
X1981Y87D01*
X2243Y87D02*
X2250Y87D01*
X0Y86D02*
X16Y86D01*
X1857Y86D02*
X1865Y86D01*
X1922Y86D02*
X1930Y86D01*
X1972Y86D02*
X1980Y86D01*
X2243Y86D02*
X2250Y86D01*
X0Y85D02*
X16Y85D01*
X1857Y85D02*
X1866Y85D01*
X1921Y85D02*
X1930Y85D01*
X1972Y85D02*
X1980Y85D01*
X2243Y85D02*
X2250Y85D01*
X0Y84D02*
X7Y84D01*
X9Y84D02*
X17Y84D01*
X1858Y84D02*
X1867Y84D01*
X1920Y84D02*
X1929Y84D01*
X1971Y84D02*
X1979Y84D01*
X2243Y84D02*
X2250Y84D01*
X0Y83D02*
X7Y83D01*
X9Y83D02*
X18Y83D01*
X1858Y83D02*
X1868Y83D01*
X1919Y83D02*
X1928Y83D01*
X1970Y83D02*
X1979Y83D01*
X2243Y83D02*
X2250Y83D01*
X0Y82D02*
X7Y82D01*
X10Y82D02*
X19Y82D01*
X1859Y82D02*
X1869Y82D01*
X1918Y82D02*
X1928Y82D01*
X1969Y82D02*
X1978Y82D01*
X2243Y82D02*
X2250Y82D01*
X0Y81D02*
X7Y81D01*
X11Y81D02*
X19Y81D01*
X1860Y81D02*
X1870Y81D01*
X1917Y81D02*
X1927Y81D01*
X1969Y81D02*
X1977Y81D01*
X2243Y81D02*
X2250Y81D01*
X0Y80D02*
X7Y80D01*
X11Y80D02*
X20Y80D01*
X1861Y80D02*
X1871Y80D01*
X1916Y80D02*
X1926Y80D01*
X1968Y80D02*
X1977Y80D01*
X2243Y80D02*
X2250Y80D01*
X0Y79D02*
X7Y79D01*
X12Y79D02*
X21Y79D01*
X1862Y79D02*
X1872Y79D01*
X1914Y79D02*
X1925Y79D01*
X1967Y79D02*
X1976Y79D01*
X2243Y79D02*
X2250Y79D01*
X0Y78D02*
X7Y78D01*
X13Y78D02*
X22Y78D01*
X1863Y78D02*
X1874Y78D01*
X1913Y78D02*
X1924Y78D01*
X1967Y78D02*
X1975Y78D01*
X2243Y78D02*
X2250Y78D01*
X0Y77D02*
X7Y77D01*
X13Y77D02*
X22Y77D01*
X1863Y77D02*
X1876Y77D01*
X1911Y77D02*
X1923Y77D01*
X1966Y77D02*
X1975Y77D01*
X2243Y77D02*
X2250Y77D01*
X0Y76D02*
X7Y76D01*
X14Y76D02*
X23Y76D01*
X1865Y76D02*
X1877Y76D01*
X1909Y76D02*
X1922Y76D01*
X1965Y76D02*
X1974Y76D01*
X2243Y76D02*
X2250Y76D01*
X0Y75D02*
X7Y75D01*
X15Y75D02*
X24Y75D01*
X1866Y75D02*
X1880Y75D01*
X1907Y75D02*
X1921Y75D01*
X1964Y75D02*
X1973Y75D01*
X2243Y75D02*
X2250Y75D01*
X0Y74D02*
X7Y74D01*
X16Y74D02*
X25Y74D01*
X1867Y74D02*
X1882Y74D01*
X1904Y74D02*
X1920Y74D01*
X1963Y74D02*
X1973Y74D01*
X2243Y74D02*
X2250Y74D01*
X0Y73D02*
X7Y73D01*
X16Y73D02*
X26Y73D01*
X1868Y73D02*
X1887Y73D01*
X1900Y73D02*
X1919Y73D01*
X1962Y73D02*
X1972Y73D01*
X2243Y73D02*
X2250Y73D01*
X0Y72D02*
X7Y72D01*
X17Y72D02*
X27Y72D01*
X1870Y72D02*
X1917Y72D01*
X1961Y72D02*
X1971Y72D01*
X2243Y72D02*
X2250Y72D01*
X0Y71D02*
X7Y71D01*
X18Y71D02*
X28Y71D01*
X1871Y71D02*
X1916Y71D01*
X1960Y71D02*
X1970Y71D01*
X2243Y71D02*
X2250Y71D01*
X0Y70D02*
X7Y70D01*
X19Y70D02*
X29Y70D01*
X1873Y70D02*
X1914Y70D01*
X1959Y70D02*
X1969Y70D01*
X2243Y70D02*
X2250Y70D01*
X0Y69D02*
X7Y69D01*
X20Y69D02*
X30Y69D01*
X1875Y69D02*
X1912Y69D01*
X1958Y69D02*
X1968Y69D01*
X2243Y69D02*
X2250Y69D01*
X0Y68D02*
X7Y68D01*
X21Y68D02*
X31Y68D01*
X1877Y68D02*
X1910Y68D01*
X1957Y68D02*
X1968Y68D01*
X2243Y68D02*
X2250Y68D01*
X0Y67D02*
X7Y67D01*
X21Y67D02*
X32Y67D01*
X1880Y67D02*
X1907Y67D01*
X1956Y67D02*
X1967Y67D01*
X2243Y67D02*
X2250Y67D01*
X0Y66D02*
X7Y66D01*
X22Y66D02*
X33Y66D01*
X1883Y66D02*
X1904Y66D01*
X1955Y66D02*
X1966Y66D01*
X2243Y66D02*
X2250Y66D01*
X0Y65D02*
X7Y65D01*
X23Y65D02*
X34Y65D01*
X1888Y65D02*
X1899Y65D01*
X1954Y65D02*
X1965Y65D01*
X2243Y65D02*
X2250Y65D01*
X0Y64D02*
X7Y64D01*
X24Y64D02*
X35Y64D01*
X1953Y64D02*
X1964Y64D01*
X2243Y64D02*
X2250Y64D01*
X0Y63D02*
X7Y63D01*
X25Y63D02*
X37Y63D01*
X1951Y63D02*
X1963Y63D01*
X2243Y63D02*
X2250Y63D01*
X0Y62D02*
X7Y62D01*
X26Y62D02*
X38Y62D01*
X1950Y62D02*
X1962Y62D01*
X2243Y62D02*
X2250Y62D01*
X0Y61D02*
X7Y61D01*
X28Y61D02*
X39Y61D01*
X1949Y61D02*
X1961Y61D01*
X2243Y61D02*
X2250Y61D01*
X0Y60D02*
X7Y60D01*
X29Y60D02*
X41Y60D01*
X1947Y60D02*
X1959Y60D01*
X2243Y60D02*
X2250Y60D01*
X0Y59D02*
X7Y59D01*
X30Y59D02*
X42Y59D01*
X1946Y59D02*
X1958Y59D01*
X2243Y59D02*
X2250Y59D01*
X0Y58D02*
X7Y58D01*
X31Y58D02*
X43Y58D01*
X1945Y58D02*
X1957Y58D01*
X2243Y58D02*
X2250Y58D01*
X0Y57D02*
X7Y57D01*
X32Y57D02*
X45Y57D01*
X1943Y57D02*
X1956Y57D01*
X2243Y57D02*
X2250Y57D01*
X0Y56D02*
X7Y56D01*
X34Y56D02*
X47Y56D01*
X1941Y56D02*
X1954Y56D01*
X2243Y56D02*
X2250Y56D01*
X0Y55D02*
X7Y55D01*
X35Y55D02*
X49Y55D01*
X1940Y55D02*
X1953Y55D01*
X2243Y55D02*
X2250Y55D01*
X0Y54D02*
X7Y54D01*
X36Y54D02*
X50Y54D01*
X1938Y54D02*
X1952Y54D01*
X2243Y54D02*
X2250Y54D01*
X0Y53D02*
X7Y53D01*
X38Y53D02*
X52Y53D01*
X1936Y53D02*
X1950Y53D01*
X2243Y53D02*
X2250Y53D01*
X0Y52D02*
X7Y52D01*
X39Y52D02*
X54Y52D01*
X1934Y52D02*
X1949Y52D01*
X2243Y52D02*
X2250Y52D01*
X0Y51D02*
X7Y51D01*
X41Y51D02*
X57Y51D01*
X1931Y51D02*
X1947Y51D01*
X2243Y51D02*
X2250Y51D01*
X0Y50D02*
X7Y50D01*
X42Y50D02*
X59Y50D01*
X1929Y50D02*
X1946Y50D01*
X2243Y50D02*
X2250Y50D01*
X0Y49D02*
X7Y49D01*
X44Y49D02*
X61Y49D01*
X1927Y49D02*
X1944Y49D01*
X2243Y49D02*
X2250Y49D01*
X0Y48D02*
X7Y48D01*
X46Y48D02*
X64Y48D01*
X1924Y48D02*
X1942Y48D01*
X2243Y48D02*
X2250Y48D01*
X0Y47D02*
X7Y47D01*
X48Y47D02*
X67Y47D01*
X1921Y47D02*
X1940Y47D01*
X2243Y47D02*
X2250Y47D01*
X0Y46D02*
X7Y46D01*
X50Y46D02*
X71Y46D01*
X1917Y46D02*
X1939Y46D01*
X2243Y46D02*
X2250Y46D01*
X0Y45D02*
X7Y45D01*
X52Y45D02*
X75Y45D01*
X1913Y45D02*
X1936Y45D01*
X2243Y45D02*
X2250Y45D01*
X0Y44D02*
X7Y44D01*
X54Y44D02*
X82Y44D01*
X1907Y44D02*
X1934Y44D01*
X2243Y44D02*
X2250Y44D01*
X0Y43D02*
X7Y43D01*
X56Y43D02*
X1932Y43D01*
X2243Y43D02*
X2250Y43D01*
X0Y42D02*
X7Y42D01*
X59Y42D02*
X1929Y42D01*
X2243Y42D02*
X2250Y42D01*
X0Y41D02*
X7Y41D01*
X61Y41D02*
X1927Y41D01*
X2243Y41D02*
X2250Y41D01*
X0Y40D02*
X7Y40D01*
X64Y40D02*
X1924Y40D01*
X2243Y40D02*
X2250Y40D01*
X0Y39D02*
X7Y39D01*
X68Y39D02*
X1921Y39D01*
X2243Y39D02*
X2250Y39D01*
X0Y38D02*
X7Y38D01*
X72Y38D02*
X1917Y38D01*
X2243Y38D02*
X2250Y38D01*
X0Y37D02*
X7Y37D01*
X76Y37D02*
X1912Y37D01*
X2243Y37D02*
X2250Y37D01*
X0Y36D02*
X7Y36D01*
X82Y36D02*
X1906Y36D01*
X2243Y36D02*
X2250Y36D01*
X0Y35D02*
X7Y35D01*
X2243Y35D02*
X2250Y35D01*
X0Y34D02*
X7Y34D01*
X2243Y34D02*
X2250Y34D01*
X0Y33D02*
X7Y33D01*
X2243Y33D02*
X2250Y33D01*
X0Y32D02*
X7Y32D01*
X2243Y32D02*
X2250Y32D01*
X0Y31D02*
X7Y31D01*
X2243Y31D02*
X2250Y31D01*
X0Y30D02*
X7Y30D01*
X2243Y30D02*
X2250Y30D01*
X0Y29D02*
X7Y29D01*
X2243Y29D02*
X2250Y29D01*
X0Y28D02*
X7Y28D01*
X2243Y28D02*
X2250Y28D01*
X0Y27D02*
X7Y27D01*
X2243Y27D02*
X2250Y27D01*
X0Y26D02*
X7Y26D01*
X2243Y26D02*
X2250Y26D01*
X0Y25D02*
X7Y25D01*
X2243Y25D02*
X2250Y25D01*
X0Y24D02*
X7Y24D01*
X2243Y24D02*
X2250Y24D01*
X0Y23D02*
X7Y23D01*
X2243Y23D02*
X2250Y23D01*
X0Y22D02*
X7Y22D01*
X2243Y22D02*
X2250Y22D01*
X0Y21D02*
X7Y21D01*
X2243Y21D02*
X2250Y21D01*
X0Y20D02*
X7Y20D01*
X2243Y20D02*
X2250Y20D01*
X0Y19D02*
X7Y19D01*
X2243Y19D02*
X2250Y19D01*
X0Y18D02*
X7Y18D01*
X2243Y18D02*
X2250Y18D01*
X0Y17D02*
X7Y17D01*
X2243Y17D02*
X2250Y17D01*
X0Y16D02*
X7Y16D01*
X2243Y16D02*
X2250Y16D01*
X0Y15D02*
X7Y15D01*
X2243Y15D02*
X2250Y15D01*
X0Y14D02*
X7Y14D01*
X2243Y14D02*
X2250Y14D01*
X0Y13D02*
X7Y13D01*
X2243Y13D02*
X2250Y13D01*
X0Y12D02*
X7Y12D01*
X2243Y12D02*
X2250Y12D01*
X0Y11D02*
X7Y11D01*
X2243Y11D02*
X2250Y11D01*
X0Y10D02*
X7Y10D01*
X2243Y10D02*
X2250Y10D01*
X0Y9D02*
X7Y9D01*
X2243Y9D02*
X2250Y9D01*
X0Y8D02*
X2250Y8D01*
X0Y7D02*
X2250Y7D01*
X0Y6D02*
X2250Y6D01*
X0Y5D02*
X2250Y5D01*
X0Y4D02*
X2250Y4D01*
X0Y3D02*
X2250Y3D01*
X0Y2D02*
X2250Y2D01*
X0Y1D02*
X2250Y1D01*
D02*
G04 End of Silk1*
M02*